STARTFONT 2.1
COMMENT
COMMENT Converted from OpenType font "IBMPlexSans-Medium.ttf" by "otf2bdf 3.0".
COMMENT
FONT -FreeType-IBM Plex Sans Medm-Medium-R-Normal--72-720-72-72-P-360-ISO10646-1
SIZE 72 72 72
FONTBOUNDINGBOX 108 100 -16 -18
STARTPROPERTIES 19
FOUNDRY "FreeType"
FAMILY_NAME "IBM Plex Sans Medm"
WEIGHT_NAME "Medium"
SLANT "R"
SETWIDTH_NAME "Normal"
ADD_STYLE_NAME ""
PIXEL_SIZE 72
POINT_SIZE 720
RESOLUTION_X 72
RESOLUTION_Y 72
SPACING "P"
AVERAGE_WIDTH 360
CHARSET_REGISTRY "ISO10646"
CHARSET_ENCODING "1"
FONT_ASCENT 73
FONT_DESCENT 19
COPYRIGHT "Copyright 2018 IBM Corp. All rights reserved."
_OTF_FONTFILE "IBMPlexSans-Medium.ttf"
_OTF_PSNAME "IBMPlexSans-Medm"
ENDPROPERTIES
CHARS 844
STARTCHAR 0000
ENCODING 0
SWIDTH 0 0
DWIDTH 0 0
BBX 0 0 0 0
BITMAP
ENDCHAR
STARTCHAR 000D
ENCODING 13
SWIDTH 236 0
DWIDTH 17 0
BBX 0 0 0 0
BITMAP
ENDCHAR
STARTCHAR 0020
ENCODING 32
SWIDTH 236 0
DWIDTH 17 0
BBX 0 0 0 0
BITMAP
ENDCHAR
STARTCHAR 0021
ENCODING 33
SWIDTH 291 0
DWIDTH 21 0
BBX 11 51 5 -1
BITMAP
7FC0
7FC0
7FC0
7FC0
7FC0
7FC0
7FC0
7FC0
7FC0
7FC0
7FC0
7FC0
7FC0
7FC0
7FC0
3FC0
3FC0
3FC0
3F80
3F80
3F80
3F80
3F80
1F80
1F80
1F80
1F80
1F00
1F00
1F00
1F00
0F00
0F00
0F00
0F00
0000
0000
0000
0000
0000
1F00
3FC0
7FC0
7FE0
FFE0
FFE0
FFE0
7FE0
7FC0
3FC0
1F00
ENDCHAR
STARTCHAR 0022
ENCODING 34
SWIDTH 444 0
DWIDTH 32 0
BBX 21 22 6 31
BITMAP
FE03F8
FE03F8
FE03F8
FE03F8
FE03F8
FE03F8
FE03F8
FE03F8
FE03F8
FE03F8
FE03F8
FE03F8
FE03F8
FE03F8
FE03F8
FE03F8
FE03F8
FE03F8
FE03F8
FE03F8
FE03F8
FE03F8
ENDCHAR
STARTCHAR 0023
ENCODING 35
SWIDTH 680 0
DWIDTH 49 0
BBX 43 50 3 0
BITMAP
0003F001F800
0003F001F800
0003F001F800
0003E001F000
0003E001F000
0003E003F000
0007E003F000
0007E003F000
0007E003F000
0007C003E000
0007C003E000
0007C007E000
000FC007E000
000FC007E000
1FFFFFFFFFE0
1FFFFFFFFFE0
1FFFFFFFFFE0
1FFFFFFFFFE0
1FFFFFFFFFE0
001F800FC000
001F800F8000
001F000F8000
001F000F8000
003F001F8000
003F001F8000
003F001F8000
003E001F0000
003E001F0000
003E003F0000
007E003F0000
007E003F0000
FFFFFFFFFF00
FFFFFFFFFF00
FFFFFFFFFF00
FFFFFFFFFF00
FFFFFFFFFF00
00FC007E0000
00FC007C0000
00F8007C0000
00F8007C0000
01F800FC0000
01F800FC0000
01F800FC0000
01F800F80000
01F000F80000
01F000F80000
03F001F80000
03F001F80000
03F001F80000
03F001F00000
ENDCHAR
STARTCHAR 0024
ENCODING 36
SWIDTH 597 0
DWIDTH 43 0
BBX 36 62 3 -6
BITMAP
0000FC0000
0000FC0000
0000FC0000
0000FC0000
0000FC0000
0000FC0000
0007FF8000
003FFFF000
00FFFFFC00
03FFFFFE00
07FFFFFF80
0FFFFFFFC0
1FFFFFFFE0
1FFCF8FFE0
3FF0F83FF0
3FE0F80FC0
3FC0F80780
3F80F80300
3F80F80000
3F80F80000
3F80F80000
3F80F80000
3FC0F80000
3FE0F80000
3FF0F80000
1FFEF80000
1FFFF80000
0FFFFE0000
07FFFFE000
03FFFFF800
00FFFFFE00
003FFFFF00
000FFFFF80
0000FFFFC0
0000FFFFE0
0000F8FFE0
0000F83FF0
0000F81FF0
0000F80FF0
0000F807F0
0000F807F0
0000F807F0
0000F807F0
0C00F807F0
1E00F80FF0
3F00F80FF0
7FC0F81FF0
FFE0F83FE0
7FFCF9FFE0
3FFFFFFFC0
1FFFFFFF80
0FFFFFFF00
03FFFFFE00
01FFFFF800
007FFFE000
000FFF0000
0000FC0000
0000FC0000
0000FC0000
0000FC0000
0000FC0000
0000FC0000
ENDCHAR
STARTCHAR 0025
ENCODING 37
SWIDTH 944 0
DWIDTH 68 0
BBX 60 52 4 -1
BITMAP
00FF000000000000
03FFE000000FE000
0FFFF000001FC000
1FFFF800003F8000
1FFFFC00007F8000
3FC1FE00007F0000
3F80FE0000FE0000
7F007E0001FE0000
7F007F0001FC0000
7E007F0003F80000
FE007F0007F80000
FE007F0007F00000
FE007F000FE00000
FE007F001FC00000
FE007F003FC00000
FE007F003F800000
FE007F007F000000
FE007F00FF000000
7E007F00FE000000
7F007F01FC000000
7F007E03FC000000
3F80FE03F8000000
3FC1FE07F0000000
1FFFFC0FE0000000
1FFFF81FE00FF000
0FFFF01FC03FFC00
03FFE03F80FFFF00
00FF007F81FFFF80
0000007F03FFFFC0
000000FE03FC3FC0
000001FE07F00FE0
000001FC07F00FE0
000003F80FE007E0
000007F80FE007F0
000007F00FE007F0
00000FE00FE007F0
00001FC00FE007F0
00003FC00FE007F0
00003F800FE007F0
00007F000FE007F0
0000FF000FE007F0
0000FE000FE007F0
0001FC000FE007F0
0003FC000FE007E0
0003F80007F00FE0
0007F00007F00FE0
000FE00003FC3FC0
001FE00003FFFFC0
001FC00001FFFF80
003F800000FFFF00
007F8000007FFC00
00000000000FF000
ENDCHAR
STARTCHAR 0026
ENCODING 38
SWIDTH 708 0
DWIDTH 51 0
BBX 45 52 5 -1
BITMAP
0003FC000000
001FFF800000
007FFFE00000
00FFFFF00000
01FFFFF80000
03FFFFFC0000
07FFFFFC0000
07FE07FE0000
07F803FE0000
0FF001FE0000
0FF001FE0000
0FF000FE0000
0FF000FE0000
0FF001FE0000
0FF001FE0000
0FF001FC0000
07F803FC0000
07FC07F80000
03FC1FF80000
03FE3FF00000
01FFFFE00000
00FFFF800000
00FFFF000000
007FFE000000
007FF800FFE0
01FFF800FFE0
03FFFC00FFE0
07FFFE00FFE0
1FFFFF00FFE0
1FF3FF80FFE0
3FE1FF81FFE0
7FC0FFC1FC00
7F807FE1FC00
FF003FF1FC00
FF001FFBF800
FF000FFFF800
FF0007FFF800
FF0003FFF000
FF0001FFF000
FF0000FFE000
FF00007FE000
FF80003FF000
FF80007FF800
7FE001FFFC00
7FF807FFFE00
3FFFFFFFFF00
3FFFFFFDFF80
1FFFFFF8FF80
0FFFFFE0FFC0
03FFFFC07FE0
00FFFF003FF0
001FF0000008
ENDCHAR
STARTCHAR 0027
ENCODING 39
SWIDTH 250 0
DWIDTH 18 0
BBX 7 22 6 31
BITMAP
FE
FE
FE
FE
FE
FE
FE
FE
FE
FE
FE
FE
FE
FE
FE
FE
FE
FE
FE
FE
FE
FE
ENDCHAR
STARTCHAR 0028
ENCODING 40
SWIDTH 333 0
DWIDTH 24 0
BBX 20 65 5 -10
BITMAP
000FF0
001FC0
003F80
007F00
00FF00
01FE00
01FC00
03FC00
03F800
07F000
0FF000
0FE000
0FE000
1FC000
1FC000
3FC000
3F8000
3F8000
7F8000
7F0000
7F0000
7F0000
FF0000
FE0000
FE0000
FE0000
FE0000
FE0000
FE0000
FE0000
FE0000
FE0000
FE0000
FE0000
FE0000
FE0000
FE0000
FE0000
FE0000
FE0000
FE0000
FE0000
FF0000
7F0000
7F0000
7F0000
7F8000
3F8000
3F8000
3FC000
1FC000
1FC000
0FE000
0FE000
0FF000
07F000
03F800
03FC00
01FC00
01FE00
00FF00
007F00
003F80
001FC0
000FF0
ENDCHAR
STARTCHAR 0029
ENCODING 41
SWIDTH 333 0
DWIDTH 24 0
BBX 21 65 -1 -10
BITMAP
FF0000
3F8000
1FC000
0FE000
07F000
07F800
03F800
01FC00
01FE00
00FE00
00FF00
007F00
007F80
003F80
003F80
001FC0
001FC0
001FC0
000FE0
000FE0
000FE0
000FE0
0007F0
0007F0
0007F0
0007F0
0007F0
0007F0
0007F8
0007F8
0007F8
0007F8
0007F8
0007F8
0007F8
0007F8
0007F8
0007F0
0007F0
0007F0
0007F0
0007F0
0007F0
000FF0
000FE0
000FE0
000FE0
001FC0
001FC0
001FC0
003F80
003F80
007F80
007F00
00FF00
00FE00
01FE00
01FC00
03F800
07F800
07F000
0FE000
1FC000
3F8000
FF0000
ENDCHAR
STARTCHAR 002A
ENCODING 42
SWIDTH 513 0
DWIDTH 37 0
BBX 33 30 2 24
BITMAP
0007F00000
0007F00000
0007F00000
0007F00000
0007F00000
0007F00000
0007F00000
0007F00000
3807F00E00
3F07F07E00
3FC7E1FE00
7FFBEFFF00
7FFFFFFF00
7FFFFFFF00
9FFFFFFC80
03FFFFE000
003FFE0000
000FF80000
001FFC0000
003FFE0000
007F7F0000
00FF7F8000
00FE3F8000
01FC1FC000
03FC1FE000
07F80FF000
0FF007F800
07F007E000
01E003C000
00C0018000
ENDCHAR
STARTCHAR 002B
ENCODING 43
SWIDTH 597 0
DWIDTH 43 0
BBX 33 35 5 5
BITMAP
0007F00000
0007F00000
0007F00000
0007F00000
0007F00000
0007F00000
0007F00000
0007F00000
0007F00000
0007F00000
0007F00000
0007F00000
0007F00000
0007F00000
FFFFFFFF80
FFFFFFFF80
FFFFFFFF80
FFFFFFFF80
FFFFFFFF80
FFFFFFFF80
FFFFFFFF80
0007F00000
0007F00000
0007F00000
0007F00000
0007F00000
0007F00000
0007F00000
0007F00000
0007F00000
0007F00000
0007F00000
0007F00000
0007F00000
0007F00000
ENDCHAR
STARTCHAR 002C
ENCODING 44
SWIDTH 291 0
DWIDTH 21 0
BBX 13 20 3 -10
BITMAP
07C0
1FF0
1FF0
3FF8
3FF8
3FF8
3FF8
3FF8
1FF0
1FF0
0FF0
03F0
07E0
07E0
0FC0
0FC0
1F80
3F00
7E00
FC00
ENDCHAR
STARTCHAR 002D
ENCODING 45
SWIDTH 402 0
DWIDTH 29 0
BBX 20 8 4 18
BITMAP
FFFFF0
FFFFF0
FFFFF0
FFFFF0
FFFFF0
FFFFF0
FFFFF0
FFFFF0
ENDCHAR
STARTCHAR 002E
ENCODING 46
SWIDTH 291 0
DWIDTH 21 0
BBX 11 11 5 -1
BITMAP
1F00
7F80
7FC0
FFE0
FFE0
FFE0
FFE0
FFE0
7FC0
7F80
1F00
ENDCHAR
STARTCHAR 002F
ENCODING 47
SWIDTH 416 0
DWIDTH 30 0
BBX 27 64 0 -11
BITMAP
00000FE0
00000FE0
00000FC0
00001FC0
00001FC0
00001FC0
00003F80
00003F80
00003F80
00007F00
00007F00
00007F00
00007E00
0000FE00
0000FE00
0000FC00
0001FC00
0001FC00
0001F800
0003F800
0003F800
0003F800
0007F000
0007F000
0007F000
000FE000
000FE000
000FE000
000FC000
001FC000
001FC000
001F8000
003F8000
003F8000
003F0000
007F0000
007F0000
007F0000
00FE0000
00FE0000
00FE0000
01FC0000
01FC0000
01FC0000
01F80000
03F80000
03F80000
03F00000
07F00000
07F00000
07E00000
0FE00000
0FE00000
0FE00000
1FC00000
1FC00000
1FC00000
1F800000
3F800000
3F800000
3F000000
7F000000
7F000000
FE000000
ENDCHAR
STARTCHAR 0030
ENCODING 48
SWIDTH 597 0
DWIDTH 43 0
BBX 37 52 3 -1
BITMAP
0003FE0000
001FFFC000
007FFFF000
00FFFFF800
01FFFFFE00
03FFFFFE00
07FFFFFF00
0FFE03FF80
0FF800FF80
1FF0007FC0
1FF0003FC0
3FE0003FE0
3FC0001FE0
3FC0001FE0
3FC0001FF0
7FC0000FF0
7F80000FF0
7F80000FF0
7F80000FF0
7F80000FF0
7F80000FF8
7F80000FF8
FF80000FF8
FF80000FF8
FF80000FF8
FF80000FF8
FF80000FF8
FF80000FF8
FF80000FF8
FF80000FF8
7F80000FF8
7F80000FF8
7F80000FF0
7F80000FF0
7F80000FF0
7F80000FF0
7FC0000FF0
3FC0001FF0
3FC0001FE0
3FC0001FE0
3FE0003FE0
1FF0003FC0
1FF0007FC0
0FF800FF80
0FFE03FF80
07FFFFFF00
03FFFFFE00
01FFFFFE00
00FFFFF800
007FFFF000
001FFFC000
0003FE0000
ENDCHAR
STARTCHAR 0031
ENCODING 49
SWIDTH 597 0
DWIDTH 43 0
BBX 38 50 3 0
BITMAP
0007FF8000
000FFF8000
001FFF8000
003FFF8000
007FFF8000
00FFFF8000
01FF7F8000
03FE7F8000
07FC7F8000
0FF87F8000
1FF07F8000
1FE07F8000
3FE07F8000
7FC07F8000
FF807F8000
3F007F8000
1E007F8000
04007F8000
00007F8000
00007F8000
00007F8000
00007F8000
00007F8000
00007F8000
00007F8000
00007F8000
00007F8000
00007F8000
00007F8000
00007F8000
00007F8000
00007F8000
00007F8000
00007F8000
00007F8000
00007F8000
00007F8000
00007F8000
00007F8000
00007F8000
00007F8000
00007F8000
00007F8000
1FFFFFFFFC
1FFFFFFFFC
1FFFFFFFFC
1FFFFFFFFC
1FFFFFFFFC
1FFFFFFFFC
1FFFFFFFFC
ENDCHAR
STARTCHAR 0032
ENCODING 50
SWIDTH 597 0
DWIDTH 43 0
BBX 35 51 4 0
BITMAP
000FFC0000
007FFF8000
01FFFFE000
03FFFFF000
07FFFFFC00
0FFFFFFC00
1FFFFFFE00
3FF80FFF00
3FE003FF00
7FC001FF80
7F8000FF80
FF8000FF80
7F00007F80
1F00007F80
0200007F80
0000007F80
0000007F80
0000007F80
000000FF80
000000FF80
000000FF80
000001FF00
000001FF00
000003FE00
000007FE00
00000FFC00
00001FF800
00003FF000
00007FE000
0000FFC000
0001FF8000
0003FF0000
0007FE0000
000FFC0000
001FF80000
007FF00000
00FFC00000
01FF800000
03FF000000
07FE000000
0FFC000000
1FF8000000
3FE0000000
7FC0000000
7FFFFFFFE0
7FFFFFFFE0
7FFFFFFFE0
7FFFFFFFE0
7FFFFFFFE0
7FFFFFFFE0
7FFFFFFFE0
ENDCHAR
STARTCHAR 0033
ENCODING 51
SWIDTH 597 0
DWIDTH 43 0
BBX 35 52 2 -1
BITMAP
0007FE0000
003FFFE000
00FFFFF800
01FFFFFC00
03FFFFFE00
07FFFFFF00
0FFFFFFF80
1FFC07FF80
3FF001FFC0
1FE000FFC0
07C0007FC0
0380003FC0
0100003FE0
0000003FE0
0000003FE0
0000003FC0
0000003FC0
0000003FC0
0000007F80
000000FF80
000001FF00
000007FE00
000FFFFC00
000FFFF800
000FFFE000
000FFFC000
000FFFF800
000FFFFC00
000FFFFF00
000007FF80
000000FF80
0000007FC0
0000003FC0
0000003FE0
0000001FE0
0000001FE0
0000001FE0
0000001FE0
0200001FE0
0600001FE0
1F00003FE0
3F80003FE0
7FC0007FE0
FFE000FFC0
3FFC07FFC0
3FFFFFFF80
1FFFFFFF00
0FFFFFFE00
03FFFFFC00
01FFFFF000
007FFFC000
000FFE0000
ENDCHAR
STARTCHAR 0034
ENCODING 52
SWIDTH 597 0
DWIDTH 43 0
BBX 37 50 3 0
BITMAP
00000FFE00
00001FFE00
00003FFE00
00003FFE00
00007FFE00
0000FFFE00
0000FFFE00
0001FDFE00
0001FDFE00
0003F9FE00
0007F1FE00
0007F1FE00
000FE1FE00
001FE1FE00
001FC1FE00
003F81FE00
003F81FE00
007F01FE00
00FE01FE00
00FE01FE00
01FC01FE00
03FC01FE00
03F801FE00
07F001FE00
0FF001FE00
0FE001FE00
1FC001FE00
1FC001FE00
3F8001FE00
7F8001FE00
7F0001FE00
FE0001FE00
FE0001FE00
FFFFFFFFF8
FFFFFFFFF8
FFFFFFFFF8
FFFFFFFFF8
FFFFFFFFF8
FFFFFFFFF8
FFFFFFFFF8
000001FE00
000001FE00
000001FE00
000001FE00
000001FE00
000001FE00
000001FE00
000001FE00
000001FE00
000001FE00
ENDCHAR
STARTCHAR 0035
ENCODING 53
SWIDTH 597 0
DWIDTH 43 0
BBX 34 51 5 -1
BITMAP
1FFFFFFF00
1FFFFFFF00
1FFFFFFF00
1FFFFFFF00
1FFFFFFF00
1FFFFFFF00
1FFFFFFF00
1F80000000
3F80000000
3F80000000
3F80000000
3F80000000
3F80000000
3F80000000
3F80000000
3F80000000
3F80000000
3F80000000
3F01FE0000
3F07FFC000
3F0FFFF000
3F1FFFF800
3F3FFFFC00
7F7FFFFE00
7F7FFFFF00
7FF80FFF00
7FE003FF80
7F8001FF80
070000FF80
0000007FC0
0000007FC0
0000007FC0
0000003FC0
0000003FC0
0000003FC0
0000003FC0
0000003FC0
0400007FC0
0C00007FC0
1E00007F80
7F0000FF80
FF8001FF80
FFC003FF00
7FF80FFF00
3FFFFFFE00
3FFFFFFC00
1FFFFFF800
07FFFFF000
03FFFFC000
00FFFF0000
001FF80000
ENDCHAR
STARTCHAR 0036
ENCODING 54
SWIDTH 597 0
DWIDTH 43 0
BBX 35 51 4 -1
BITMAP
00007FF800
0000FFE000
0001FFC000
0003FF0000
000FFE0000
001FFC0000
003FF80000
003FE00000
007FC00000
00FF800000
01FF800000
03FF000000
03FE000000
07FC000000
07F8000000
0FF8000000
0FF0000000
1FE0000000
1FE07F8000
3FC3FFE000
3FC7FFF800
3FCFFFFC00
7F9FFFFE00
7FBFFFFF00
7FBFFFFF80
7F7C07FF80
FFF000FFC0
FFE0007FC0
FFC0003FE0
FF80003FE0
FF80001FE0
FF80001FE0
FF80001FE0
FF00001FE0
FF00001FE0
FF00001FE0
FF80001FE0
7F80001FE0
7F80001FE0
7F80003FE0
3FC0003FC0
3FE0007FC0
3FF000FF80
1FFC07FF80
0FFFFFFF00
07FFFFFE00
07FFFFFC00
01FFFFF800
00FFFFF000
003FFFC000
0007FE0000
ENDCHAR
STARTCHAR 0037
ENCODING 55
SWIDTH 597 0
DWIDTH 43 0
BBX 34 50 5 0
BITMAP
FFFFFFFFC0
FFFFFFFFC0
FFFFFFFFC0
FFFFFFFFC0
FFFFFFFFC0
FFFFFFFFC0
FFFFFFFFC0
FE00007FC0
FE00007F80
FE0000FF80
FE0000FF00
FE0000FF00
FE0001FE00
FE0001FE00
FE0003FE00
FE0003FC00
FE0007FC00
000007F800
000007F800
00000FF800
00000FF000
00001FF000
00001FE000
00001FE000
00003FC000
00003FC000
00007FC000
00007F8000
0000FF8000
0000FF0000
0000FF0000
0001FF0000
0001FE0000
0003FE0000
0003FC0000
0007FC0000
0007F80000
0007F80000
000FF80000
000FF00000
001FF00000
001FE00000
003FE00000
003FE00000
003FC00000
007FC00000
007F800000
00FF800000
00FF800000
01FF000000
ENDCHAR
STARTCHAR 0038
ENCODING 56
SWIDTH 597 0
DWIDTH 43 0
BBX 36 52 4 -1
BITMAP
000FFE0000
007FFFC000
01FFFFF000
03FFFFFC00
0FFFFFFE00
0FFFFFFF00
1FFFFFFF00
3FFC07FF80
3FF000FF80
3FC0007FC0
7FC0007FC0
7F80003FC0
7F80003FC0
7F80003FC0
7F80003FC0
7F80003FC0
7F80003FC0
3F80003F80
3FC0007F80
1FC0007F00
1FF000FF00
0FFC07FE00
07FFFFFC00
01FFFFF000
007FFFC000
003FFFC000
01FFFFF000
07FFFFFC00
0FFFFFFF00
1FFC03FF80
3FE000FF80
7FC0007FC0
7F80003FE0
FF80001FE0
FF00001FE0
FF00001FE0
FF00001FF0
FF00001FF0
FF00001FF0
FF00001FE0
FF80001FE0
FF80003FE0
FFC0007FE0
7FE000FFC0
7FFC03FFC0
3FFFFFFF80
1FFFFFFF00
0FFFFFFE00
07FFFFFC00
01FFFFF800
007FFFE000
000FFE0000
ENDCHAR
STARTCHAR 0039
ENCODING 57
SWIDTH 597 0
DWIDTH 43 0
BBX 35 51 4 0
BITMAP
0007FC0000
003FFF8000
00FFFFE000
03FFFFF800
07FFFFFC00
0FFFFFFE00
1FFFFFFE00
3FFC07FF00
3FF001FF80
7FC000FF80
7FC0007FC0
7F80003FC0
FF80003FC0
FF00001FE0
FF00001FE0
FF00001FE0
FF00001FE0
FF00001FE0
FF00001FE0
FF00003FE0
FF80003FE0
FF80003FE0
FFC0007FE0
7FC0007FE0
7FF001FFE0
3FFC07DFE0
3FFFFFFFC0
1FFFFFBFC0
0FFFFF3FC0
07FFFE7FC0
03FFFC7F80
00FFF87F80
001FC0FF80
000000FF00
000001FF00
000001FE00
000003FE00
000007FC00
00000FF800
00000FF800
00001FF000
00003FE000
00007FE000
0000FFC000
0001FF8000
0007FF0000
000FFE0000
001FFC0000
003FF80000
00FFE00000
03FFC00000
ENDCHAR
STARTCHAR 003A
ENCODING 58
SWIDTH 305 0
DWIDTH 22 0
BBX 10 39 6 -1
BITMAP
1F00
7F80
FFC0
FFC0
FFC0
FFC0
FFC0
FFC0
FFC0
7F80
1F00
0000
0000
0000
0000
0000
0000
0000
0000
0000
0000
0000
0000
0000
0000
0000
0000
0000
1F00
7F80
FFC0
FFC0
FFC0
FFC0
FFC0
FFC0
FFC0
7F80
1F00
ENDCHAR
STARTCHAR 003B
ENCODING 59
SWIDTH 305 0
DWIDTH 22 0
BBX 12 48 4 -10
BITMAP
07C0
1FE0
3FF0
3FF0
3FF0
3FF0
3FF0
3FF0
3FF0
1FE0
07C0
0000
0000
0000
0000
0000
0000
0000
0000
0000
0000
0000
0000
0000
0000
0000
0000
0000
07C0
1FE0
3FF0
3FF0
3FF0
3FF0
3FF0
3FF0
3FF0
1FF0
0FF0
07E0
07E0
07C0
0FC0
1F80
1F80
3F00
7E00
FC00
ENDCHAR
STARTCHAR 003C
ENCODING 60
SWIDTH 597 0
DWIDTH 43 0
BBX 29 43 7 -1
BITMAP
00000008
00000018
00000078
000000F8
000003F8
000007F8
00001FF8
00007FF8
0000FFF8
0003FFE0
0007FF80
001FFF00
007FFC00
00FFF000
03FFE000
07FF8000
1FFF0000
3FFC0000
FFF00000
FFE00000
FF800000
FF000000
FF800000
FFE00000
FFF00000
3FFC0000
1FFF0000
07FF8000
03FFE000
00FFF800
007FFC00
001FFF00
0007FF80
0003FFE0
0000FFF8
00007FF8
00001FF8
000007F8
000003F8
000000F8
00000078
00000018
00000008
ENDCHAR
STARTCHAR 003D
ENCODING 61
SWIDTH 597 0
DWIDTH 43 0
BBX 33 22 5 11
BITMAP
FFFFFFFF80
FFFFFFFF80
FFFFFFFF80
FFFFFFFF80
FFFFFFFF80
FFFFFFFF80
FFFFFFFF80
0000000000
0000000000
0000000000
0000000000
0000000000
0000000000
0000000000
0000000000
FFFFFFFF80
FFFFFFFF80
FFFFFFFF80
FFFFFFFF80
FFFFFFFF80
FFFFFFFF80
FFFFFFFF80
ENDCHAR
STARTCHAR 003E
ENCODING 62
SWIDTH 597 0
DWIDTH 43 0
BBX 29 43 7 -1
BITMAP
80000000
C0000000
F0000000
F8000000
FE000000
FF800000
FFC00000
FFF00000
FFF80000
3FFE0000
0FFF8000
07FFC000
01FFF000
007FF800
003FFE00
000FFF80
0003FFC0
0001FFF0
00007FF8
00001FF8
00000FF8
000007F8
00000FF8
00003FF8
00007FF8
0001FFF0
0003FFC0
000FFF80
003FFE00
007FF800
01FFF000
07FFC000
0FFF8000
3FFE0000
FFF80000
FFF00000
FFC00000
FF800000
FE000000
F8000000
F0000000
C0000000
80000000
ENDCHAR
STARTCHAR 003F
ENCODING 63
SWIDTH 486 0
DWIDTH 35 0
BBX 32 52 1 -1
BITMAP
000FF800
007FFF00
01FFFFC0
03FFFFE0
0FFFFFF0
0FFFFFF8
1FFFFFFC
3FF81FFC
3FE007FE
7FC003FE
7F8001FE
FF0001FF
3F0001FF
060001FF
000001FF
000001FF
000001FE
000001FE
000003FE
000003FE
000007FC
00001FF8
0000FFF8
001FFFF0
001FFFE0
001FFF80
001FFE00
001FF800
001FE000
001FE000
001FE000
001FE000
001FE000
001FE000
001FE000
00000000
00000000
00000000
00000000
00000000
00000000
000FC000
001FE000
003FF000
003FF000
003FF000
003FF000
003FF000
003FF000
003FF000
001FE000
000FC000
ENDCHAR
STARTCHAR 0040
ENCODING 64
SWIDTH 902 0
DWIDTH 65 0
BBX 55 60 5 -9
BITMAP
000003FFC00000
00003FFFFC0000
0000FFFFFF8000
0003FFFFFFE000
000FFFFFFFF000
001FFE007FFC00
007FE00007FE00
00FF800001FF00
01FE0000007F80
03FC0000003FC0
03F80000001FC0
07F00000000FE0
0FE000000007F0
0FC000000003F0
1F8000000001F8
1F8003F00001F8
3F000FFC7F00F8
3E003FFE7F00FC
7E007FFF7F00FC
7E00FFFFFF007C
7C00FF03FF007C
7C01FE00FF007E
FC01FC00FF007E
FC03F8007F007E
F803F8007F007E
F803F0007F007E
F803F0007F007E
F807F0007F007E
F807F0007F007E
F807F0007F007E
F807F0007F007E
F807F0007F007E
F807F0007F007E
F807F0007F007E
F803F0007F007C
F803F0007F007C
F803F8007F00FC
FC03F8007F00FC
FC01FC00FF01F8
7C01FE01FF01F8
7C00FF03FF87F0
7E00FFFFBFFFE0
3E007FFF9FFFE0
3F003FFF0FFF80
3F000FFC07FF00
1F8003F001FC00
1FC00000000000
0FC00000000000
0FE00000000000
07F00000000000
03F80000000000
01FE0000000000
00FF8000000000
007FE000000000
003FFC00000000
001FFFFFFFF000
0007FFFFFFF000
0001FFFFFFF000
00003FFFFFF000
000003FFFFF000
ENDCHAR
STARTCHAR 0041
ENCODING 65
SWIDTH 666 0
DWIDTH 48 0
BBX 44 50 2 0
BITMAP
00007FE00000
0000FFE00000
0000FFF00000
0000FFF00000
0001FFF00000
0001FFF80000
0003FFF80000
0003FBFC0000
0003FBFC0000
0007FBFC0000
0007F1FE0000
0007F1FE0000
000FF0FE0000
000FE0FF0000
000FE0FF0000
001FE07F0000
001FC07F8000
001FC07F8000
003FC03F8000
003F803FC000
003F803FC000
007F801FC000
007F001FE000
007F001FE000
00FF000FE000
00FE000FF000
00FE000FF000
01FE0007F000
01FC0007F800
01FFFFFFF800
03FFFFFFF800
03FFFFFFFC00
03FFFFFFFC00
07FFFFFFFC00
07FFFFFFFE00
07FFFFFFFE00
0FF00001FE00
0FF00000FF00
0FE00000FF00
1FE00000FF00
1FE00000FF80
3FE000007F80
3FC000007FC0
3FC000007FC0
7FC000003FC0
7F8000003FE0
7F8000003FE0
FF8000001FE0
FF0000001FF0
FF0000001FF0
ENDCHAR
STARTCHAR 0042
ENCODING 66
SWIDTH 652 0
DWIDTH 47 0
BBX 38 50 6 0
BITMAP
FFFFFFE000
FFFFFFF800
FFFFFFFE00
FFFFFFFF00
FFFFFFFF80
FFFFFFFFC0
FFFFFFFFC0
FF0000FFE0
FF00003FE0
FF00003FE0
FF00001FF0
FF00001FF0
FF00001FF0
FF00001FF0
FF00001FF0
FF00001FF0
FF00001FE0
FF00001FE0
FF00003FE0
FF00003FC0
FF0000FF80
FFFFFFFF00
FFFFFFFE00
FFFFFFE000
FFFFFFFC00
FFFFFFFF00
FFFFFFFFC0
FFFFFFFFE0
FF00007FF0
FF00001FF0
FF00000FF8
FF000007F8
FF000007F8
FF000007F8
FF000007FC
FF000007FC
FF000007FC
FF000007FC
FF000007F8
FF000007F8
FF00000FF8
FF00001FF8
FF00007FF0
FFFFFFFFF0
FFFFFFFFE0
FFFFFFFFC0
FFFFFFFF80
FFFFFFFF00
FFFFFFFE00
FFFFFFF000
ENDCHAR
STARTCHAR 0043
ENCODING 67
SWIDTH 638 0
DWIDTH 46 0
BBX 39 52 4 -1
BITMAP
0000FFC000
0007FFFC00
001FFFFF00
007FFFFF80
00FFFFFFC0
01FFFFFFE0
03FFFFFFF0
07FF807FF8
0FFE001FFC
0FF80007FC
1FF00003FE
1FF00003FC
3FE00001F0
3FC00000E0
7FC0000080
7FC0000000
7F80000000
7F80000000
7F80000000
FF80000000
FF80000000
FF80000000
FF80000000
FF80000000
FF80000000
FF80000000
FF80000000
FF80000000
FF80000000
FF80000000
FF80000000
FF80000000
FF80000000
7F80000000
7F80000000
7F80000000
7FC0000000
7FC00000C0
3FC00000F0
3FE00001F8
1FF00003FE
1FF00003FE
0FF80007FC
0FFE001FFC
07FF807FF8
03FFFFFFF0
01FFFFFFE0
00FFFFFFC0
007FFFFF80
001FFFFE00
0007FFF800
0000FFC000
ENDCHAR
STARTCHAR 0044
ENCODING 68
SWIDTH 680 0
DWIDTH 49 0
BBX 39 50 6 0
BITMAP
FFFFFE0000
FFFFFFE000
FFFFFFF800
FFFFFFFC00
FFFFFFFF00
FFFFFFFF80
FFFFFFFFC0
FF0003FFC0
FF0000FFE0
FF00003FF0
FF00001FF0
FF00000FF8
FF000007F8
FF000007FC
FF000007FC
FF000003FC
FF000003FC
FF000003FE
FF000003FE
FF000003FE
FF000003FE
FF000003FE
FF000003FE
FF000003FE
FF000003FE
FF000003FE
FF000003FE
FF000003FE
FF000003FE
FF000003FE
FF000003FE
FF000003FE
FF000003FE
FF000003FC
FF000003FC
FF000007FC
FF000007FC
FF000007F8
FF00000FF8
FF00001FF0
FF00003FF0
FF0000FFE0
FF0003FFC0
FFFFFFFFC0
FFFFFFFF80
FFFFFFFF00
FFFFFFFC00
FFFFFFF800
FFFFFFE000
FFFFFE0000
ENDCHAR
STARTCHAR 0045
ENCODING 69
SWIDTH 597 0
DWIDTH 43 0
BBX 32 50 6 0
BITMAP
FFFFFFFF
FFFFFFFF
FFFFFFFF
FFFFFFFF
FFFFFFFF
FFFFFFFF
FFFFFFFF
FF000000
FF000000
FF000000
FF000000
FF000000
FF000000
FF000000
FF000000
FF000000
FF000000
FF000000
FF000000
FF000000
FF000000
FFFFFFFC
FFFFFFFC
FFFFFFFC
FFFFFFFC
FFFFFFFC
FFFFFFFC
FFFFFFFC
FF000000
FF000000
FF000000
FF000000
FF000000
FF000000
FF000000
FF000000
FF000000
FF000000
FF000000
FF000000
FF000000
FF000000
FF000000
FFFFFFFF
FFFFFFFF
FFFFFFFF
FFFFFFFF
FFFFFFFF
FFFFFFFF
FFFFFFFF
ENDCHAR
STARTCHAR 0046
ENCODING 70
SWIDTH 569 0
DWIDTH 41 0
BBX 32 50 6 0
BITMAP
FFFFFFFF
FFFFFFFF
FFFFFFFF
FFFFFFFF
FFFFFFFF
FFFFFFFF
FFFFFFFF
FF000000
FF000000
FF000000
FF000000
FF000000
FF000000
FF000000
FF000000
FF000000
FF000000
FF000000
FF000000
FF000000
FF000000
FFFFFFF8
FFFFFFF8
FFFFFFF8
FFFFFFF8
FFFFFFF8
FFFFFFF8
FFFFFFF8
FF000000
FF000000
FF000000
FF000000
FF000000
FF000000
FF000000
FF000000
FF000000
FF000000
FF000000
FF000000
FF000000
FF000000
FF000000
FF000000
FF000000
FF000000
FF000000
FF000000
FF000000
FF000000
ENDCHAR
STARTCHAR 0047
ENCODING 71
SWIDTH 708 0
DWIDTH 51 0
BBX 42 52 4 -1
BITMAP
00007FE00000
0007FFFE0000
001FFFFF8000
003FFFFFC000
00FFFFFFF000
01FFFFFFF800
03FFFFFFFC00
07FFC03FFC00
07FE000FFE00
0FFC0003FF00
1FF80001FF00
1FF00000FF80
3FE000007C00
3FC000007000
3FC000002000
7FC000000000
7F8000000000
7F8000000000
7F8000000000
FF8000000000
FF8000000000
FF8000000000
FF8000000000
FF8000000000
FF8001FFFFC0
FF8001FFFFC0
FF8001FFFFC0
FF8001FFFFC0
FF8001FFFFC0
FF8001FFFFC0
FF8001FFFFC0
FF8000003FC0
FF8000003FC0
7F8000003FC0
7F8000003FC0
7F8000003FC0
7FC000003FC0
3FC000003FC0
3FC000007FC0
3FE000007FC0
1FF00000FFC0
1FF80001FFC0
0FFC0003FFC0
0FFE0007FFC0
07FFC03FDFC0
03FFFFFFDFC0
01FFFFFF9FC0
00FFFFFF1FC0
007FFFFE1FC0
001FFFFC1FC0
0007FFF81FC0
0000FF800000
ENDCHAR
STARTCHAR 0048
ENCODING 72
SWIDTH 708 0
DWIDTH 51 0
BBX 39 50 6 0
BITMAP
FF000001FE
FF000001FE
FF000001FE
FF000001FE
FF000001FE
FF000001FE
FF000001FE
FF000001FE
FF000001FE
FF000001FE
FF000001FE
FF000001FE
FF000001FE
FF000001FE
FF000001FE
FF000001FE
FF000001FE
FF000001FE
FF000001FE
FF000001FE
FF000001FE
FFFFFFFFFE
FFFFFFFFFE
FFFFFFFFFE
FFFFFFFFFE
FFFFFFFFFE
FFFFFFFFFE
FFFFFFFFFE
FF000001FE
FF000001FE
FF000001FE
FF000001FE
FF000001FE
FF000001FE
FF000001FE
FF000001FE
FF000001FE
FF000001FE
FF000001FE
FF000001FE
FF000001FE
FF000001FE
FF000001FE
FF000001FE
FF000001FE
FF000001FE
FF000001FE
FF000001FE
FF000001FE
FF000001FE
ENDCHAR
STARTCHAR 0049
ENCODING 73
SWIDTH 416 0
DWIDTH 30 0
BBX 22 50 4 0
BITMAP
FFFFFC
FFFFFC
FFFFFC
FFFFFC
FFFFFC
FFFFFC
FFFFFC
01FE00
01FE00
01FE00
01FE00
01FE00
01FE00
01FE00
01FE00
01FE00
01FE00
01FE00
01FE00
01FE00
01FE00
01FE00
01FE00
01FE00
01FE00
01FE00
01FE00
01FE00
01FE00
01FE00
01FE00
01FE00
01FE00
01FE00
01FE00
01FE00
01FE00
01FE00
01FE00
01FE00
01FE00
01FE00
01FE00
FFFFFC
FFFFFC
FFFFFC
FFFFFC
FFFFFC
FFFFFC
FFFFFC
ENDCHAR
STARTCHAR 004A
ENCODING 74
SWIDTH 527 0
DWIDTH 38 0
BBX 30 51 2 -1
BITMAP
03FFFFFC
03FFFFFC
03FFFFFC
03FFFFFC
03FFFFFC
03FFFFFC
03FFFFFC
000003FC
000003FC
000003FC
000003FC
000003FC
000003FC
000003FC
000003FC
000003FC
000003FC
000003FC
000003FC
000003FC
000003FC
000003FC
000003FC
000003FC
000003FC
000003FC
000003FC
000003FC
000003FC
000003FC
000003FC
000003FC
000003FC
000003FC
000003FC
000003FC
000003FC
070003FC
7F0003FC
FF0003FC
FF8007FC
7F8007FC
7FC00FF8
3FF03FF8
3FFFFFF0
1FFFFFF0
0FFFFFE0
07FFFFC0
03FFFF00
01FFFC00
003FE000
ENDCHAR
STARTCHAR 004B
ENCODING 75
SWIDTH 666 0
DWIDTH 48 0
BBX 40 50 6 0
BITMAP
FF000007FE
FF00000FFC
FF00001FF8
FF00003FF0
FF00003FE0
FF00007FC0
FF0000FF80
FF0001FF00
FF0003FF00
FF0007FE00
FF0007FC00
FF000FF800
FF001FF000
FF003FE000
FF007FE000
FF00FFC000
FF00FF8000
FF01FF0000
FF03FE0000
FF07FC0000
FF0FF80000
FF0FF80000
FF1FFC0000
FF3FFE0000
FF7FFE0000
FFFFFF0000
FFFFFF8000
FFFEFF8000
FFFCFFC000
FFF87FE000
FFF03FE000
FFE03FF000
FFC01FF800
FF800FF800
FF000FFC00
FF0007FE00
FF0003FE00
FF0003FF00
FF0001FF80
FF0000FF80
FF0000FFC0
FF00007FE0
FF00003FE0
FF00003FF0
FF00001FF8
FF00000FF8
FF00000FFC
FF000007FE
FF000003FE
FF000003FF
ENDCHAR
STARTCHAR 004C
ENCODING 76
SWIDTH 513 0
DWIDTH 37 0
BBX 29 50 6 0
BITMAP
FF000000
FF000000
FF000000
FF000000
FF000000
FF000000
FF000000
FF000000
FF000000
FF000000
FF000000
FF000000
FF000000
FF000000
FF000000
FF000000
FF000000
FF000000
FF000000
FF000000
FF000000
FF000000
FF000000
FF000000
FF000000
FF000000
FF000000
FF000000
FF000000
FF000000
FF000000
FF000000
FF000000
FF000000
FF000000
FF000000
FF000000
FF000000
FF000000
FF000000
FF000000
FF000000
FF000000
FFFFFFF8
FFFFFFF8
FFFFFFF8
FFFFFFF8
FFFFFFF8
FFFFFFF8
FFFFFFF8
ENDCHAR
STARTCHAR 004D
ENCODING 77
SWIDTH 819 0
DWIDTH 59 0
BBX 46 50 6 0
BITMAP
FFC0000007FC
FFE000000FFC
FFE000000FFC
FFF000001FFC
FFF000001FFC
FFF800003FFC
FFF800003FFC
FFFC00007FFC
FFFC00007FFC
FFFE0000FFFC
FFFE0000FFFC
FFFF0001FFFC
FF7F0001FDFC
FF7F8003F9FC
FF3F8003F9FC
FF3FC007F9FC
FF1FE00FF1FC
FF1FE00FF1FC
FF0FF01FE1FC
FF0FF01FE1FC
FF07F83FC1FC
FF07F83F81FC
FF03FC7F81FC
FF03FC7F01FC
FF01FEFF01FC
FF01FEFE01FC
FF00FFFE01FC
FF00FFFC01FC
FF007FFC01FC
FF003FF801FC
FF003FF801FC
FF001FF001FC
FF001FE001FC
FF000FE001FC
FF000FC001FC
FF0007C001FC
FF00078001FC
FF00038001FC
FF00030001FC
FF00010001FC
FF00000001FC
FF00000001FC
FF00000001FC
FF00000001FC
FF00000001FC
FF00000001FC
FF00000001FC
FF00000001FC
FF00000001FC
FF00000001FC
ENDCHAR
STARTCHAR 004E
ENCODING 78
SWIDTH 708 0
DWIDTH 51 0
BBX 39 50 6 0
BITMAP
FFC00001FE
FFC00001FE
FFE00001FE
FFE00001FE
FFF00001FE
FFF80001FE
FFF80001FE
FFFC0001FE
FFFC0001FE
FFFE0001FE
FFFF0001FE
FFFF0001FE
FF7F8001FE
FF7F8001FE
FF3FC001FE
FF3FC001FE
FF1FE001FE
FF1FF001FE
FF0FF001FE
FF0FF801FE
FF07F801FE
FF07FC01FE
FF03FE01FE
FF03FE01FE
FF01FF01FE
FF00FF01FE
FF00FF81FE
FF007FC1FE
FF007FC1FE
FF003FE1FE
FF001FE1FE
FF001FF1FE
FF000FF1FE
FF000FF9FE
FF0007F9FE
FF0003FDFE
FF0003FDFE
FF0001FFFE
FF0001FFFE
FF0000FFFE
FF0000FFFE
FF00007FFE
FF00003FFE
FF00003FFE
FF00001FFE
FF00001FFE
FF00000FFE
FF000007FE
FF000007FE
FF000003FE
ENDCHAR
STARTCHAR 004F
ENCODING 79
SWIDTH 708 0
DWIDTH 51 0
BBX 43 52 4 -1
BITMAP
00007FE00000
0007FFFC0000
001FFFFF0000
007FFFFFC000
00FFFFFFE000
01FFFFFFF000
03FFFFFFF800
07FFC07FFC00
0FFE000FFE00
0FFC0007FE00
1FF80001FF00
1FF00001FF00
3FE00000FF80
3FE000007F80
3FC000007FC0
7FC000003FC0
7F8000003FC0
7F8000003FC0
7F8000003FE0
FF8000003FE0
FF8000001FE0
FF8000001FE0
FF8000001FE0
FF8000001FE0
FF8000001FE0
FF8000001FE0
FF8000001FE0
FF8000001FE0
FF8000001FE0
FF8000001FE0
FF8000001FE0
FF8000001FE0
FF8000003FE0
7F8000003FE0
7F8000003FC0
7F8000003FC0
7FC000003FC0
3FC000007FC0
3FE000007F80
3FE00000FF80
1FF00001FF00
1FF80001FF00
0FFC0007FE00
0FFE000FFE00
07FFC07FFC00
03FFFFFFF800
01FFFFFFF000
00FFFFFFE000
007FFFFFC000
001FFFFF0000
0007FFFC0000
0000FFE00000
ENDCHAR
STARTCHAR 0050
ENCODING 80
SWIDTH 625 0
DWIDTH 45 0
BBX 36 50 6 0
BITMAP
FFFFFFC000
FFFFFFF800
FFFFFFFE00
FFFFFFFF00
FFFFFFFF80
FFFFFFFFC0
FFFFFFFFC0
FF0000FFE0
FF00003FE0
FF00001FF0
FF00001FF0
FF00000FF0
FF00000FF0
FF00000FF0
FF00000FF0
FF00000FF0
FF00000FF0
FF00000FF0
FF00000FF0
FF00001FF0
FF00001FF0
FF00003FE0
FF0000FFE0
FFFFFFFFC0
FFFFFFFFC0
FFFFFFFF80
FFFFFFFF00
FFFFFFFE00
FFFFFFF800
FFFFFFC000
FF00000000
FF00000000
FF00000000
FF00000000
FF00000000
FF00000000
FF00000000
FF00000000
FF00000000
FF00000000
FF00000000
FF00000000
FF00000000
FF00000000
FF00000000
FF00000000
FF00000000
FF00000000
FF00000000
FF00000000
ENDCHAR
STARTCHAR 0051
ENCODING 81
SWIDTH 708 0
DWIDTH 51 0
BBX 43 64 4 -13
BITMAP
00007FE00000
0007FFFC0000
001FFFFF0000
007FFFFFC000
00FFFFFFE000
01FFFFFFF000
03FFFFFFF800
07FFC07FFC00
07FE000FFE00
0FFC0007FE00
1FF80001FF00
1FF00001FF00
3FE00000FF80
3FE000007F80
3FC000007FC0
7FC000003FC0
7F8000003FC0
7F8000003FC0
7F8000003FE0
FF8000003FE0
FF8000001FE0
FF8000001FE0
FF8000001FE0
FF8000001FE0
FF8000001FE0
FF8000001FE0
FF8000001FE0
FF8000001FE0
FF8000001FE0
FF8000001FE0
FF8000001FE0
FF8000001FE0
FF8000003FE0
7F8000003FE0
7F8000003FE0
7F8000003FC0
7FC000003FC0
3FC000007FC0
3FE000007F80
3FE00000FF80
1FF00001FF80
1FF80001FF00
0FFC0007FF00
0FFE000FFE00
07FFC07FFC00
03FFFFFFF800
01FFFFFFF800
00FFFFFFE000
007FFFFFC000
001FFFFF8000
0007FFFE0000
0001FFF00000
00003FC00000
00003FC00000
00003FC00000
00003FC00000
00003FC00000
00003FFFC000
00001FFFC000
00001FFFC000
00001FFFC000
00000FFFC000
000007FFC000
000001FFC000
ENDCHAR
STARTCHAR 0052
ENCODING 82
SWIDTH 652 0
DWIDTH 47 0
BBX 37 50 6 0
BITMAP
FFFFFFC000
FFFFFFF800
FFFFFFFE00
FFFFFFFF00
FFFFFFFF80
FFFFFFFFC0
FFFFFFFFC0
FF0000FFE0
FF00003FE0
FF00001FF0
FF00001FF0
FF00000FF0
FF00000FF0
FF00000FF0
FF00000FF0
FF00000FF0
FF00000FF0
FF00000FF0
FF00001FF0
FF00001FF0
FF00003FE0
FF0000FFE0
FFFFFFFFC0
FFFFFFFFC0
FFFFFFFF80
FFFFFFFF00
FFFFFFFC00
FFFFFFF000
FFFFFFE000
FF001FE000
FF001FF000
FF000FF000
FF000FF800
FF000FF800
FF0007FC00
FF0007FC00
FF0003FE00
FF0003FE00
FF0001FF00
FF0001FF00
FF0000FF80
FF0000FF80
FF00007FC0
FF00007FC0
FF00003FE0
FF00003FE0
FF00001FF0
FF00001FF0
FF00000FF8
FF00000FF8
ENDCHAR
STARTCHAR 0053
ENCODING 83
SWIDTH 597 0
DWIDTH 43 0
BBX 36 52 3 -1
BITMAP
0003FF0000
003FFFF000
00FFFFFC00
01FFFFFE00
07FFFFFF80
0FFFFFFFC0
0FFFFFFFE0
1FFC01FFF0
1FF0007FE0
3FE0001FC0
3FC0000F80
3FC0000700
7FC0000400
7F80000000
7F80000000
7FC0000000
7FC0000000
3FC0000000
3FE0000000
3FF8000000
1FFE000000
1FFFE00000
0FFFFF0000
07FFFFE000
03FFFFF800
01FFFFFE00
007FFFFF00
000FFFFF80
0001FFFFC0
000007FFE0
000000FFE0
0000003FF0
0000001FF0
0000000FF0
0000000FF0
0000000FF0
0000000FF0
0000000FF0
0400000FF0
0E00000FF0
1E00000FF0
3F80001FF0
7FC0003FE0
FFF0007FE0
7FFC01FFC0
3FFFFFFFC0
1FFFFFFF80
0FFFFFFF00
07FFFFFE00
01FFFFF800
007FFFE000
0007FE0000
ENDCHAR
STARTCHAR 0054
ENCODING 84
SWIDTH 583 0
DWIDTH 42 0
BBX 38 50 2 0
BITMAP
FFFFFFFFFC
FFFFFFFFFC
FFFFFFFFFC
FFFFFFFFFC
FFFFFFFFFC
FFFFFFFFFC
FFFFFFFFFC
0001FE0000
0001FE0000
0001FE0000
0001FE0000
0001FE0000
0001FE0000
0001FE0000
0001FE0000
0001FE0000
0001FE0000
0001FE0000
0001FE0000
0001FE0000
0001FE0000
0001FE0000
0001FE0000
0001FE0000
0001FE0000
0001FE0000
0001FE0000
0001FE0000
0001FE0000
0001FE0000
0001FE0000
0001FE0000
0001FE0000
0001FE0000
0001FE0000
0001FE0000
0001FE0000
0001FE0000
0001FE0000
0001FE0000
0001FE0000
0001FE0000
0001FE0000
0001FE0000
0001FE0000
0001FE0000
0001FE0000
0001FE0000
0001FE0000
0001FE0000
ENDCHAR
STARTCHAR 0055
ENCODING 85
SWIDTH 680 0
DWIDTH 49 0
BBX 37 51 6 -1
BITMAP
FF000007F8
FF000007F8
FF000007F8
FF000007F8
FF000007F8
FF000007F8
FF000007F8
FF000007F8
FF000007F8
FF000007F8
FF000007F8
FF000007F8
FF000007F8
FF000007F8
FF000007F8
FF000007F8
FF000007F8
FF000007F8
FF000007F8
FF000007F8
FF000007F8
FF000007F8
FF000007F8
FF000007F8
FF000007F8
FF000007F8
FF000007F8
FF000007F8
FF000007F8
FF000007F8
FF000007F8
FF000007F8
FF000007F8
FF000007F8
FF000007F8
FF000007F8
FF000007F8
7F800007F8
7F80000FF8
7FC0000FF0
7FC0001FF0
3FE0003FF0
3FF0007FE0
1FFE01FFE0
1FFFFFFFC0
0FFFFFFF80
07FFFFFF80
03FFFFFF00
01FFFFFC00
007FFFF000
0007FF0000
ENDCHAR
STARTCHAR 0056
ENCODING 86
SWIDTH 625 0
DWIDTH 45 0
BBX 43 50 1 0
BITMAP
FF8000001FE0
7F8000003FC0
7FC000003FC0
7FC000003FC0
3FC000007F80
3FC000007F80
3FE000007F80
1FE00000FF00
1FE00000FF00
1FF00000FF00
0FF00001FE00
0FF00001FE00
0FF80001FE00
07F80003FC00
07F80003FC00
07FC0003FC00
03FC0007F800
03FC0007F800
03FE0007F800
01FE000FF000
01FE000FF000
01FF000FF000
00FF001FE000
00FF001FE000
00FF801FE000
007F803FC000
007F803FC000
007F803FC000
003FC03F8000
003FC07F8000
003FC07F8000
001FE07F0000
001FE0FF0000
001FE0FF0000
000FE0FE0000
000FF0FE0000
000FF1FE0000
0007F1FC0000
0007F9FC0000
0007F9FC0000
0003FBF80000
0003FBF80000
0003FFF80000
0001FFF00000
0001FFF00000
0001FFF00000
0000FFE00000
0000FFE00000
0000FFE00000
00007FC00000
ENDCHAR
STARTCHAR 0057
ENCODING 87
SWIDTH 930 0
DWIDTH 67 0
BBX 63 50 2 0
BITMAP
FF00001FF00001FE
FF00003FF00001FE
FF80003FF80003FC
7F80003FF80003FC
7F80003FF80003FC
7F80007FF80003FC
7F80007FFC0003F8
3FC0007FFC0007F8
3FC0007FFC0007F8
3FC000FFFC0007F8
3FC000FEFE0007F0
3FC000FEFE000FF0
1FE000FCFE000FF0
1FE000FCFE000FF0
1FE001FC7F000FE0
1FE001FC7F000FE0
0FF001F87F001FE0
0FF001F87F001FE0
0FF003F83F001FC0
0FF003F03F801FC0
07F003F03F803FC0
07F803F03F803FC0
07F807F01F803F80
07F807E01FC03F80
03F807E01FC03F80
03F807E01FC07F80
03FC0FE00FC07F00
03FC0FC00FE07F00
03FC0FC00FE07F00
01FC0FC00FE0FF00
01FC1FC007E0FE00
01FE1F8007F0FE00
01FE1F8007F0FE00
00FE1F8007F0FE00
00FE3F8003F1FC00
00FF3F0003F9FC00
00FF3F0003F9FC00
007F3F0003F9FC00
007F7F0001FBF800
007F7E0001FFF800
007FFE0001FFF800
003FFE0001FFF800
003FFE0000FFF000
003FFC0000FFF000
003FFC0000FFF000
001FFC0000FFF000
001FFC00007FE000
001FF800007FE000
001FF800007FE000
001FF800007FE000
ENDCHAR
STARTCHAR 0058
ENCODING 88
SWIDTH 638 0
DWIDTH 46 0
BBX 43 50 2 0
BITMAP
FFC000007FC0
7FE00000FF80
3FE00001FF00
3FF00001FF00
1FF00003FE00
0FF80007FC00
0FFC0007FC00
07FC000FF800
03FE000FF000
03FF001FF000
01FF003FE000
01FF803FC000
00FF807FC000
007FC0FF8000
007FE0FF0000
003FE1FF0000
001FF1FE0000
001FF3FC0000
000FFFFC0000
0007FFF80000
0007FFF80000
0003FFF00000
0001FFE00000
0001FFE00000
0000FFC00000
0001FFE00000
0003FFE00000
0003FFF00000
0007FFF80000
0007FFF80000
000FF7FC0000
001FF3FE0000
001FE3FE0000
003FC1FF0000
007FC1FF8000
007F80FF8000
00FF807FC000
01FF007FC000
01FE003FE000
03FE003FF000
03FC001FF000
07FC000FF800
0FF8000FFC00
0FF00007FC00
1FF00003FE00
3FE00003FF00
3FE00001FF00
7FC00001FF80
FF800000FFC0
FF8000007FE0
ENDCHAR
STARTCHAR 0059
ENCODING 89
SWIDTH 611 0
DWIDTH 44 0
BBX 43 50 1 0
BITMAP
FF8000007FE0
7FC000007FC0
7FC00000FF80
3FE00000FF80
3FF00001FF00
1FF00001FE00
0FF80003FE00
0FF80003FC00
07FC0007FC00
07FC000FF800
03FE000FF800
03FE001FF000
01FF001FE000
00FF803FE000
00FF803FC000
007FC07FC000
007FC07F8000
003FE0FF0000
003FE1FF0000
001FF1FE0000
000FF3FE0000
000FFBFC0000
0007FFFC0000
0007FFF80000
0003FFF00000
0003FFF00000
0001FFE00000
0000FFE00000
0000FFC00000
00007F800000
00007F800000
00007F800000
00007F800000
00007F800000
00007F800000
00007F800000
00007F800000
00007F800000
00007F800000
00007F800000
00007F800000
00007F800000
00007F800000
00007F800000
00007F800000
00007F800000
00007F800000
00007F800000
00007F800000
00007F800000
ENDCHAR
STARTCHAR 005A
ENCODING 90
SWIDTH 597 0
DWIDTH 43 0
BBX 37 50 3 0
BITMAP
7FFFFFFFF0
7FFFFFFFF0
7FFFFFFFF0
7FFFFFFFF0
7FFFFFFFF0
7FFFFFFFF0
7FFFFFFFF0
0000001FF0
0000003FE0
0000007FC0
000000FFC0
000000FF80
000001FF00
000003FE00
000007FC00
00000FFC00
00000FF800
00001FF000
00003FE000
00007FE000
00007FC000
0000FF8000
0001FF0000
0003FF0000
0003FE0000
0007FC0000
000FF80000
001FF80000
001FF00000
003FE00000
007FC00000
00FFC00000
00FF800000
01FF000000
03FE000000
07FE000000
07FC000000
0FF8000000
1FF0000000
3FE0000000
7FE0000000
7FC0000000
FF80000000
FFFFFFFFF8
FFFFFFFFF8
FFFFFFFFF8
FFFFFFFFF8
FFFFFFFFF8
FFFFFFFFF8
FFFFFFFFF8
ENDCHAR
STARTCHAR 005B
ENCODING 91
SWIDTH 319 0
DWIDTH 23 0
BBX 13 65 6 -10
BITMAP
FFF8
FFF8
FFF8
FFF8
FFF8
FE00
FE00
FE00
FE00
FE00
FE00
FE00
FE00
FE00
FE00
FE00
FE00
FE00
FE00
FE00
FE00
FE00
FE00
FE00
FE00
FE00
FE00
FE00
FE00
FE00
FE00
FE00
FE00
FE00
FE00
FE00
FE00
FE00
FE00
FE00
FE00
FE00
FE00
FE00
FE00
FE00
FE00
FE00
FE00
FE00
FE00
FE00
FE00
FE00
FE00
FE00
FE00
FE00
FE00
FE00
FFF8
FFF8
FFF8
FFF8
FFF8
ENDCHAR
STARTCHAR 005C
ENCODING 92
SWIDTH 416 0
DWIDTH 30 0
BBX 27 64 3 -11
BITMAP
FE000000
FE000000
7E000000
7F000000
7F000000
3F000000
3F800000
3F800000
3F800000
1FC00000
1FC00000
1FC00000
0FC00000
0FE00000
0FE00000
07E00000
07F00000
07F00000
03F00000
03F80000
03F80000
01F80000
01FC0000
01FC0000
01FC0000
00FE0000
00FE0000
00FE0000
007E0000
007F0000
007F0000
003F0000
003F8000
003F8000
001F8000
001FC000
001FC000
001FC000
000FE000
000FE000
000FE000
0007F000
0007F000
0007F000
0003F000
0003F800
0003F800
0001F800
0001FC00
0001FC00
0000FC00
0000FE00
0000FE00
0000FE00
00007F00
00007F00
00007F00
00003F00
00003F80
00003F80
00001F80
00001FC0
00001FC0
00000FE0
ENDCHAR
STARTCHAR 005D
ENCODING 93
SWIDTH 319 0
DWIDTH 23 0
BBX 13 65 4 -10
BITMAP
FFF8
FFF8
FFF8
FFF8
FFF8
03F8
03F8
03F8
03F8
03F8
03F8
03F8
03F8
03F8
03F8
03F8
03F8
03F8
03F8
03F8
03F8
03F8
03F8
03F8
03F8
03F8
03F8
03F8
03F8
03F8
03F8
03F8
03F8
03F8
03F8
03F8
03F8
03F8
03F8
03F8
03F8
03F8
03F8
03F8
03F8
03F8
03F8
03F8
03F8
03F8
03F8
03F8
03F8
03F8
03F8
03F8
03F8
03F8
03F8
03F8
FFF8
FFF8
FFF8
FFF8
FFF8
ENDCHAR
STARTCHAR 005E
ENCODING 94
SWIDTH 597 0
DWIDTH 43 0
BBX 37 30 3 20
BITMAP
0001FC0000
0003FE0000
0003FF0000
0007FF0000
0007FF8000
000FFF8000
001FFFC000
001FFFC000
003FDFE000
003F9FE000
007F8FF000
007F07F800
00FF07F800
00FE03FC00
01FE03FC00
03FC01FE00
03FC01FE00
07F800FF00
07F000FF00
0FF0007F80
0FE0003FC0
1FE0003FC0
1FC0001FE0
3FC0001FE0
7F80000FF0
7F80000FF0
FF000007F8
3E000007E0
0E00000380
0400000200
ENDCHAR
STARTCHAR 005F
ENCODING 95
SWIDTH 555 0
DWIDTH 40 0
BBX 36 7 2 -13
BITMAP
FFFFFFFFF0
FFFFFFFFF0
FFFFFFFFF0
FFFFFFFFF0
FFFFFFFFF0
FFFFFFFFF0
FFFFFFFFF0
ENDCHAR
STARTCHAR 0060
ENCODING 96
SWIDTH 597 0
DWIDTH 43 0
BBX 14 15 12 42
BITMAP
0700
1F00
7F80
FF80
7FC0
3FC0
1FE0
1FE0
0FF0
07F0
03F8
03F8
01FC
00F0
00C0
ENDCHAR
STARTCHAR 0061
ENCODING 97
SWIDTH 555 0
DWIDTH 40 0
BBX 34 39 3 -1
BITMAP
001FF80000
00FFFF0000
03FFFFC000
07FFFFE000
1FFFFFF000
1FFFFFF800
3FFFFFF800
7FE01FFC00
1F8007FC00
0F0003FC00
060003FC00
000003FC00
000001FC00
000001FC00
000001FC00
000001FC00
003FFFFC00
01FFFFFC00
07FFFFFC00
1FFFFFFC00
3FFFFFFC00
7FF001FC00
7FC001FC00
FF8001FC00
FF0001FC00
FF0001FC00
FF0001FC00
FF0003FC00
FF0003FC00
FF0007FC00
FF800FFC00
FFE03FFFC0
7FFFFCFFC0
7FFFFCFFC0
3FFFF8FFC0
1FFFF87FC0
0FFFF03FC0
07FFC01FC0
00FF000000
ENDCHAR
STARTCHAR 0062
ENCODING 98
SWIDTH 597 0
DWIDTH 43 0
BBX 33 54 6 -1
BITMAP
FE00000000
FE00000000
FE00000000
FE00000000
FE00000000
FE00000000
FE00000000
FE00000000
FE00000000
FE00000000
FE00000000
FE00000000
FE00000000
FE00000000
FE00000000
FE01FC0000
FE0FFF8000
FE1FFFE000
FE3FFFF000
FE7FFFF800
FE7FFFFC00
FEFFFFFC00
FFF01FFE00
FFC007FE00
FF8003FF00
FF0001FF00
FF0000FF00
FF0000FF80
FE00007F80
FE00007F80
FE00007F80
FE00007F80
FE00007F80
FE00007F80
FE00007F80
FE00007F80
FE00007F80
FE00007F80
FE00007F80
FE00007F80
FE00007F80
FF0000FF80
FF0000FF00
FF0001FF00
FF8003FF00
FFC007FE00
FFF01FFE00
FEFFFFFC00
FE7FFFFC00
FE7FFFF800
FE3FFFF000
FE1FFFE000
FE0FFF8000
0001FE0000
ENDCHAR
STARTCHAR 0063
ENCODING 99
SWIDTH 513 0
DWIDTH 37 0
BBX 32 39 3 -1
BITMAP
0007FC00
003FFF00
00FFFFC0
03FFFFE0
07FFFFF0
0FFFFFF8
0FFFFFFC
1FFC0FFE
3FF003FE
3FE001FF
3FC000FC
7F800070
7F800080
7F800000
FF000000
FF000000
FF000000
FF000000
FF000000
FF000000
FF000000
FF000000
FF000000
FF000000
FF000000
7F800000
7F800020
7F800078
3FC000FE
3FE001FF
3FF003FE
1FFC0FFE
0FFFFFFC
0FFFFFF8
07FFFFF0
03FFFFE0
00FFFFC0
003FFF00
0007F800
ENDCHAR
STARTCHAR 0064
ENCODING 100
SWIDTH 597 0
DWIDTH 43 0
BBX 34 54 3 -1
BITMAP
0000003FC0
0000003FC0
0000003FC0
0000003FC0
0000003FC0
0000003FC0
0000003FC0
0000003FC0
0000003FC0
0000003FC0
0000003FC0
0000003FC0
0000003FC0
0000003FC0
0000003FC0
001FE03FC0
007FF83FC0
01FFFE3FC0
03FFFF3FC0
07FFFF3FC0
0FFFFFBFC0
1FFFFFBFC0
1FFC07FFC0
3FF001FFC0
3FE0007FC0
3FC0007FC0
7FC0003FC0
7F80003FC0
7F80003FC0
7F80003FC0
7F80003FC0
FF80003FC0
FF80003FC0
FF80003FC0
FF80003FC0
FF80003FC0
FF80003FC0
FF80003FC0
7F80003FC0
7F80003FC0
7F80003FC0
7F80003FC0
7FC0003FC0
3FC0007FC0
3FE0007FC0
3FF001FFC0
1FFC07FFC0
1FFFFFBFC0
0FFFFFBFC0
07FFFF3FC0
03FFFF3FC0
01FFFE3FC0
00FFF83FC0
001FE00000
ENDCHAR
STARTCHAR 0065
ENCODING 101
SWIDTH 555 0
DWIDTH 40 0
BBX 34 39 3 -1
BITMAP
0007FC0000
003FFF8000
00FFFFC000
01FFFFF000
07FFFFF800
0FFFFFFC00
0FFFFFFC00
1FFC0FFE00
3FF003FF00
3FE001FF00
3FC000FF80
7F80007F80
7F80007F80
7F80007F80
FF00003FC0
FF00003FC0
FF00003FC0
FFFFFFFFC0
FFFFFFFFC0
FFFFFFFFC0
FFFFFFFFC0
FFFFFFFFC0
FF00000000
FF00000000
7F00000000
7F80000000
7F80000000
7F80000800
3FC0001C00
3FE0003E00
3FF000FF00
1FFC03FF80
0FFFFFFF00
0FFFFFFE00
07FFFFFC00
01FFFFF800
00FFFFE000
003FFF8000
0007FC0000
ENDCHAR
STARTCHAR 0066
ENCODING 102
SWIDTH 333 0
DWIDTH 24 0
BBX 21 53 2 0
BITMAP
000FF8
007FF8
00FFF8
01FFF8
01FFF8
03FFF8
03FFF8
03F800
03F800
03F800
03F800
03F800
03F800
03F800
03F800
03F800
FFFFF8
FFFFF8
FFFFF8
FFFFF8
FFFFF8
FFFFF8
FFFFF8
03F800
03F800
03F800
03F800
03F800
03F800
03F800
03F800
03F800
03F800
03F800
03F800
03F800
03F800
03F800
03F800
03F800
03F800
03F800
03F800
03F800
03F800
03F800
03F800
03F800
03F800
03F800
03F800
03F800
03F800
ENDCHAR
STARTCHAR 0067
ENCODING 103
SWIDTH 541 0
DWIDTH 39 0
BBX 36 59 2 -15
BITMAP
0000001FE0
0000007FE0
0000007FE0
000000FFE0
000000FFE0
000000FFE0
000FFCFFE0
007FFFE000
01FFFFE000
03FFFFF000
07FFFFF800
0FFFFFFC00
0FFC07FE00
1FF001FE00
1FE000FF00
1FC000FF00
1FC0007F00
3FC0007F00
3FC0007F00
3FC0007F00
1FC0007F00
1FC000FF00
1FE000FF00
1FF001FE00
0FFC07FE00
0FFFFFFC00
07FFFFFC00
03FFFFF800
00FFFFE000
007FFFC000
01F7FC0000
07C0000000
0F80000000
1F80000000
1F80000000
1F80000000
1FE0000000
1FFFFFF800
1FFFFFFE00
1FFFFFFF80
0FFFFFFFC0
07FFFFFFE0
01FFFFFFE0
07FFFFFFF0
1F80003FF0
3F00000FF0
7E000007F0
7E000007F0
7E000007F0
FE000007F0
FF00000FF0
7F80001FF0
7FE0007FE0
7FFFFFFFE0
3FFFFFFFC0
1FFFFFFF80
0FFFFFFE00
03FFFFF800
003FFF8000
ENDCHAR
STARTCHAR 0068
ENCODING 104
SWIDTH 583 0
DWIDTH 42 0
BBX 31 53 6 0
BITMAP
FE000000
FE000000
FE000000
FE000000
FE000000
FE000000
FE000000
FE000000
FE000000
FE000000
FE000000
FE000000
FE000000
FE000000
FE000000
FE01FC00
FE0FFF80
FE1FFFC0
FE3FFFE0
FE7FFFF0
FE7FFFF8
FEFFFFF8
FFF01FF8
FFC00FFC
FF8007FC
FF0003FC
FF0003FC
FF0003FC
FE0001FC
FE0001FE
FE0001FE
FE0001FE
FE0001FE
FE0001FE
FE0001FE
FE0001FE
FE0001FE
FE0001FE
FE0001FE
FE0001FE
FE0001FE
FE0001FE
FE0001FE
FE0001FE
FE0001FE
FE0001FE
FE0001FE
FE0001FE
FE0001FE
FE0001FE
FE0001FE
FE0001FE
FE0001FE
ENDCHAR
STARTCHAR 0069
ENCODING 105
SWIDTH 263 0
DWIDTH 19 0
BBX 9 54 5 0
BITMAP
3E00
7F00
FF80
FF80
FF80
FF80
FF80
FF80
7F00
3E00
0000
0000
0000
0000
0000
0000
0000
7F00
7F00
7F00
7F00
7F00
7F00
7F00
7F00
7F00
7F00
7F00
7F00
7F00
7F00
7F00
7F00
7F00
7F00
7F00
7F00
7F00
7F00
7F00
7F00
7F00
7F00
7F00
7F00
7F00
7F00
7F00
7F00
7F00
7F00
7F00
7F00
7F00
ENDCHAR
STARTCHAR 006A
ENCODING 106
SWIDTH 263 0
DWIDTH 19 0
BBX 14 68 0 -14
BITMAP
01F0
03F8
07FC
07FC
07FC
07FC
07FC
07FC
03F8
01F0
0000
0000
0000
0000
0000
0000
0000
03F8
03F8
03F8
03F8
03F8
03F8
03F8
03F8
03F8
03F8
03F8
03F8
03F8
03F8
03F8
03F8
03F8
03F8
03F8
03F8
03F8
03F8
03F8
03F8
03F8
03F8
03F8
03F8
03F8
03F8
03F8
03F8
03F8
03F8
03F8
03F8
03F8
03F8
03F8
03F8
03F8
03F8
03F8
03F8
FFF8
FFF8
FFF8
FFF0
FFE0
FFC0
FF00
ENDCHAR
STARTCHAR 006B
ENCODING 107
SWIDTH 541 0
DWIDTH 39 0
BBX 33 53 6 0
BITMAP
FE00000000
FE00000000
FE00000000
FE00000000
FE00000000
FE00000000
FE00000000
FE00000000
FE00000000
FE00000000
FE00000000
FE00000000
FE00000000
FE00000000
FE00000000
FE00000000
FE0003FE00
FE0007FC00
FE000FF800
FE001FF000
FE003FE000
FE007FC000
FE00FF8000
FE01FF0000
FE03FE0000
FE07FC0000
FE07FC0000
FE0FF80000
FE1FF00000
FE3FE00000
FE3FC00000
FE7FE00000
FEFFE00000
FFFFF00000
FFFFF80000
FFFFF80000
FFF7FC0000
FFE3FE0000
FFC1FE0000
FF81FF0000
FF00FF8000
FE00FF8000
FE007FC000
FE003FE000
FE003FE000
FE001FF000
FE001FF800
FE000FF800
FE0007FC00
FE0007FC00
FE0003FE00
FE0003FF00
FE0001FF80
ENDCHAR
STARTCHAR 006C
ENCODING 108
SWIDTH 291 0
DWIDTH 21 0
BBX 13 53 6 0
BITMAP
FE00
FE00
FE00
FE00
FE00
FE00
FE00
FE00
FE00
FE00
FE00
FE00
FE00
FE00
FE00
FE00
FE00
FE00
FE00
FE00
FE00
FE00
FE00
FE00
FE00
FE00
FE00
FE00
FE00
FE00
FE00
FE00
FE00
FE00
FE00
FE00
FE00
FE00
FE00
FE00
FE00
FE00
FE00
FE00
FE00
FE00
FFF8
FFF8
FFF8
7FF8
7FF8
3FF8
0FF8
ENDCHAR
STARTCHAR 006D
ENCODING 109
SWIDTH 888 0
DWIDTH 64 0
BBX 52 38 6 0
BITMAP
0003FC0007F000
FE0FFF003FFE00
FE1FFF807FFF00
FE3FFFC0FFFF80
FE7FFFE1FFFFC0
FE7FFFF3FFFFC0
FEFFFFF3FFFFE0
FFF03FFFC0FFE0
FFC00FFF003FF0
FF8007FE001FF0
FF0007FE000FF0
FF0007FC000FF0
FF0003FC000FF0
FE0003FC000FF0
FE0003FC000FF0
FE0003FC000FF0
FE0003FC000FF0
FE0003FC000FF0
FE0003FC000FF0
FE0003FC000FF0
FE0003FC000FF0
FE0003FC000FF0
FE0003FC000FF0
FE0003FC000FF0
FE0003FC000FF0
FE0003FC000FF0
FE0003FC000FF0
FE0003FC000FF0
FE0003FC000FF0
FE0003FC000FF0
FE0003FC000FF0
FE0003FC000FF0
FE0003FC000FF0
FE0003FC000FF0
FE0003FC000FF0
FE0003FC000FF0
FE0003FC000FF0
FE0003FC000FF0
ENDCHAR
STARTCHAR 006E
ENCODING 110
SWIDTH 583 0
DWIDTH 42 0
BBX 31 38 6 0
BITMAP
0001FC00
FE0FFF80
FE1FFFC0
FE3FFFE0
FE7FFFF0
FE7FFFF8
FEFFFFF8
FFF01FF8
FFC00FFC
FF8007FC
FF0003FC
FF0003FC
FF0003FC
FE0001FC
FE0001FE
FE0001FE
FE0001FE
FE0001FE
FE0001FE
FE0001FE
FE0001FE
FE0001FE
FE0001FE
FE0001FE
FE0001FE
FE0001FE
FE0001FE
FE0001FE
FE0001FE
FE0001FE
FE0001FE
FE0001FE
FE0001FE
FE0001FE
FE0001FE
FE0001FE
FE0001FE
FE0001FE
ENDCHAR
STARTCHAR 006F
ENCODING 111
SWIDTH 569 0
DWIDTH 41 0
BBX 35 39 3 -1
BITMAP
0007FC0000
003FFF8000
00FFFFE000
01FFFFF000
07FFFFF800
07FFFFFC00
0FFFFFFE00
1FFC07FE00
1FF001FF00
3FE000FF80
3FC0007F80
7F80007F80
7F80003FC0
7F80003FC0
7F00003FC0
FF00003FC0
FF00003FC0
FF00003FC0
FF00003FC0
FF00003FE0
FF00003FC0
FF00003FC0
FF00003FC0
FF00003FC0
7F80003FC0
7F80003FC0
7F80003FC0
7F80007F80
3FC0007F80
3FE000FF80
1FF001FF00
1FFC07FE00
0FFFFFFE00
07FFFFFC00
07FFFFF800
01FFFFF000
00FFFFE000
003FFF8000
0007FC0000
ENDCHAR
STARTCHAR 0070
ENCODING 112
SWIDTH 597 0
DWIDTH 43 0
BBX 33 52 6 -14
BITMAP
0001FC0000
FE0FFF8000
FE1FFFE000
FE3FFFF000
FE7FFFF800
FE7FFFFC00
FEFFFFFC00
FFF01FFE00
FFC007FE00
FF8003FF00
FF0001FF00
FF0000FF00
FF0000FF80
FE00007F80
FE00007F80
FE00007F80
FE00007F80
FE00007F80
FE00007F80
FE00007F80
FE00007F80
FE00007F80
FE00007F80
FE00007F80
FE00007F80
FE00007F80
FF0000FF80
FF0000FF00
FF0001FF00
FF8003FF00
FFC007FE00
FFF01FFE00
FEFFFFFC00
FE7FFFFC00
FE7FFFF800
FE3FFFF000
FE1FFFE000
FE0FFF8000
FE01FE0000
FE00000000
FE00000000
FE00000000
FE00000000
FE00000000
FE00000000
FE00000000
FE00000000
FE00000000
FE00000000
FE00000000
FE00000000
FE00000000
ENDCHAR
STARTCHAR 0071
ENCODING 113
SWIDTH 597 0
DWIDTH 43 0
BBX 34 52 3 -14
BITMAP
001FE00000
007FF83FC0
01FFFE3FC0
03FFFF3FC0
07FFFF3FC0
0FFFFFBFC0
1FFFFFBFC0
1FFC07FFC0
3FF001FFC0
3FE0007FC0
3FC0007FC0
7FC0003FC0
7F80003FC0
7F80003FC0
7F80003FC0
7F80003FC0
FF80003FC0
FF80003FC0
FF80003FC0
FF80003FC0
FF80003FC0
FF80003FC0
FF80003FC0
7F80003FC0
7F80003FC0
7F80003FC0
7F80003FC0
7FC0003FC0
3FC0007FC0
3FE0007FC0
3FF001FFC0
1FFC07FFC0
1FFFFFBFC0
0FFFFFBFC0
07FFFF3FC0
03FFFF3FC0
01FFFE3FC0
00FFF83FC0
001FE03FC0
0000003FC0
0000003FC0
0000003FC0
0000003FC0
0000003FC0
0000003FC0
0000003FC0
0000003FC0
0000003FC0
0000003FC0
0000003FC0
0000003FC0
0000003FC0
ENDCHAR
STARTCHAR 0072
ENCODING 114
SWIDTH 388 0
DWIDTH 28 0
BBX 20 37 6 0
BITMAP
FE03F0
FE0FF0
FE1FF0
FE3FF0
FE7FF0
FEFFF0
FEFFF0
FFF800
FFC000
FF8000
FF0000
FF0000
FE0000
FE0000
FE0000
FE0000
FE0000
FE0000
FE0000
FE0000
FE0000
FE0000
FE0000
FE0000
FE0000
FE0000
FE0000
FE0000
FE0000
FE0000
FE0000
FE0000
FE0000
FE0000
FE0000
FE0000
FE0000
ENDCHAR
STARTCHAR 0073
ENCODING 115
SWIDTH 500 0
DWIDTH 36 0
BBX 30 39 2 -1
BITMAP
001FF800
00FFFF00
03FFFF80
07FFFFE0
0FFFFFF0
1FFFFFF8
1FFFFFFC
3FF01FF0
3FC003E0
3FC001C0
3F800080
3F800000
3F800000
3FC00000
3FE00000
3FFF0000
1FFFF800
1FFFFF00
0FFFFFC0
07FFFFE0
03FFFFF0
00FFFFF8
001FFFFC
00001FFC
000007FC
000003FC
000001FC
040001FC
0E0001FC
1F0003FC
3FC007FC
7FF00FF8
FFFFFFF8
3FFFFFF0
1FFFFFE0
0FFFFFC0
07FFFF80
01FFFE00
003FF000
ENDCHAR
STARTCHAR 0074
ENCODING 116
SWIDTH 361 0
DWIDTH 26 0
BBX 21 48 2 0
BITMAP
03FC00
03FC00
03FC00
03FC00
03FC00
03FC00
03FC00
03FC00
03FC00
03FC00
07FC00
FFFFF8
FFFFF8
FFFFF8
FFFFF8
FFFFF8
FFFFF8
FFFFF8
03FC00
03FC00
03FC00
03FC00
03FC00
03FC00
03FC00
03FC00
03FC00
03FC00
03FC00
03FC00
03FC00
03FC00
03FC00
03FC00
03FC00
03FC00
03FC00
03FC00
03FC00
03FC00
03FC00
03FFF8
03FFF8
03FFF8
01FFF8
01FFF8
00FFF8
003FF8
ENDCHAR
STARTCHAR 0075
ENCODING 117
SWIDTH 583 0
DWIDTH 42 0
BBX 31 38 5 -1
BITMAP
FF0001FE
FF0001FE
FF0001FE
FF0001FE
FF0001FE
FF0001FE
FF0001FE
FF0001FE
FF0001FE
FF0001FE
FF0001FE
FF0001FE
FF0001FE
FF0001FE
FF0001FE
FF0001FE
FF0001FE
FF0001FE
FF0001FE
FF0001FE
FF0001FE
FF0001FE
FF0001FE
FF0001FE
FF0001FE
FF0001FE
FF8001FE
7F8001FE
7FC003FE
7FE007FE
7FF01FFE
3FFFFFFE
3FFFFDFE
1FFFFDFE
0FFFF9FE
07FFF1FE
03FFE1FE
00FF0000
ENDCHAR
STARTCHAR 0076
ENCODING 118
SWIDTH 513 0
DWIDTH 37 0
BBX 35 37 1 0
BITMAP
FF00001FE0
7F00001FC0
7F80003FC0
7F80003FC0
3F80003F80
3FC0007F80
3FC0007F80
1FC0007F00
1FE000FF00
1FE000FF00
0FE000FE00
0FF001FE00
0FF001FE00
07F001FC00
07F803FC00
07F803F800
03F803F800
03FC07F800
03FC07F000
01FC07F000
01FE0FF000
01FE0FE000
00FE0FE000
00FE0FE000
00FF1FC000
007F1FC000
007F1FC000
007FBF8000
003FBF8000
003FBF8000
001FFF0000
001FFF0000
001FFF0000
000FFE0000
000FFE0000
000FFE0000
0007FC0000
ENDCHAR
STARTCHAR 0077
ENCODING 119
SWIDTH 805 0
DWIDTH 58 0
BBX 54 37 2 0
BITMAP
FF0001FE0003FC
FF0001FE0003F8
7F0001FE0003F8
7F0003FE0003F8
7F8003FF0007F0
7F8003FF0007F0
3F8007FF0007F0
3F8007FF800FF0
3FC007FF800FE0
3FC007FF800FE0
1FC00FDFC00FE0
1FC00FDFC01FE0
1FE00FCFC01FC0
0FE01FCFC01FC0
0FE01F8FE01FC0
0FE01F8FE03F80
0FF01F87E03F80
07F03F07F03F80
07F03F07F03F80
07F03F03F03F00
03F87F03F07F00
03F87E03F87F00
03F87E01F87F00
03F87E01F87E00
01F8FC01FCFE00
01FCFC01FCFE00
01FCFC00FCFC00
01FDFC00FCFC00
00FDF800FFFC00
00FFF8007FFC00
00FFF8007FF800
007FF0007FF800
007FF0007FF800
007FF0003FF800
007FE0003FF000
003FE0003FF000
003FE0001FF000
ENDCHAR
STARTCHAR 0078
ENCODING 120
SWIDTH 527 0
DWIDTH 38 0
BBX 36 37 1 0
BITMAP
7FC0001FF0
3FE0003FC0
1FF0007FC0
1FF0007F80
0FF800FF00
07F801FF00
07FC01FE00
03FE03FC00
01FE07FC00
01FF07F800
00FF8FF000
007F9FE000
003FDFE000
003FFFC000
001FFF8000
000FFF8000
000FFF0000
0007FE0000
0007FE0000
0007FF0000
000FFF0000
001FFF8000
001FFFC000
003FFFC000
007F9FE000
007F9FF000
00FF0FF000
01FE07F800
03FC07FC00
03FC03FE00
07F803FE00
0FF001FF00
0FF000FF80
1FE000FF80
3FC0007FC0
7FC0003FE0
FF80003FF0
ENDCHAR
STARTCHAR 0079
ENCODING 121
SWIDTH 513 0
DWIDTH 37 0
BBX 35 51 1 -14
BITMAP
FF00001FE0
FF00001FE0
7F80001FC0
7F80003FC0
7F80003FC0
3FC0003F80
3FC0007F80
1FC0007F00
1FE0007F00
1FE000FF00
0FE000FE00
0FF001FE00
0FF001FE00
07F801FC00
07F803FC00
07F803FC00
03FC03F800
03FC07F800
01FC07F800
01FE07F000
01FE0FF000
00FE0FE000
00FF0FE000
00FF1FE000
007F1FC000
007F1FC000
007FBFC000
003FBF8000
003FBF8000
003FFF8000
001FFF0000
001FFF0000
000FFF0000
000FFE0000
000FFE0000
0007FC0000
0007FC0000
0007FC0000
0007F80000
0007F80000
0007F80000
000FF00000
000FF00000
001FF00000
07FFE00000
07FFE00000
07FFC00000
07FFC00000
07FF800000
07FF000000
07FC000000
ENDCHAR
STARTCHAR 007A
ENCODING 122
SWIDTH 486 0
DWIDTH 35 0
BBX 29 37 3 0
BITMAP
FFFFFFF8
FFFFFFF8
FFFFFFF8
FFFFFFF8
FFFFFFF8
FFFFFFF8
FFFFFFF8
00001FF0
00003FE0
00007FC0
00007FC0
0000FF80
0001FF00
0003FE00
0007FC00
000FF800
001FF000
001FF000
003FE000
007FC000
00FF8000
01FF0000
03FE0000
07FC0000
0FF80000
0FF80000
1FF00000
3FE00000
7FC00000
FF800000
FFFFFFF8
FFFFFFF8
FFFFFFF8
FFFFFFF8
FFFFFFF8
FFFFFFF8
FFFFFFF8
ENDCHAR
STARTCHAR 007B
ENCODING 123
SWIDTH 347 0
DWIDTH 25 0
BBX 20 65 1 -10
BITMAP
001FF0
007FF0
00FFF0
00FFF0
00FFF0
01FC00
01FC00
01FC00
01FC00
01FC00
01FC00
01FC00
01FC00
01FC00
01FC00
01FC00
01FC00
01FC00
01FC00
01FC00
01FC00
01FC00
01FC00
01FC00
01FC00
01FC00
03FC00
07F800
1FF800
FFF000
FFE000
FF8000
FE0000
FF8000
FFE000
FFF000
1FF800
07F800
03FC00
01FC00
01FC00
01FC00
01FC00
01FC00
01FC00
01FC00
01FC00
01FC00
01FC00
01FC00
01FC00
01FC00
01FC00
01FC00
01FC00
01FC00
01FC00
01FC00
01FC00
01FC00
00FFF0
00FFF0
007FF0
007FF0
001FF0
ENDCHAR
STARTCHAR 007C
ENCODING 124
SWIDTH 347 0
DWIDTH 25 0
BBX 7 65 9 -10
BITMAP
FE
FE
FE
FE
FE
FE
FE
FE
FE
FE
FE
FE
FE
FE
FE
FE
FE
FE
FE
FE
FE
FE
FE
FE
FE
FE
FE
FE
FE
FE
FE
FE
FE
FE
FE
FE
FE
FE
FE
FE
FE
FE
FE
FE
FE
FE
FE
FE
FE
FE
FE
FE
FE
FE
FE
FE
FE
FE
FE
FE
FE
FE
FE
FE
FE
ENDCHAR
STARTCHAR 007D
ENCODING 125
SWIDTH 361 0
DWIDTH 26 0
BBX 20 65 4 -10
BITMAP
FFC000
FFE000
FFF000
FFF800
FFF800
03F800
03F800
03F800
03F800
03F800
03F800
03F800
03F800
03F800
03F800
03F800
03F800
03F800
03F800
03F800
03F800
03F800
03F800
03F800
03F800
01FC00
01FC00
01FE00
00FF80
007FF0
003FF0
000FF0
0007F0
000FF0
003FF0
007FF0
00FF80
01FE00
01FC00
01FC00
03F800
03F800
03F800
03F800
03F800
03F800
03F800
03F800
03F800
03F800
03F800
03F800
03F800
03F800
03F800
03F800
03F800
03F800
03F800
03F800
FFF800
FFF800
FFF000
FFE000
FFC000
ENDCHAR
STARTCHAR 007E
ENCODING 126
SWIDTH 597 0
DWIDTH 43 0
BBX 35 12 4 16
BITMAP
03F8000000
1FFF000000
3FFFC00080
7FFFF00380
FFFFFE07C0
7FFFFFFFC0
7FFFFFFFE0
3C0FFFFFE0
3801FFFFC0
10007FFF80
00001FFF00
000003FC00
ENDCHAR
STARTCHAR 00A0
ENCODING 160
SWIDTH 236 0
DWIDTH 17 0
BBX 0 0 0 0
BITMAP
ENDCHAR
STARTCHAR 00A1
ENCODING 161
SWIDTH 291 0
DWIDTH 21 0
BBX 11 51 5 -13
BITMAP
1F00
3FC0
7FC0
7FE0
FFE0
FFE0
FFE0
7FE0
7FC0
3FC0
1F00
0000
0000
0000
0000
0000
0F00
0F00
0F00
0F00
1F00
1F00
1F00
1F00
1F80
1F80
1F80
1F80
3F80
3F80
3F80
3F80
3FC0
3FC0
3FC0
3FC0
3FC0
3FC0
3FC0
3FC0
3FC0
3FC0
3FC0
3FC0
3FC0
3FC0
3FC0
3FC0
3FC0
3FC0
3FC0
ENDCHAR
STARTCHAR 00A2
ENCODING 162
SWIDTH 527 0
DWIDTH 38 0
BBX 32 55 3 -9
BITMAP
0003F000
0003F000
0003F000
0003F000
0003F000
0003F000
0003F000
0003F000
000FFE00
007FFF80
01FFFFE0
03FFFFF0
07FFFFF8
0FFFFFFC
0FFFFFFC
1FFBF7FE
3FE3F1FF
3FC3F0FE
3FC3F07C
7F83F030
7F83F000
7F03F000
7F03F000
FF03F000
FF03F000
FF03F000
FF03F000
FF03F000
FF03F000
FF03F000
FF03F000
FF03F000
7F03F000
7F03F000
7F83F020
7F83F038
3FC3F07E
3FC3F07F
3FE3F1FF
1FFBF3FF
0FFFFFFE
0FFFFFFC
07FFFFF8
03FFFFF0
01FFFFE0
007FFF80
000FFE00
0003F000
0003F000
0003F000
0003F000
0003F000
0003F000
0003F000
0003F000
ENDCHAR
STARTCHAR 00A3
ENCODING 163
SWIDTH 583 0
DWIDTH 42 0
BBX 36 51 4 0
BITMAP
0001FF8000
001FFFF000
007FFFFC00
00FFFFFE00
01FFFFFF80
03FFFFFFC0
07FFFFFFE0
0FFF01FFE0
0FFC003FF0
1FF8001FC0
1FF0000F80
1FF0000600
1FE0000400
1FE0000000
1FE0000000
1FE0000000
1FE0000000
1FE0000000
1FE0000000
1FE0000000
0FF0000000
0FF0000000
0FF0000000
FFFFFFE000
FFFFFFE000
FFFFFFE000
FFFFFFE000
FFFFFFE000
FFFFFFE000
FFFFFFE000
01FE000000
01FE000000
01FE000000
01FE000000
01FE000000
01FE000000
03FC000000
03FC000000
03FC000000
07F8000000
0FF0000000
1FF0000000
3FE0000000
7F80000000
7FFFFFFFE0
7FFFFFFFE0
7FFFFFFFE0
7FFFFFFFE0
7FFFFFFFE0
7FFFFFFFE0
7FFFFFFFE0
ENDCHAR
STARTCHAR 00A4
ENCODING 164
SWIDTH 625 0
DWIDTH 45 0
BBX 43 42 1 4
BITMAP
080000000600
1C0000000F00
3E0000001F80
7F0000003FC0
FF807FC07FE0
3FC3FFF8FF80
1FEFFFFFFF00
0FFFFFFFFE00
07FFFFFFFC00
03FFFFFFF800
01FFFFFFF000
01FFC07FF000
01FF001FF000
03FE000FF000
03FC0007F800
07FC0007F800
07F80007F800
07F80003F800
07F80003FC00
07F80003FC00
07F80003FC00
07F80003FC00
07F80003FC00
07F80003FC00
07F80003F800
07F80007F800
03FC0007F800
03FC0007F800
03FE000FF800
01FF001FF000
01FFC07FF000
03FFFFFFF000
07FFFFFFF800
0FFFFFFFFC00
1FFFFFFFFE00
3FEFFFFFFF00
7FC3FFF8FF80
FF807FC07FC0
7F0000003FE0
3E0000001F80
1C0000000F00
080000000600
ENDCHAR
STARTCHAR 00A5
ENCODING 165
SWIDTH 625 0
DWIDTH 45 0
BBX 41 50 2 0
BITMAP
FFC00000FF80
7FC00001FF00
7FE00001FE00
3FE00003FE00
1FF00003FC00
1FF00007FC00
0FF80007F800
0FF8000FF800
07FC000FF000
07FC001FF000
03FE001FE000
03FE003FC000
01FF003FC000
00FF007F8000
00FF807F8000
007F80FF0000
007FC0FF0000
003FC1FE0000
003FE1FC0000
001FE3FC0000
000FF3F80000
000FFFF80000
0007FFF00000
0FFFFFFFF800
0FFFFFFFF800
0FFFFFFFF800
0FFFFFFFF800
0FFFFFFFF800
0FFFFFFFF800
0000FF800000
0000FF800000
0000FF800000
0000FF800000
0000FF800000
0000FF800000
0FFFFFFFF800
0FFFFFFFF800
0FFFFFFFF800
0FFFFFFFF800
0FFFFFFFF800
0FFFFFFFF800
0000FF800000
0000FF800000
0000FF800000
0000FF800000
0000FF800000
0000FF800000
0000FF800000
0000FF800000
0000FF800000
ENDCHAR
STARTCHAR 00A6
ENCODING 166
SWIDTH 347 0
DWIDTH 25 0
BBX 7 65 9 -10
BITMAP
FE
FE
FE
FE
FE
FE
FE
FE
FE
FE
FE
FE
FE
FE
FE
FE
FE
FE
FE
FE
FE
FE
FE
FE
FE
FE
00
00
00
00
00
00
00
00
00
00
00
00
00
FE
FE
FE
FE
FE
FE
FE
FE
FE
FE
FE
FE
FE
FE
FE
FE
FE
FE
FE
FE
FE
FE
FE
FE
FE
FE
ENDCHAR
STARTCHAR 00A7
ENCODING 167
SWIDTH 583 0
DWIDTH 42 0
BBX 32 62 5 -11
BITMAP
000FF800
007FFF80
01FFFFC0
03FFFFF0
07FFFFF8
0FFFFFFC
1FFFFFF8
1FF80FF0
3FE001E0
3FC000C0
3F800000
3F800000
3F800000
3F800000
3FC00000
1FE00000
1FFC0000
1FFF8000
0FFFF800
07FFFF00
03FFFFC0
01FFFFF0
01FFFFF8
07FFFFFC
0F83FFFC
3F003FFE
3F0007FE
7E0003FF
FE0000FF
FE0000FF
FE00007F
FE00007F
FE00007E
FF00007E
FF8000FE
FFC000FC
7FF801F8
7FFF83F0
3FFFF7E0
1FFFFF80
0FFFFF00
03FFFFC0
00FFFFE0
000FFFE0
0001FFF0
00003FF8
00000FF8
000003F8
000003F8
000003FC
000003FC
000003F8
060003F8
0F8007F8
1FE01FF8
1FFFFFF0
3FFFFFF0
3FFFFFE0
0FFFFFC0
07FFFF00
01FFFE00
003FF000
ENDCHAR
STARTCHAR 00A8
ENCODING 168
SWIDTH 597 0
DWIDTH 43 0
BBX 23 9 10 44
BITMAP
3E00F8
7F01FE
FF81FE
FF83FE
FF83FE
FF83FE
FF81FE
7F01FE
3E00F8
ENDCHAR
STARTCHAR 00A9
ENCODING 169
SWIDTH 777 0
DWIDTH 56 0
BBX 49 52 4 -1
BITMAP
00001FF8000000
0001FFFF800000
0007FFFFE00000
001FFFFFF80000
003FF007FE0000
00FF0000FF0000
01FC00003F8000
03F800000FC000
07E0000007E000
07C0000003F000
0F80000001F000
1F8007F800F800
1F003FFE00FC00
3E007FFF007C00
3E00FFFF807C00
7C01FFFFC03E00
7C03FFFFE03E00
7C07FC1FE01F00
F807F807F01F00
F80FF007801F00
F80FE003001F00
F80FE000001F00
F80FE000001F00
F80FE000000F80
F80FE000000F80
F80FE000000F80
F80FE000000F80
F80FE000000F80
F80FE000001F80
F80FE000001F00
F80FE000001F00
F80FE003001F00
F80FF003C01F00
F807F807F01F00
7C07FC1FF01F00
7C03FFFFE03E00
7C01FFFFE03E00
3E00FFFFC07C00
3E007FFF807C00
1F003FFE00FC00
1F8007F800F800
0F80000001F000
07C0000003F000
07E0000007E000
03F800000FC000
01FC00003F8000
00FF0000FF0000
003FF007FE0000
001FFFFFF80000
0007FFFFE00000
0001FFFF800000
00001FFC000000
ENDCHAR
STARTCHAR 00AA
ENCODING 170
SWIDTH 416 0
DWIDTH 30 0
BBX 24 26 3 25
BITMAP
01FE00
0FFFC0
1FFFE0
3FFFF0
7F07F0
3C01F8
1801F8
1000F8
0000FC
0000FC
0000FC
03FFFC
0FFFFC
3FFFFC
7FFFFC
7F00FC
FC00FC
FC00FC
FC00FC
FC01FC
FC01FC
7E07FC
7FFEFF
3FFE7F
1FFC3F
07F007
ENDCHAR
STARTCHAR 00AB
ENCODING 171
SWIDTH 527 0
DWIDTH 38 0
BBX 32 31 3 4
BITMAP
00040004
000C000C
003C003C
007E007E
00FE00FE
01FF01FF
03FC03FC
07F807F8
1FF01FF8
3FF03FF0
7FE07FE0
FFC0FFC0
FF80FF80
FF00FF00
FE00FE00
FE00FE00
FE00FE00
FF00FF00
FF80FF80
FFC07FC0
3FE03FE0
1FF01FF0
0FF80FF8
07FC07FC
03FE03FE
01FF01FF
007E007E
003E003E
001C001C
000C000C
00080008
ENDCHAR
STARTCHAR 00AC
ENCODING 172
SWIDTH 597 0
DWIDTH 43 0
BBX 35 20 3 6
BITMAP
FFFFFFFFE0
FFFFFFFFE0
FFFFFFFFE0
FFFFFFFFE0
FFFFFFFFE0
FFFFFFFFE0
FFFFFFFFE0
00000007E0
00000007E0
00000007E0
00000007E0
00000007E0
00000007E0
00000007E0
00000007E0
00000007E0
00000007E0
00000007E0
00000007E0
00000007E0
ENDCHAR
STARTCHAR 00AD
ENCODING 173
SWIDTH 402 0
DWIDTH 29 0
BBX 20 8 4 18
BITMAP
FFFFF0
FFFFF0
FFFFF0
FFFFF0
FFFFF0
FFFFF0
FFFFF0
FFFFF0
ENDCHAR
STARTCHAR 00AE
ENCODING 174
SWIDTH 472 0
DWIDTH 34 0
BBX 28 29 3 22
BITMAP
003FC000
01FFF800
03FFFC00
0FE07F00
1F000F80
1E000780
3C0003C0
78FFC1E0
70FFE0E0
F0FFF0F0
E0F0F070
E0F0F070
E0F0F070
E0F0F070
E0FFE070
E0FFE070
E0FF8070
E0F3C070
E0F1E070
F0F1E0F0
70F0F0E0
78F0F1E0
3C000BC0
1E000780
1F000F80
0FE07F00
03FFFC00
01FFF800
003FC000
ENDCHAR
STARTCHAR 00AF
ENCODING 175
SWIDTH 597 0
DWIDTH 43 0
BBX 21 6 11 45
BITMAP
FFFFF8
FFFFF8
FFFFF8
FFFFF8
FFFFF8
FFFFF8
ENDCHAR
STARTCHAR 00B0
ENCODING 176
SWIDTH 472 0
DWIDTH 34 0
BBX 26 26 4 25
BITMAP
007F8000
01FFE000
07FFF800
0FFFFC00
1FFFFE00
3FFFFE00
3FC0FF00
7F807F00
7F003F80
7E001F80
FE001F80
FC001FC0
FC000FC0
FC000FC0
FC001FC0
FE001F80
7E001F80
7F003F80
7F807F00
3FC0FF00
3FFFFE00
1FFFFE00
0FFFFC00
07FFF800
01FFE000
007F8000
ENDCHAR
STARTCHAR 00B1
ENCODING 177
SWIDTH 597 0
DWIDTH 43 0
BBX 33 45 5 0
BITMAP
0007F00000
0007F00000
0007F00000
0007F00000
0007F00000
0007F00000
0007F00000
0007F00000
0007F00000
0007F00000
0007F00000
0007F00000
0007F00000
FFFFFFFF80
FFFFFFFF80
FFFFFFFF80
FFFFFFFF80
FFFFFFFF80
FFFFFFFF80
FFFFFFFF80
0007F00000
0007F00000
0007F00000
0007F00000
0007F00000
0007F00000
0007F00000
0007F00000
0007F00000
0007F00000
0007F00000
0007F00000
0000000000
0000000000
0000000000
0000000000
0000000000
0000000000
FFFFFFFF80
FFFFFFFF80
FFFFFFFF80
FFFFFFFF80
FFFFFFFF80
FFFFFFFF80
FFFFFFFF80
ENDCHAR
STARTCHAR 00B2
ENCODING 178
SWIDTH 347 0
DWIDTH 25 0
BBX 21 27 2 24
BITMAP
03FC00
0FFF80
3FFFC0
7FFFE0
7F0FE0
FC07F0
7C03F0
0803F0
0003F0
0003F0
0007F0
0007E0
000FE0
001FC0
003F80
007F00
00FE00
01F800
07F000
0FE000
1FC000
7F8000
7E0000
7FFFF8
7FFFF8
7FFFF8
7FFFF8
ENDCHAR
STARTCHAR 00B3
ENCODING 179
SWIDTH 347 0
DWIDTH 25 0
BBX 21 28 1 23
BITMAP
01FE00
0FFF80
1FFFE0
7FFFF0
3F07F0
1C03F0
0803F8
0001F8
0001F8
0001F0
0003F0
0007E0
01FFC0
01FF00
01FF80
01FFE0
0007F0
0001F8
0001F8
0001F8
1001F8
1801F8
7C03F8
FF07F0
7FFFF0
3FFFE0
0FFF80
03FE00
ENDCHAR
STARTCHAR 00B4
ENCODING 180
SWIDTH 597 0
DWIDTH 43 0
BBX 14 15 17 42
BITMAP
0180
03E0
03F8
07FC
07F8
0FF0
0FE0
1FE0
1FC0
3F80
3F80
7F00
7E00
BC00
0C00
ENDCHAR
STARTCHAR 00B5
ENCODING 181
SWIDTH 583 0
DWIDTH 42 0
BBX 31 51 6 -14
BITMAP
FE0001FE
FE0001FE
FE0001FE
FE0001FE
FE0001FE
FE0001FE
FE0001FE
FE0001FE
FE0001FE
FE0001FE
FE0001FE
FE0001FE
FE0001FE
FE0001FE
FE0001FE
FE0001FE
FE0001FE
FE0001FE
FE0001FE
FE0001FE
FE0001FE
FE0001FE
FE0001FE
FE0001FE
FF0001FE
FF0001FE
FF0003FE
FF0003FE
FF8007FE
FFC00FFE
FFF03FFE
FFFFFDFE
FFFFFDFE
FFFFF9FE
FDFFF1FE
FDFFE1FE
FEFFC1FE
FE3F0000
FE000000
FE000000
FE000000
FE000000
FE000000
FE000000
FE000000
FE000000
FE000000
FE000000
FE000000
FE000000
FE000000
ENDCHAR
STARTCHAR 00B6
ENCODING 182
SWIDTH 666 0
DWIDTH 48 0
BBX 40 61 3 -11
BITMAP
001FFFFFFF
00FFFFFFFF
01FFFFFFFF
07FFFFFFFF
0FFFFFFFFF
1FFFFFFFFF
1FFFFFFFFF
3FFFF807E0
3FFFF807E0
7FFFF807E0
7FFFF807E0
7FFFF807E0
FFFFF807E0
FFFFF807E0
FFFFF807E0
FFFFF807E0
FFFFF807E0
FFFFF807E0
FFFFF807E0
7FFFF807E0
7FFFF807E0
7FFFF807E0
3FFFF807E0
3FFFF807E0
1FFFF807E0
1FFFF807E0
0FFFF807E0
07FFF807E0
01FFF807E0
00FFF807E0
001FF807E0
0001F807E0
0001F807E0
0001F807E0
0001F807E0
0001F807E0
0001F807E0
0001F807E0
0001F807E0
0001F807E0
0001F807E0
0001F807E0
0001F807E0
0001F807E0
0001F807E0
0001F807E0
0001F807E0
0001F807E0
0001F807E0
0001F807E0
0001F807E0
0001F807E0
0001F807E0
0001F807E0
0001F807E0
0001F807E0
0001F807E0
0001F807E0
0001F807E0
0001F807E0
0001F807E0
ENDCHAR
STARTCHAR 00B7
ENCODING 183
SWIDTH 361 0
DWIDTH 26 0
BBX 12 12 7 16
BITMAP
1F80
7FC0
7FE0
FFE0
FFF0
FFF0
FFF0
FFF0
FFE0
7FE0
7FC0
1F80
ENDCHAR
STARTCHAR 00B8
ENCODING 184
SWIDTH 597 0
DWIDTH 43 0
BBX 16 17 15 -16
BITMAP
0780
0780
0F00
0F00
0F00
0F00
0FFC
0FFE
11FF
007F
003F
203F
787F
FFFF
FFFE
7FFC
1FE0
ENDCHAR
STARTCHAR 00B9
ENCODING 185
SWIDTH 347 0
DWIDTH 25 0
BBX 21 26 2 24
BITMAP
03FE00
07FE00
0FFE00
1FFE00
3FFE00
3F7E00
7E7E00
FC7E00
F87E00
307E00
207E00
007E00
007E00
007E00
007E00
007E00
007E00
007E00
007E00
007E00
007E00
007E00
3FFFF8
3FFFF8
3FFFF8
3FFFF8
ENDCHAR
STARTCHAR 00BA
ENCODING 186
SWIDTH 416 0
DWIDTH 30 0
BBX 24 27 3 24
BITMAP
00FF00
03FFC0
0FFFF0
1FFFF8
3F83F8
3F00FC
7E007C
7E007E
7C007E
FC003E
FC003F
FC003F
FC003F
FC003F
FC003F
FC003F
FC003F
FC003E
7C007E
7E007E
7E007C
3F00FC
3F81F8
1FFFF8
0FFFF0
03FFC0
00FF00
ENDCHAR
STARTCHAR 00BB
ENCODING 187
SWIDTH 527 0
DWIDTH 38 0
BBX 32 31 4 4
BITMAP
20002000
70007000
78007800
FC00FC00
FE00FE00
FF00FF00
7F807FC0
3FE03FE0
1FF01FF0
0FF80FF8
07FC07FC
03FE03FE
03FF03FF
01FF01FF
00FF00FF
007F007F
00FF00FF
01FF01FF
03FF03FF
07FE07FE
0FFC0FFC
1FF01FF8
3FE03FE0
7FC03FC0
7F807F80
FF00FF00
FE00FE00
7C007C00
70007000
60002000
40004000
ENDCHAR
STARTCHAR 00BC
ENCODING 188
SWIDTH 847 0
DWIDTH 61 0
BBX 58 50 2 0
BITMAP
03FE00000007E000
07FE0000000FC000
0FFE0000001F8000
1FFE0000003F8000
3FFE0000003F0000
3F7E0000007E0000
7E7E000000FE0000
FC7E000001FC0000
F87E000001F80000
307E000003F00000
207E000007F00000
007E000007E00000
007E00000FC00000
007E00001FC00000
007E00003F800000
007E00003F000000
007E00007E000000
007E0000FE000000
007E0001FC000000
007E0001F8000000
007E0003F0000000
007E0007F0000000
3FFFF807E0000000
3FFFF80FC003FC00
3FFFF81FC003FC00
3FFFF83F8007FC00
0000003F000FFC00
0000007E000FFC00
000000FE001FFC00
000001FC003FFC00
000001F8003EFC00
000003F0007CFC00
000007F000FCFC00
000007E000F8FC00
00000FC001F0FC00
00001FC003F0FC00
00003F8003E0FC00
00003F0007C0FC00
00007E0007C0FC00
0000FE000F80FC00
0001FC001F00FC00
0001F8001FFFFFC0
0003F0001FFFFFC0
0007F0001FFFFFC0
0007E0001FFFFFC0
000FC0000000FC00
001FC0000000FC00
003F80000000FC00
003F00000000FC00
007E00000000FC00
ENDCHAR
STARTCHAR 00BD
ENCODING 189
SWIDTH 847 0
DWIDTH 61 0
BBX 57 50 2 0
BITMAP
03FE0000001FC000
07FE0000001F8000
0FFE0000003F0000
1FFE0000007F0000
3FFE0000007E0000
3F7E000000FC0000
7E7E000001FC0000
FC7E000003F80000
F87E000003F00000
307E000007E00000
207E00000FE00000
007E00001FC00000
007E00001F800000
007E00003F000000
007E00007F000000
007E00007E000000
007E0000FC000000
007E0001FC000000
007E0003F8000000
007E0003F0000000
007E0007E0000000
007E000FE0000000
3FFFF81FC0000000
3FFFF81F803FE000
3FFFF83F00FFF800
3FFFF87F01FFFC00
0000007E03FFFE00
000000FC07F0FF00
000001FC0FE03F00
000003F803C03F00
000003F000803F00
000007E000003F00
00000FE000003F00
00001FC000003F00
00001F8000007E00
00003F000000FE00
00007F000000FC00
00007E000001F800
0000FC000007F000
0001FC00000FE000
0003F800001FC000
0003F000003F0000
0007E00000FE0000
000FE00001FC0000
001FC00003F80000
001F800007F00000
003F000007FFFF80
007F000007FFFF80
007E000007FFFF80
00FC000007FFFF80
ENDCHAR
STARTCHAR 00BE
ENCODING 190
SWIDTH 833 0
DWIDTH 60 0
BBX 57 51 1 0
BITMAP
01FE000000000000
0FFF8000000FE000
1FFFE000000FC000
7FFFF000001F8000
3F07F000003F0000
1C03F000007F0000
0803F800007E0000
0001F80000FC0000
0001F80001FC0000
0001F00003F80000
0003F00003F00000
0007E00007E00000
01FFC0000FE00000
01FF00000FC00000
01FF80001F800000
01FFE0003F000000
0007F0007F000000
0001F8007E000000
0001F800FC000000
0001F801FC000000
1001F803F8000000
1801F803F0000000
7C03F807E0000000
FF07F00FE0000000
7FFFF00FC003FC00
3FFFE01F8007FC00
0FFF803F0007FC00
03FE007F000FFC00
0000007E001FFC00
000000FC001FFC00
000001FC003EFC00
000003F8007EFC00
000003F0007CFC00
000007E000F8FC00
00000FE000F8FC00
00000FC001F0FC00
00001F8003E0FC00
00003F8003E0FC00
00007F0007C0FC00
00007E000F80FC00
0000FC000F80FC00
0001FC001F00FC00
0003F8001FFFFF80
0003F0001FFFFF80
0007E0001FFFFF80
000FE0001FFFFF80
000FC0000000FC00
001F80000000FC00
003F80000000FC00
007F00000000FC00
00FE00000000FC00
ENDCHAR
STARTCHAR 00BF
ENCODING 191
SWIDTH 472 0
DWIDTH 34 0
BBX 32 52 2 -14
BITMAP
0003F000
0007F800
000FFC00
000FFC00
000FFC00
000FFC00
000FFC00
000FFC00
000FFC00
0007F800
0003F000
00000000
00000000
00000000
00000000
00000000
00000000
0007F800
0007F800
0007F800
0007F800
0007F800
0007F800
0007F800
001FF800
007FF800
01FFF800
07FFF800
0FFFF800
1FFF0000
1FF80000
3FE00000
3FC00000
7FC00000
7F800000
7F800000
FF800000
FF800000
FF800060
FF8000FC
7F8000FF
7F8001FE
7FC003FE
7FE007FC
3FF81FFC
3FFFFFF8
1FFFFFF0
0FFFFFF0
07FFFFC0
03FFFF80
00FFFE00
001FF000
ENDCHAR
STARTCHAR 00C0
ENCODING 192
SWIDTH 666 0
DWIDTH 48 0
BBX 44 69 2 0
BITMAP
000030000000
0000F0000000
0003F8000000
000FF8000000
0007FC000000
0003FC000000
0001FE000000
0000FE000000
0000FF000000
00007F000000
00003F800000
00003F800000
00001FC00000
00000F000000
000004000000
000000000000
000000000000
000000000000
000000000000
00007FE00000
0000FFE00000
0000FFF00000
0000FFF00000
0001FFF00000
0001FFF80000
0003FFF80000
0003FBFC0000
0003FBFC0000
0007FBFC0000
0007F1FE0000
0007F1FE0000
000FF0FE0000
000FE0FF0000
000FE0FF0000
001FE07F0000
001FC07F8000
001FC07F8000
003FC03F8000
003F803FC000
003F803FC000
007F801FC000
007F001FE000
007F001FE000
00FF000FE000
00FE000FF000
00FE000FF000
01FE0007F000
01FC0007F800
01FFFFFFF800
03FFFFFFF800
03FFFFFFFC00
03FFFFFFFC00
07FFFFFFFC00
07FFFFFFFE00
07FFFFFFFE00
0FF00001FE00
0FF00000FF00
0FE00000FF00
1FE00000FF00
1FE00000FF80
3FE000007F80
3FC000007FC0
3FC000007FC0
7FC000003FC0
7F8000003FE0
7F8000003FE0
FF8000001FE0
FF0000001FF0
FF0000001FF0
ENDCHAR
STARTCHAR 00C1
ENCODING 193
SWIDTH 666 0
DWIDTH 48 0
BBX 44 69 2 0
BITMAP
000000C00000
000001F00000
000001FC0000
000003FE0000
000003FC0000
000007F80000
000007F80000
00000FF00000
00000FE00000
00001FC00000
00001FC00000
00003F800000
00003F000000
00001F000000
000006000000
000000000000
000000000000
000000000000
000000000000
00007FE00000
0000FFE00000
0000FFF00000
0000FFF00000
0001FFF00000
0001FFF80000
0003FFF80000
0003FBFC0000
0003FBFC0000
0007FBFC0000
0007F1FE0000
0007F1FE0000
000FF0FE0000
000FE0FF0000
000FE0FF0000
001FE07F0000
001FC07F8000
001FC07F8000
003FC03F8000
003F803FC000
003F803FC000
007F801FC000
007F001FE000
007F001FE000
00FF000FE000
00FE000FF000
00FE000FF000
01FE0007F000
01FC0007F800
01FFFFFFF800
03FFFFFFF800
03FFFFFFFC00
03FFFFFFFC00
07FFFFFFFC00
07FFFFFFFE00
07FFFFFFFE00
0FF00001FE00
0FF00000FF00
0FE00000FF00
1FE00000FF00
1FE00000FF80
3FE000007F80
3FC000007FC0
3FC000007FC0
7FC000003FC0
7F8000003FE0
7F8000003FE0
FF8000001FE0
FF0000001FF0
FF0000001FF0
ENDCHAR
STARTCHAR 00C2
ENCODING 194
SWIDTH 666 0
DWIDTH 48 0
BBX 44 68 2 0
BITMAP
00007FC00000
00007FE00000
0000FFF00000
0001FFF00000
0003FFF80000
0007FFFC0000
0007FBFE0000
000FF1FF0000
001FE0FF0000
003FC03F8000
007F801FC000
003F000FC000
001E00070000
000400020000
000000000000
000000000000
000000000000
000000000000
00007FE00000
0000FFE00000
0000FFF00000
0000FFF00000
0001FFF00000
0001FFF80000
0003FFF80000
0003FBFC0000
0003FBFC0000
0007FBFC0000
0007F1FE0000
0007F1FE0000
000FF0FE0000
000FE0FF0000
000FE0FF0000
001FE07F0000
001FC07F8000
001FC07F8000
003FC03F8000
003F803FC000
003F803FC000
007F801FC000
007F001FE000
007F001FE000
00FF000FE000
00FE000FF000
00FE000FF000
01FE0007F000
01FC0007F800
01FFFFFFF800
03FFFFFFF800
03FFFFFFFC00
03FFFFFFFC00
07FFFFFFFC00
07FFFFFFFE00
07FFFFFFFE00
0FF00001FE00
0FF00000FF00
0FE00000FF00
1FE00000FF00
1FE00000FF80
3FE000007F80
3FC000007FC0
3FC000007FC0
7FC000003FC0
7F8000003FE0
7F8000003FE0
FF8000001FE0
FF0000001FF0
FF0000001FF0
ENDCHAR
STARTCHAR 00C3
ENCODING 195
SWIDTH 666 0
DWIDTH 48 0
BBX 44 65 2 0
BITMAP
0007F0000000
000FFC010000
003FFF838000
003FFFFF8000
007FFFFFC000
003FFFFFE000
001C1FFF8000
000803FF0000
000000FC0000
000000000000
000000000000
000000000000
000000000000
000000000000
000000000000
00007FE00000
0000FFE00000
0000FFF00000
0000FFF00000
0001FFF00000
0001FFF80000
0003FFF80000
0003FBFC0000
0003FBFC0000
0007FBFC0000
0007F1FE0000
0007F1FE0000
000FF0FE0000
000FE0FF0000
000FE0FF0000
001FE07F0000
001FC07F8000
001FC07F8000
003FC03F8000
003F803FC000
003F803FC000
007F801FC000
007F001FE000
007F001FE000
00FF000FE000
00FE000FF000
00FE000FF000
01FE0007F000
01FC0007F800
01FFFFFFF800
03FFFFFFF800
03FFFFFFFC00
03FFFFFFFC00
07FFFFFFFC00
07FFFFFFFE00
07FFFFFFFE00
0FF00001FE00
0FF00000FF00
0FE00000FF00
1FE00000FF00
1FE00000FF80
3FE000007F80
3FC000007FC0
3FC000007FC0
7FC000003FC0
7F8000003FE0
7F8000003FE0
FF8000001FE0
FF0000001FF0
FF0000001FF0
ENDCHAR
STARTCHAR 00C4
ENCODING 196
SWIDTH 666 0
DWIDTH 48 0
BBX 44 65 2 0
BITMAP
000F803F0000
001FC07F8000
003FE07F8000
003FE0FF8000
003FE0FFC000
003FE0FF8000
003FE07F8000
001FC07F8000
000F803F0000
000000000000
000000000000
000000000000
000000000000
000000000000
000000000000
00007FE00000
0000FFE00000
0000FFF00000
0000FFF00000
0001FFF00000
0001FFF80000
0003FFF80000
0003FBFC0000
0003FBFC0000
0007FBFC0000
0007F1FE0000
0007F1FE0000
000FF0FE0000
000FE0FF0000
000FE0FF0000
001FE07F0000
001FC07F8000
001FC07F8000
003FC03F8000
003F803FC000
003F803FC000
007F801FC000
007F001FE000
007F001FE000
00FF000FE000
00FE000FF000
00FE000FF000
01FE0007F000
01FC0007F800
01FFFFFFF800
03FFFFFFF800
03FFFFFFFC00
03FFFFFFFC00
07FFFFFFFC00
07FFFFFFFE00
07FFFFFFFE00
0FF00001FE00
0FF00000FF00
0FE00000FF00
1FE00000FF00
1FE00000FF80
3FE000007F80
3FC000007FC0
3FC000007FC0
7FC000003FC0
7F8000003FE0
7F8000003FE0
FF8000001FE0
FF0000001FF0
FF0000001FF0
ENDCHAR
STARTCHAR 00C5
ENCODING 197
SWIDTH 666 0
DWIDTH 48 0
BBX 44 71 2 0
BITMAP
00001F800000
0000FFE00000
0001FFF00000
0003FFF80000
0003F0FC0000
0007E07C0000
0007C03E0000
000FC03E0000
000FC03E0000
000FC03E0000
000FC03E0000
0007C07E0000
0007C07C0000
0003F0FC0000
0003FFF80000
0001FFF00000
0000FFE00000
00003F800000
000000000000
000000000000
000000000000
00007FE00000
0000FFE00000
0000FFF00000
0000FFF00000
0001FFF00000
0001FFF80000
0003FFF80000
0003FBFC0000
0003FBFC0000
0007FBFC0000
0007F1FE0000
0007F1FE0000
000FF0FE0000
000FE0FF0000
000FE0FF0000
001FE07F0000
001FC07F8000
001FC07F8000
003FC03F8000
003F803FC000
003F803FC000
007F801FC000
007F001FE000
007F001FE000
00FF000FE000
00FE000FF000
00FE000FF000
01FE0007F000
01FC0007F800
01FFFFFFF800
03FFFFFFF800
03FFFFFFFC00
03FFFFFFFC00
07FFFFFFFC00
07FFFFFFFE00
07FFFFFFFE00
0FF00001FE00
0FF00000FF00
0FE00000FF00
1FE00000FF00
1FE00000FF80
3FE000007F80
3FC000007FC0
3FC000007FC0
7FC000003FC0
7F8000003FE0
7F8000003FE0
FF8000001FE0
FF0000001FF0
FF0000001FF0
ENDCHAR
STARTCHAR 00C6
ENCODING 198
SWIDTH 930 0
DWIDTH 67 0
BBX 63 50 0 0
BITMAP
0000007FFFFFFFFE
0000007FFFFFFFFE
000000FFFFFFFFFE
000000FFFFFFFFFE
000001FFFFFFFFFE
000001FFFFFFFFFE
000003FFFFFFFFFE
000003F9FE000000
000007F9FE000000
000007F1FE000000
00000FF1FE000000
00000FE1FE000000
00001FE1FE000000
00001FC1FE000000
00003FC1FE000000
00003F81FE000000
00007F81FE000000
00007F01FE000000
0000FF01FE000000
0001FE01FE000000
0001FE01FE000000
0003FC01FFFFFFF8
0003FC01FFFFFFF8
0007F801FFFFFFF8
0007F801FFFFFFF8
000FF001FFFFFFF8
000FF001FFFFFFF8
001FF001FFFFFFF8
001FE001FE000000
003FE001FE000000
003FFFFFFE000000
007FFFFFFE000000
007FFFFFFE000000
00FFFFFFFE000000
00FFFFFFFE000000
01FFFFFFFE000000
01FFFFFFFE000000
03FE0001FE000000
03FC0001FE000000
07FC0001FE000000
07F80001FE000000
0FF80001FE000000
0FF00001FE000000
1FF00001FFFFFFFE
1FE00001FFFFFFFE
3FE00001FFFFFFFE
3FC00001FFFFFFFE
7FC00001FFFFFFFE
7F800001FFFFFFFE
FF800001FFFFFFFE
ENDCHAR
STARTCHAR 00C7
ENCODING 199
SWIDTH 638 0
DWIDTH 46 0
BBX 39 66 4 -15
BITMAP
0000FFC000
0007FFFC00
001FFFFF00
007FFFFF80
00FFFFFFC0
01FFFFFFE0
03FFFFFFF0
07FF807FF8
0FFE001FFC
0FF80007FC
1FF00003FE
1FF00003FC
3FE00001F0
3FC00000E0
7FC0000080
7FC0000000
7F80000000
7F80000000
7F80000000
FF80000000
FF80000000
FF80000000
FF80000000
FF80000000
FF80000000
FF80000000
FF80000000
FF80000000
FF80000000
FF80000000
FF80000000
FF80000000
FF80000000
FF80000000
7F80000000
7F80000000
7FC0000000
7FC00000C0
3FC00000F0
3FE00001F8
3FF00003FE
1FF00003FE
1FF80007FC
0FFE001FFC
07FF807FF8
03FFFFFFF0
03FFFFFFE0
01FFFFFFC0
007FFFFF80
003FFFFF00
000FFFFC00
0001FFE000
00003C0000
00003C0000
00007C0000
00007FE000
00007FF800
000007F800
000001FC00
000000FC00
000080FC00
0001C1FC00
0003FFF800
0007FFF000
0001FFE000
00007F8000
ENDCHAR
STARTCHAR 00C8
ENCODING 200
SWIDTH 597 0
DWIDTH 43 0
BBX 32 69 6 0
BITMAP
000C0000
003E0000
00FE0000
01FF0000
00FF0000
007F8000
007F8000
003FC000
001FC000
000FE000
000FE000
0007F000
0003F000
0003E000
00018000
00000000
00000000
00000000
00000000
FFFFFFFF
FFFFFFFF
FFFFFFFF
FFFFFFFF
FFFFFFFF
FFFFFFFF
FFFFFFFF
FF000000
FF000000
FF000000
FF000000
FF000000
FF000000
FF000000
FF000000
FF000000
FF000000
FF000000
FF000000
FF000000
FF000000
FFFFFFFC
FFFFFFFC
FFFFFFFC
FFFFFFFC
FFFFFFFC
FFFFFFFC
FFFFFFFC
FF000000
FF000000
FF000000
FF000000
FF000000
FF000000
FF000000
FF000000
FF000000
FF000000
FF000000
FF000000
FF000000
FF000000
FF000000
FFFFFFFF
FFFFFFFF
FFFFFFFF
FFFFFFFF
FFFFFFFF
FFFFFFFF
FFFFFFFF
ENDCHAR
STARTCHAR 00C9
ENCODING 201
SWIDTH 597 0
DWIDTH 43 0
BBX 32 69 6 0
BITMAP
00003000
00003C00
00007F00
00007FC0
0000FF80
0000FF00
0001FE00
0001FC00
0003FC00
0003F800
0007F000
0007F000
000FE000
0003C000
00008000
00000000
00000000
00000000
00000000
FFFFFFFF
FFFFFFFF
FFFFFFFF
FFFFFFFF
FFFFFFFF
FFFFFFFF
FFFFFFFF
FF000000
FF000000
FF000000
FF000000
FF000000
FF000000
FF000000
FF000000
FF000000
FF000000
FF000000
FF000000
FF000000
FF000000
FFFFFFFC
FFFFFFFC
FFFFFFFC
FFFFFFFC
FFFFFFFC
FFFFFFFC
FFFFFFFC
FF000000
FF000000
FF000000
FF000000
FF000000
FF000000
FF000000
FF000000
FF000000
FF000000
FF000000
FF000000
FF000000
FF000000
FF000000
FFFFFFFF
FFFFFFFF
FFFFFFFF
FFFFFFFF
FFFFFFFF
FFFFFFFF
FFFFFFFF
ENDCHAR
STARTCHAR 00CA
ENCODING 202
SWIDTH 597 0
DWIDTH 43 0
BBX 32 68 6 0
BITMAP
000FF800
001FF800
003FFC00
007FFE00
007FFF00
00FFFF80
01FF7F80
03FE3FC0
03FC1FE0
07F80FF0
0FE007F8
0FC003F0
038001E0
01000080
00000000
00000000
00000000
00000000
FFFFFFFF
FFFFFFFF
FFFFFFFF
FFFFFFFF
FFFFFFFF
FFFFFFFF
FFFFFFFF
FF000000
FF000000
FF000000
FF000000
FF000000
FF000000
FF000000
FF000000
FF000000
FF000000
FF000000
FF000000
FF000000
FF000000
FFFFFFFC
FFFFFFFC
FFFFFFFC
FFFFFFFC
FFFFFFFC
FFFFFFFC
FFFFFFFC
FF000000
FF000000
FF000000
FF000000
FF000000
FF000000
FF000000
FF000000
FF000000
FF000000
FF000000
FF000000
FF000000
FF000000
FF000000
FFFFFFFF
FFFFFFFF
FFFFFFFF
FFFFFFFF
FFFFFFFF
FFFFFFFF
FFFFFFFF
ENDCHAR
STARTCHAR 00CB
ENCODING 203
SWIDTH 597 0
DWIDTH 43 0
BBX 32 65 6 0
BITMAP
03F007C0
07F80FE0
07F81FF0
0FFC1FF0
0FFC1FF0
07FC1FF0
07F81FF0
07F80FE0
03F007C0
00000000
00000000
00000000
00000000
00000000
00000000
FFFFFFFF
FFFFFFFF
FFFFFFFF
FFFFFFFF
FFFFFFFF
FFFFFFFF
FFFFFFFF
FF000000
FF000000
FF000000
FF000000
FF000000
FF000000
FF000000
FF000000
FF000000
FF000000
FF000000
FF000000
FF000000
FF000000
FFFFFFFC
FFFFFFFC
FFFFFFFC
FFFFFFFC
FFFFFFFC
FFFFFFFC
FFFFFFFC
FF000000
FF000000
FF000000
FF000000
FF000000
FF000000
FF000000
FF000000
FF000000
FF000000
FF000000
FF000000
FF000000
FF000000
FF000000
FFFFFFFF
FFFFFFFF
FFFFFFFF
FFFFFFFF
FFFFFFFF
FFFFFFFF
FFFFFFFF
ENDCHAR
STARTCHAR 00CC
ENCODING 204
SWIDTH 416 0
DWIDTH 30 0
BBX 22 69 4 0
BITMAP
018000
078000
1FC000
3FC000
1FE000
1FE000
0FF000
07F000
03F800
03F800
01FC00
00FC00
00FE00
007800
002000
000000
000000
000000
000000
FFFFFC
FFFFFC
FFFFFC
FFFFFC
FFFFFC
FFFFFC
FFFFFC
01FE00
01FE00
01FE00
01FE00
01FE00
01FE00
01FE00
01FE00
01FE00
01FE00
01FE00
01FE00
01FE00
01FE00
01FE00
01FE00
01FE00
01FE00
01FE00
01FE00
01FE00
01FE00
01FE00
01FE00
01FE00
01FE00
01FE00
01FE00
01FE00
01FE00
01FE00
01FE00
01FE00
01FE00
01FE00
01FE00
FFFFFC
FFFFFC
FFFFFC
FFFFFC
FFFFFC
FFFFFC
FFFFFC
ENDCHAR
STARTCHAR 00CD
ENCODING 205
SWIDTH 416 0
DWIDTH 30 0
BBX 22 69 4 0
BITMAP
000600
000780
000FE0
000FF0
001FE0
003FE0
003FC0
007F80
007F00
00FF00
00FE00
01FC00
01FC00
007800
001000
000000
000000
000000
000000
FFFFFC
FFFFFC
FFFFFC
FFFFFC
FFFFFC
FFFFFC
FFFFFC
01FE00
01FE00
01FE00
01FE00
01FE00
01FE00
01FE00
01FE00
01FE00
01FE00
01FE00
01FE00
01FE00
01FE00
01FE00
01FE00
01FE00
01FE00
01FE00
01FE00
01FE00
01FE00
01FE00
01FE00
01FE00
01FE00
01FE00
01FE00
01FE00
01FE00
01FE00
01FE00
01FE00
01FE00
01FE00
01FE00
FFFFFC
FFFFFC
FFFFFC
FFFFFC
FFFFFC
FFFFFC
FFFFFC
ENDCHAR
STARTCHAR 00CE
ENCODING 206
SWIDTH 416 0
DWIDTH 30 0
BBX 26 68 2 0
BITMAP
007F8000
00FFC000
01FFE000
03FFF000
07FFF000
07FFF800
0FF7FC00
1FE1FE00
3FC0FF00
7F807F00
7F003F80
FE001FC0
3C000F00
08000400
00000000
00000000
00000000
00000000
3FFFFF00
3FFFFF00
3FFFFF00
3FFFFF00
3FFFFF00
3FFFFF00
3FFFFF00
007F8000
007F8000
007F8000
007F8000
007F8000
007F8000
007F8000
007F8000
007F8000
007F8000
007F8000
007F8000
007F8000
007F8000
007F8000
007F8000
007F8000
007F8000
007F8000
007F8000
007F8000
007F8000
007F8000
007F8000
007F8000
007F8000
007F8000
007F8000
007F8000
007F8000
007F8000
007F8000
007F8000
007F8000
007F8000
007F8000
3FFFFF00
3FFFFF00
3FFFFF00
3FFFFF00
3FFFFF00
3FFFFF00
3FFFFF00
ENDCHAR
STARTCHAR 00CF
ENCODING 207
SWIDTH 416 0
DWIDTH 30 0
BBX 24 65 3 0
BITMAP
3E007C
7F81FE
FF81FF
FF81FF
FF81FF
FF81FF
FF81FF
7F81FE
3E007C
000000
000000
000000
000000
000000
000000
7FFFFE
7FFFFE
7FFFFE
7FFFFE
7FFFFE
7FFFFE
7FFFFE
00FF00
00FF00
00FF00
00FF00
00FF00
00FF00
00FF00
00FF00
00FF00
00FF00
00FF00
00FF00
00FF00
00FF00
00FF00
00FF00
00FF00
00FF00
00FF00
00FF00
00FF00
00FF00
00FF00
00FF00
00FF00
00FF00
00FF00
00FF00
00FF00
00FF00
00FF00
00FF00
00FF00
00FF00
00FF00
00FF00
7FFFFE
7FFFFE
7FFFFE
7FFFFE
7FFFFE
7FFFFE
7FFFFE
ENDCHAR
STARTCHAR 00D0
ENCODING 208
SWIDTH 680 0
DWIDTH 49 0
BBX 45 50 1 0
BITMAP
07FFFFF00000
07FFFFFF0000
07FFFFFFC000
07FFFFFFF000
07FFFFFFF800
07FFFFFFFC00
07FFFFFFFE00
07FC001FFF00
07FC0003FF00
07FC0001FF80
07FC0000FFC0
07FC00007FC0
07FC00003FC0
07FC00003FE0
07FC00001FE0
07FC00001FE0
07FC00001FF0
07FC00000FF0
07FC00000FF0
07FC00000FF0
FFFFFE000FF0
FFFFFE000FF0
FFFFFE000FF0
FFFFFE000FF0
FFFFFE000FF0
FFFFFE000FF8
FFFFFE000FF0
07FC00000FF0
07FC00000FF0
07FC00000FF0
07FC00000FF0
07FC00000FF0
07FC00000FF0
07FC00001FF0
07FC00001FE0
07FC00001FE0
07FC00003FE0
07FC00003FC0
07FC00007FC0
07FC0000FFC0
07FC0001FF80
07FC0003FF00
07FC001FFF00
07FFFFFFFE00
07FFFFFFFC00
07FFFFFFF800
07FFFFFFF000
07FFFFFFC000
07FFFFFF0000
07FFFFF80000
ENDCHAR
STARTCHAR 00D1
ENCODING 209
SWIDTH 708 0
DWIDTH 51 0
BBX 39 65 6 0
BITMAP
001F800000
003FF00400
00FFFE1E00
01FFFFFE00
01FFFFFF00
00FFFFFF00
00707FFE00
00601FFC00
000003F000
0000000000
0000000000
0000000000
0000000000
0000000000
0000000000
FFC00001FE
FFC00001FE
FFE00001FE
FFE00001FE
FFF00001FE
FFF80001FE
FFF80001FE
FFFC0001FE
FFFC0001FE
FFFE0001FE
FFFF0001FE
FFFF0001FE
FF7F8001FE
FF7F8001FE
FF3FC001FE
FF3FC001FE
FF1FE001FE
FF1FF001FE
FF0FF001FE
FF0FF801FE
FF07F801FE
FF07FC01FE
FF03FE01FE
FF03FE01FE
FF01FF01FE
FF00FF01FE
FF00FF81FE
FF007FC1FE
FF007FC1FE
FF003FE1FE
FF001FE1FE
FF001FF1FE
FF000FF1FE
FF000FF9FE
FF0007F9FE
FF0003FDFE
FF0003FDFE
FF0001FFFE
FF0001FFFE
FF0000FFFE
FF0000FFFE
FF00007FFE
FF00003FFE
FF00003FFE
FF00001FFE
FF00001FFE
FF00000FFE
FF000007FE
FF000007FE
FF000003FE
ENDCHAR
STARTCHAR 00D2
ENCODING 210
SWIDTH 708 0
DWIDTH 51 0
BBX 43 70 4 -1
BITMAP
000030000000
0000F0000000
0007F8000000
000FF8000000
0007FC000000
0003FC000000
0001FE000000
0000FE000000
0000FF000000
00007F000000
00003F800000
00003F800000
00001FC00000
00000F000000
00000C000000
000000000000
000000000000
000000000000
00007FE00000
0007FFFC0000
001FFFFF0000
007FFFFFC000
00FFFFFFE000
01FFFFFFF000
03FFFFFFF800
07FFC07FFC00
0FFE000FFE00
0FFC0007FE00
1FF80001FF00
1FF00001FF00
3FE00000FF80
3FE000007F80
3FC000007FC0
7FC000003FC0
7F8000003FC0
7F8000003FC0
7F8000003FE0
FF8000003FE0
FF8000001FE0
FF8000001FE0
FF8000001FE0
FF8000001FE0
FF8000001FE0
FF8000001FE0
FF8000001FE0
FF8000001FE0
FF8000001FE0
FF8000001FE0
FF8000001FE0
FF8000001FE0
FF8000003FE0
7F8000003FE0
7F8000003FC0
7F8000003FC0
7FC000003FC0
3FC000007FC0
3FE000007F80
3FE00000FF80
1FF00001FF00
1FF80001FF00
0FFC0007FE00
0FFE000FFE00
07FFC07FFC00
03FFFFFFF800
01FFFFFFF000
00FFFFFFE000
007FFFFFC000
001FFFFF0000
0007FFFC0000
0000FFE00000
ENDCHAR
STARTCHAR 00D3
ENCODING 211
SWIDTH 708 0
DWIDTH 51 0
BBX 43 70 4 -1
BITMAP
000000C00000
000001F00000
000001FC0000
000003FE0000
000003FC0000
000007F80000
000007F00000
00000FF00000
00000FE00000
00001FC00000
00001FC00000
00003F800000
00003F000000
00001E000000
000006000000
000000000000
000000000000
000000000000
00007FE00000
0007FFFC0000
001FFFFF0000
007FFFFFC000
00FFFFFFE000
01FFFFFFF000
03FFFFFFF800
07FFC07FFC00
0FFE000FFE00
0FFC0007FE00
1FF80001FF00
1FF00001FF00
3FE00000FF80
3FE000007F80
3FC000007FC0
7FC000003FC0
7F8000003FC0
7F8000003FC0
7F8000003FE0
FF8000003FE0
FF8000001FE0
FF8000001FE0
FF8000001FE0
FF8000001FE0
FF8000001FE0
FF8000001FE0
FF8000001FE0
FF8000001FE0
FF8000001FE0
FF8000001FE0
FF8000001FE0
FF8000001FE0
FF8000003FE0
7F8000003FE0
7F8000003FC0
7F8000003FC0
7FC000003FC0
3FC000007FC0
3FE000007F80
3FE00000FF80
1FF00001FF00
1FF80001FF00
0FFC0007FE00
0FFE000FFE00
07FFC07FFC00
03FFFFFFF800
01FFFFFFF000
00FFFFFFE000
007FFFFFC000
001FFFFF0000
0007FFFC0000
0000FFE00000
ENDCHAR
STARTCHAR 00D4
ENCODING 212
SWIDTH 708 0
DWIDTH 51 0
BBX 43 69 4 -1
BITMAP
00007FC00000
0000FFE00000
0000FFF00000
0001FFF00000
0003FFF80000
0007FFFC0000
0007FBFE0000
000FF1FF0000
001FE0FF0000
003FC07F8000
007F803FC000
003F000FC000
001E00070000
000C00020000
000000000000
000000000000
000000000000
00007FE00000
0007FFFC0000
001FFFFF0000
007FFFFFC000
00FFFFFFE000
01FFFFFFF000
03FFFFFFF800
07FFC07FFC00
0FFE000FFE00
0FFC0007FE00
1FF80001FF00
1FF00001FF00
3FE00000FF80
3FE000007F80
3FC000007FC0
7FC000003FC0
7F8000003FC0
7F8000003FC0
7F8000003FE0
FF8000003FE0
FF8000001FE0
FF8000001FE0
FF8000001FE0
FF8000001FE0
FF8000001FE0
FF8000001FE0
FF8000001FE0
FF8000001FE0
FF8000001FE0
FF8000001FE0
FF8000001FE0
FF8000001FE0
FF8000003FE0
7F8000003FE0
7F8000003FC0
7F8000003FC0
7FC000003FC0
3FC000007FC0
3FE000007F80
3FE00000FF80
1FF00001FF00
1FF80001FF00
0FFC0007FE00
0FFE000FFE00
07FFC07FFC00
03FFFFFFF800
01FFFFFFF000
00FFFFFFE000
007FFFFFC000
001FFFFF0000
0007FFFC0000
0000FFE00000
ENDCHAR
STARTCHAR 00D5
ENCODING 213
SWIDTH 708 0
DWIDTH 51 0
BBX 43 66 4 -1
BITMAP
0007E0000000
001FFC010000
003FFF078000
007FFFFF8000
007FFFFFC000
003FFFFFC000
001C1FFF8000
001007FF0000
000000FC0000
000000000000
000000000000
000000000000
000000000000
000000000000
00007FE00000
0007FFFC0000
001FFFFF0000
007FFFFFC000
00FFFFFFE000
01FFFFFFF000
03FFFFFFF800
07FFC07FFC00
0FFE000FFE00
0FFC0007FE00
1FF80001FF00
1FF00001FF00
3FE00000FF80
3FE000007F80
3FC000007FC0
7FC000003FC0
7F8000003FC0
7F8000003FC0
7F8000003FE0
FF8000003FE0
FF8000001FE0
FF8000001FE0
FF8000001FE0
FF8000001FE0
FF8000001FE0
FF8000001FE0
FF8000001FE0
FF8000001FE0
FF8000001FE0
FF8000001FE0
FF8000001FE0
FF8000001FE0
FF8000003FE0
7F8000003FE0
7F8000003FC0
7F8000003FC0
7FC000003FC0
3FC000007FC0
3FE000007F80
3FE00000FF80
1FF00001FF00
1FF80001FF00
0FFC0007FE00
0FFE000FFE00
07FFC07FFC00
03FFFFFFF800
01FFFFFFF000
00FFFFFFE000
007FFFFFC000
001FFFFF0000
0007FFFC0000
0000FFE00000
ENDCHAR
STARTCHAR 00D6
ENCODING 214
SWIDTH 708 0
DWIDTH 51 0
BBX 43 66 4 -1
BITMAP
000F803E0000
001FC07F8000
003FE0FF8000
003FE0FF8000
003FE0FF8000
003FE0FF8000
003FE0FF8000
001FC07F8000
000F803F0000
000000000000
000000000000
000000000000
000000000000
000000000000
00007FE00000
0007FFFC0000
001FFFFF0000
007FFFFFC000
00FFFFFFE000
01FFFFFFF000
03FFFFFFF800
07FFC07FFC00
0FFE000FFE00
0FFC0007FE00
1FF80001FF00
1FF00001FF00
3FE00000FF80
3FE000007F80
3FC000007FC0
7FC000003FC0
7F8000003FC0
7F8000003FC0
7F8000003FE0
FF8000003FE0
FF8000001FE0
FF8000001FE0
FF8000001FE0
FF8000001FE0
FF8000001FE0
FF8000001FE0
FF8000001FE0
FF8000001FE0
FF8000001FE0
FF8000001FE0
FF8000001FE0
FF8000001FE0
FF8000003FE0
7F8000003FE0
7F8000003FC0
7F8000003FC0
7FC000003FC0
3FC000007FC0
3FE000007F80
3FE00000FF80
1FF00001FF00
1FF80001FF00
0FFC0007FE00
0FFE000FFE00
07FFC07FFC00
03FFFFFFF800
01FFFFFFF000
00FFFFFFE000
007FFFFFC000
001FFFFF0000
0007FFFC0000
0000FFE00000
ENDCHAR
STARTCHAR 00D7
ENCODING 215
SWIDTH 597 0
DWIDTH 43 0
BBX 31 32 6 6
BITMAP
08000020
1C000070
3E0000F8
7F0001FC
FF8003FE
7FC007FC
3FE00FF8
1FF01FF0
0FF83FE0
07FC7FC0
03FEFF80
01FFFF00
00FFFE00
007FFC00
003FF800
001FF000
003FF800
007FFC00
00FFFE00
01FFFF00
03FEFF80
07FE7FC0
07FC3FE0
0FF81FF0
1FF00FF8
3FE007FC
7FC003FE
FF8003FE
3F0001FC
1E0000F8
0C000060
08000040
ENDCHAR
STARTCHAR 00D8
ENCODING 216
SWIDTH 708 0
DWIDTH 51 0
BBX 43 58 4 -4
BITMAP
000000000400
000000000600
000000000F80
00007FE01FC0
0007FFFC1FE0
001FFFFF3F80
007FFFFFFF80
00FFFFFFFF00
01FFFFFFFE00
03FFFFFFFE00
07FFC07FFC00
0FFE000FFE00
0FFC0007FE00
1FF80007FF00
1FF0000FFF00
3FE0001FFF80
3FC0001FFF80
3FC0003FFFC0
7F80007F3FC0
7F80007E3FC0
7F8000FE3FC0
7F8001FC1FE0
FF8001F81FE0
FF0003F81FE0
FF0007F01FE0
FF0007E01FE0
FF000FE01FE0
FF001FC01FE0
FF001F801FE0
FF003F801FE0
FF007F001FE0
FF007E001FE0
FF00FE001FE0
FF01FC001FE0
FF03F8001FE0
FF83F8001FE0
7F87F0001FE0
7F8FE0003FC0
7F8FE0003FC0
7F9FC0003FC0
3FFF80007FC0
3FFF80007F80
3FFF0000FF80
1FFE0000FF00
1FFE0001FF00
0FFC0003FE00
0FFE000FFE00
07FFC07FFC00
07FFFFFFF800
0FFFFFFFF000
1FFFFFFFE000
1FFFFFFFC000
3F9FFFFF0000
7F87FFFC0000
7F00FFE00000
3E0000000000
0E0000000000
040000000000
ENDCHAR
STARTCHAR 00D9
ENCODING 217
SWIDTH 680 0
DWIDTH 49 0
BBX 37 70 6 -1
BITMAP
0001800000
0007800000
001FC00000
007FC00000
003FE00000
001FE00000
000FF00000
0007F00000
0007F80000
0003F80000
0001FC0000
0001FC0000
0000FE0000
0000780000
0000200000
0000000000
0000000000
0000000000
0000000000
FF000007F8
FF000007F8
FF000007F8
FF000007F8
FF000007F8
FF000007F8
FF000007F8
FF000007F8
FF000007F8
FF000007F8
FF000007F8
FF000007F8
FF000007F8
FF000007F8
FF000007F8
FF000007F8
FF000007F8
FF000007F8
FF000007F8
FF000007F8
FF000007F8
FF000007F8
FF000007F8
FF000007F8
FF000007F8
FF000007F8
FF000007F8
FF000007F8
FF000007F8
FF000007F8
FF000007F8
FF000007F8
FF000007F8
FF000007F8
FF000007F8
FF000007F8
FF000007F8
7F800007F8
7F80000FF8
7FC0000FF0
7FC0001FF0
3FE0003FF0
3FF0007FE0
1FFE01FFE0
1FFFFFFFC0
0FFFFFFF80
07FFFFFF80
03FFFFFF00
01FFFFFC00
007FFFF000
0007FF0000
ENDCHAR
STARTCHAR 00DA
ENCODING 218
SWIDTH 680 0
DWIDTH 49 0
BBX 37 70 6 -1
BITMAP
0000060000
00000F8000
00000FE000
00001FF000
00001FE000
00003FC000
00003FC000
00007F8000
00007F0000
0000FE0000
0000FE0000
0001FC0000
0001F80000
0000F80000
0000300000
0000000000
0000000000
0000000000
0000000000
FF000007F8
FF000007F8
FF000007F8
FF000007F8
FF000007F8
FF000007F8
FF000007F8
FF000007F8
FF000007F8
FF000007F8
FF000007F8
FF000007F8
FF000007F8
FF000007F8
FF000007F8
FF000007F8
FF000007F8
FF000007F8
FF000007F8
FF000007F8
FF000007F8
FF000007F8
FF000007F8
FF000007F8
FF000007F8
FF000007F8
FF000007F8
FF000007F8
FF000007F8
FF000007F8
FF000007F8
FF000007F8
FF000007F8
FF000007F8
FF000007F8
FF000007F8
FF000007F8
7F800007F8
7F80000FF8
7FC0000FF0
7FC0001FF0
3FE0003FF0
3FF0007FE0
1FFE01FFE0
1FFFFFFFC0
0FFFFFFF80
07FFFFFF80
03FFFFFF00
01FFFFFC00
007FFFF000
0007FF0000
ENDCHAR
STARTCHAR 00DB
ENCODING 219
SWIDTH 680 0
DWIDTH 49 0
BBX 37 69 6 -1
BITMAP
0003FE0000
0003FF0000
0007FF8000
000FFF8000
001FFFC000
003FFFE000
003FDFF000
007F8FF800
00FF07F800
01FE03FC00
03FC00FE00
01F8007E00
00F0003800
0060001000
0000000000
0000000000
0000000000
0000000000
FF000007F8
FF000007F8
FF000007F8
FF000007F8
FF000007F8
FF000007F8
FF000007F8
FF000007F8
FF000007F8
FF000007F8
FF000007F8
FF000007F8
FF000007F8
FF000007F8
FF000007F8
FF000007F8
FF000007F8
FF000007F8
FF000007F8
FF000007F8
FF000007F8
FF000007F8
FF000007F8
FF000007F8
FF000007F8
FF000007F8
FF000007F8
FF000007F8
FF000007F8
FF000007F8
FF000007F8
FF000007F8
FF000007F8
FF000007F8
FF000007F8
FF000007F8
FF000007F8
7F800007F8
7F80000FF8
7FC0000FF0
7FC0001FF0
3FE0003FF0
3FF0007FE0
1FFE01FFE0
1FFFFFFFC0
0FFFFFFF80
07FFFFFF80
03FFFFFF00
01FFFFFC00
007FFFF000
0007FF0000
ENDCHAR
STARTCHAR 00DC
ENCODING 220
SWIDTH 680 0
DWIDTH 49 0
BBX 37 66 6 -1
BITMAP
007C01F800
00FE03FC00
01FF03FC00
01FF07FC00
01FF07FC00
01FF07FC00
01FF03FC00
00FE03FC00
007C01F000
0000000000
0000000000
0000000000
0000000000
0000000000
0000000000
FF000007F8
FF000007F8
FF000007F8
FF000007F8
FF000007F8
FF000007F8
FF000007F8
FF000007F8
FF000007F8
FF000007F8
FF000007F8
FF000007F8
FF000007F8
FF000007F8
FF000007F8
FF000007F8
FF000007F8
FF000007F8
FF000007F8
FF000007F8
FF000007F8
FF000007F8
FF000007F8
FF000007F8
FF000007F8
FF000007F8
FF000007F8
FF000007F8
FF000007F8
FF000007F8
FF000007F8
FF000007F8
FF000007F8
FF000007F8
FF000007F8
FF000007F8
FF000007F8
7F800007F8
7F80000FF8
7FC0000FF0
7FC0001FF0
3FE0003FF0
3FF0007FE0
1FFE01FFE0
1FFFFFFFC0
0FFFFFFF80
07FFFFFF80
03FFFFFF00
01FFFFFC00
007FFFF000
0007FF0000
ENDCHAR
STARTCHAR 00DD
ENCODING 221
SWIDTH 611 0
DWIDTH 44 0
BBX 43 69 1 0
BITMAP
000001800000
000001E00000
000003F80000
000003FE0000
000007FC0000
000007F80000
00000FF00000
00000FE00000
00001FE00000
00001FC00000
00003F800000
00003F800000
00007F000000
00001E000000
000004000000
000000000000
000000000000
000000000000
000000000000
FF8000007FE0
7FC000007FC0
7FC00000FF80
3FE00000FF80
3FF00001FF00
1FF00001FE00
0FF80003FE00
0FF80003FC00
07FC0007FC00
07FC000FF800
03FE000FF800
03FE001FF000
01FF001FE000
00FF803FE000
00FF803FC000
007FC07FC000
007FC07F8000
003FE0FF0000
003FE1FF0000
001FF1FE0000
000FF3FE0000
000FFBFC0000
0007FFFC0000
0007FFF80000
0003FFF00000
0003FFF00000
0001FFE00000
0000FFE00000
0000FFC00000
00007F800000
00007F800000
00007F800000
00007F800000
00007F800000
00007F800000
00007F800000
00007F800000
00007F800000
00007F800000
00007F800000
00007F800000
00007F800000
00007F800000
00007F800000
00007F800000
00007F800000
00007F800000
00007F800000
00007F800000
00007F800000
ENDCHAR
STARTCHAR 00DE
ENCODING 222
SWIDTH 625 0
DWIDTH 45 0
BBX 36 50 6 0
BITMAP
FF00000000
FF00000000
FF00000000
FF00000000
FF00000000
FF00000000
FF00000000
FF00000000
FF00000000
FF00000000
FFFFFFC000
FFFFFFF800
FFFFFFFE00
FFFFFFFF00
FFFFFFFF80
FFFFFFFFC0
FFFFFFFFC0
FF0000FFE0
FF00003FE0
FF00001FF0
FF00001FF0
FF00000FF0
FF00000FF0
FF00000FF0
FF00000FF0
FF00000FF0
FF00000FF0
FF00000FF0
FF00000FF0
FF00001FF0
FF00001FF0
FF00003FE0
FF0000FFE0
FFFFFFFFC0
FFFFFFFFC0
FFFFFFFF80
FFFFFFFF00
FFFFFFFE00
FFFFFFF800
FFFFFFC000
FF00000000
FF00000000
FF00000000
FF00000000
FF00000000
FF00000000
FF00000000
FF00000000
FF00000000
FF00000000
ENDCHAR
STARTCHAR 00DF
ENCODING 223
SWIDTH 666 0
DWIDTH 48 0
BBX 44 55 2 -1
BITMAP
00003FE00000
0003FFFC0000
000FFFFF0000
001FFFFFC000
003FFFFFE000
007FFFFFF000
00FFFFFFF000
00FFE03FF800
01FF800FF800
01FF0007FC00
03FE0003FC00
03FC0001FC00
03FC0001FE00
03FC0001FE00
03FC0001FE00
03F80001FE00
03F80007FE00
FFF8003FFE00
FFF800FFFE00
FFF801FFFE00
FFF803FFFE00
FFF807FE0000
FFF807F80000
FFF80FF00000
03F80FE00000
03F80FE00000
03F80FE00000
03F80FE00000
03F80FF00000
03F80FF80000
03F80FFE0000
03F807FFC000
03F807FFF800
03F803FFFE00
03F801FFFF00
03F8007FFFC0
03F8001FFFC0
03F80003FFE0
03F800007FE0
03F800001FE0
03F800000FF0
03F800000FF0
03F800000FF0
03F800000FF0
03F806000FF0
03F80F000FE0
03F81F801FE0
03F83FE07FE0
03F87FFFFFC0
03F83FFFFFC0
03F81FFFFF80
03F80FFFFF00
03F807FFFE00
03F801FFF800
0000003FE000
ENDCHAR
STARTCHAR 00E0
ENCODING 224
SWIDTH 555 0
DWIDTH 40 0
BBX 34 58 3 -1
BITMAP
000C000000
007C000000
01FE000000
03FE000000
00FF000000
00FF000000
007F800000
003F800000
003FC00000
001FC00000
000FE00000
000FE00000
0007F00000
0003C00000
0001000000
0000000000
0000000000
0000000000
0000000000
001FF80000
00FFFF0000
03FFFFC000
07FFFFE000
1FFFFFF000
1FFFFFF800
3FFFFFF800
7FE01FFC00
1F8007FC00
0F0003FC00
060003FC00
000003FC00
000001FC00
000001FC00
000001FC00
000001FC00
003FFFFC00
01FFFFFC00
07FFFFFC00
1FFFFFFC00
3FFFFFFC00
7FF001FC00
7FC001FC00
FF8001FC00
FF0001FC00
FF0001FC00
FF0001FC00
FF0003FC00
FF0003FC00
FF0007FC00
FF800FFC00
FFE03FFFC0
7FFFFCFFC0
7FFFFCFFC0
3FFFF8FFC0
1FFFF87FC0
0FFFF03FC0
07FFC01FC0
00FF000000
ENDCHAR
STARTCHAR 00E1
ENCODING 225
SWIDTH 555 0
DWIDTH 40 0
BBX 34 58 3 -1
BITMAP
0000300000
00007C0000
00007F0000
0000FF8000
0000FF0000
0001FE0000
0001FE0000
0003FC0000
0003F80000
0007F00000
0007F00000
000FE00000
000FC00000
0007C00000
0001800000
0000000000
0000000000
0000000000
0000000000
001FF80000
00FFFF0000
03FFFFC000
07FFFFE000
1FFFFFF000
1FFFFFF800
3FFFFFF800
7FE01FFC00
1F8007FC00
0F0003FC00
060003FC00
000003FC00
000001FC00
000001FC00
000001FC00
000001FC00
003FFFFC00
01FFFFFC00
07FFFFFC00
1FFFFFFC00
3FFFFFFC00
7FF001FC00
7FC001FC00
FF8001FC00
FF0001FC00
FF0001FC00
FF0001FC00
FF0003FC00
FF0003FC00
FF0007FC00
FF800FFC00
FFE03FFFC0
7FFFFCFFC0
7FFFFCFFC0
3FFFF8FFC0
1FFFF87FC0
0FFFF03FC0
07FFC01FC0
00FF000000
ENDCHAR
STARTCHAR 00E2
ENCODING 226
SWIDTH 555 0
DWIDTH 40 0
BBX 34 57 3 -1
BITMAP
001FF00000
001FF80000
003FFC0000
007FFC0000
00FFFE0000
01FFFF0000
01FEFF8000
03FC7FC000
07F83FC000
0FF01FE000
1FE007F000
0FC003F000
078001C000
0100008000
0000000000
0000000000
0000000000
0000000000
001FF80000
00FFFF0000
03FFFFC000
07FFFFE000
1FFFFFF000
1FFFFFF800
3FFFFFF800
7FE01FFC00
1F8007FC00
0F0003FC00
060003FC00
000003FC00
000001FC00
000001FC00
000001FC00
000001FC00
003FFFFC00
01FFFFFC00
07FFFFFC00
1FFFFFFC00
3FFFFFFC00
7FF001FC00
7FC001FC00
FF8001FC00
FF0001FC00
FF0001FC00
FF0001FC00
FF0003FC00
FF0003FC00
FF0007FC00
FF800FFC00
FFE03FFFC0
7FFFFCFFC0
7FFFFCFFC0
3FFFF8FFC0
1FFFF87FC0
0FFFF03FC0
07FFC01FC0
00FF000000
ENDCHAR
STARTCHAR 00E3
ENCODING 227
SWIDTH 555 0
DWIDTH 40 0
BBX 34 54 3 -1
BITMAP
01FC000000
03FF004000
0FFFE1E000
1FFFFFE000
1FFFFFF000
0FFFFFF000
0707FFE000
0201FFC000
00003F0000
0000000000
0000000000
0000000000
0000000000
0000000000
0000000000
001FF80000
00FFFF0000
03FFFFC000
07FFFFE000
1FFFFFF000
1FFFFFF800
3FFFFFF800
7FE01FFC00
1F8007FC00
0F0003FC00
060003FC00
000003FC00
000001FC00
000001FC00
000001FC00
000001FC00
003FFFFC00
01FFFFFC00
07FFFFFC00
1FFFFFFC00
3FFFFFFC00
7FF001FC00
7FC001FC00
FF8001FC00
FF0001FC00
FF0001FC00
FF0001FC00
FF0003FC00
FF0003FC00
FF0007FC00
FF800FFC00
FFE03FFFC0
7FFFFCFFC0
7FFFFCFFC0
3FFFF8FFC0
1FFFF87FC0
0FFFF03FC0
07FFC01FC0
00FF000000
ENDCHAR
STARTCHAR 00E4
ENCODING 228
SWIDTH 555 0
DWIDTH 40 0
BBX 34 54 3 -1
BITMAP
03E00FC000
07F01FE000
0FF81FE000
0FF83FE000
0FF83FE000
0FF83FE000
0FF81FE000
07F01FE000
03E00FC000
0000000000
0000000000
0000000000
0000000000
0000000000
0000000000
001FF80000
00FFFF0000
03FFFFC000
07FFFFE000
1FFFFFF000
1FFFFFF800
3FFFFFF800
7FE01FFC00
1F8007FC00
0F0003FC00
060003FC00
000003FC00
000001FC00
000001FC00
000001FC00
000001FC00
003FFFFC00
01FFFFFC00
07FFFFFC00
1FFFFFFC00
3FFFFFFC00
7FF001FC00
7FC001FC00
FF8001FC00
FF0001FC00
FF0001FC00
FF0001FC00
FF0003FC00
FF0003FC00
FF0007FC00
FF800FFC00
FFE03FFFC0
7FFFFCFFC0
7FFFFCFFC0
3FFFF8FFC0
1FFFF87FC0
0FFFF03FC0
07FFC01FC0
00FF000000
ENDCHAR
STARTCHAR 00E5
ENCODING 229
SWIDTH 555 0
DWIDTH 40 0
BBX 34 60 3 -1
BITMAP
0007E00000
003FF80000
007FFC0000
00FFFE0000
00F83F0000
01F01F0000
01F00F8000
03F00F8000
03F00F8000
03F00F8000
03F00F8000
01F00F8000
01F01F0000
00F83F0000
00FFFE0000
007FFC0000
003FF80000
000FE00000
0000000000
0000000000
0000000000
001FF80000
00FFFF0000
03FFFFC000
07FFFFE000
1FFFFFF000
1FFFFFF800
3FFFFFF800
7FE01FFC00
1F8007FC00
0F0003FC00
060003FC00
000003FC00
000001FC00
000001FC00
000001FC00
000001FC00
003FFFFC00
01FFFFFC00
07FFFFFC00
1FFFFFFC00
3FFFFFFC00
7FF001FC00
7FC001FC00
FF8001FC00
FF0001FC00
FF0001FC00
FF0001FC00
FF0003FC00
FF0003FC00
FF0007FC00
FF800FFC00
FFE03FFFC0
7FFFFCFFC0
7FFFFCFFC0
3FFFF8FFC0
1FFFF87FC0
0FFFF03FC0
07FFC01FC0
00FF000000
ENDCHAR
STARTCHAR 00E6
ENCODING 230
SWIDTH 861 0
DWIDTH 62 0
BBX 56 39 3 -1
BITMAP
001FE0000FF000
00FFFC007FFE00
03FFFE01FFFF80
07FFFF03FFFFC0
1FFFFF87FFFFE0
1FFFFFCFFFFFF0
3FFFFFCFFFFFF8
7FE01FFFF01FFC
1F800FFFC007FC
0F0007FF8003FE
060003FF0001FE
040003FE0001FE
000001FE0000FF
000001FE0000FF
000001FE0000FF
000001FC0000FF
003FFFFFFFFFFF
01FFFFFFFFFFFF
07FFFFFFFFFFFF
1FFFFFFFFFFFFF
3FFFFFFFFFFFFF
3FF001FC000000
7FC001FC000000
7F8001FE000000
FF0001FE000000
FF0001FE000000
FF0001FE000040
FF0003FF000020
FF0003FF000070
FF0007FF8000F8
FF800FBFE003FC
FFE03F9FF80FFE
7FFFFF9FFFFFFC
7FFFFF0FFFFFF8
3FFFFE07FFFFF0
1FFFFC03FFFFE0
0FFFF801FFFFC0
07FFE0007FFF00
00FF00000FF800
ENDCHAR
STARTCHAR 00E7
ENCODING 231
SWIDTH 513 0
DWIDTH 37 0
BBX 32 53 3 -15
BITMAP
0007FC00
003FFF00
00FFFFC0
03FFFFE0
07FFFFF0
0FFFFFF8
0FFFFFFC
1FFC0FFE
3FF003FE
3FE001FF
3FC000FC
7F800070
7F800080
7F800000
FF000000
FF000000
FF000000
FF000000
FF000000
FF000000
FF000000
FF000000
FF000000
FF000000
FF000000
7F800000
7F800020
7F800078
7FC000FE
3FE001FF
3FF003FE
1FFC0FFE
1FFFFFFC
0FFFFFF8
07FFFFF0
03FFFFE0
01FFFFC0
007FFF80
000FFC00
0003C000
0003C000
0003C000
0003FE00
0007FF80
00003FC0
00001FC0
00000FC0
00080FC0
001E1FC0
003FFF80
007FFF80
001FFE00
0007F800
ENDCHAR
STARTCHAR 00E8
ENCODING 232
SWIDTH 555 0
DWIDTH 40 0
BBX 34 58 3 -1
BITMAP
0006000000
001F000000
007F000000
00FF800000
007F800000
003FC00000
001FC00000
001FE00000
000FE00000
0007F00000
0007F00000
0003F80000
0001F80000
0000F40000
0000C00000
0000000000
0000000000
0000000000
0000000000
0007FC0000
003FFF8000
00FFFFC000
01FFFFF000
07FFFFF800
0FFFFFFC00
0FFFFFFC00
1FFC0FFE00
3FF003FF00
3FE001FF00
3FC000FF80
7F80007F80
7F80007F80
7F80007F80
FF00003FC0
FF00003FC0
FF00003FC0
FFFFFFFFC0
FFFFFFFFC0
FFFFFFFFC0
FFFFFFFFC0
FFFFFFFFC0
FF00000000
FF00000000
7F00000000
7F80000000
7F80000000
7F80000800
3FC0001C00
3FE0003E00
3FF000FF00
1FFC03FF80
0FFFFFFF00
0FFFFFFE00
07FFFFFC00
01FFFFF800
00FFFFE000
003FFF8000
0007FC0000
ENDCHAR
STARTCHAR 00E9
ENCODING 233
SWIDTH 555 0
DWIDTH 40 0
BBX 34 58 3 -1
BITMAP
00001C0000
00001F0000
00003FC000
00003FE000
00007FC000
00007F8000
0000FF0000
0000FF0000
0001FE0000
0001FC0000
0003F80000
0003F80000
0007F00000
0001E00000
0000600000
0000000000
0000000000
0000000000
0000000000
0007FC0000
003FFF8000
00FFFFC000
01FFFFF000
07FFFFF800
0FFFFFFC00
0FFFFFFC00
1FFC0FFE00
3FF003FF00
3FE001FF00
3FC000FF80
7F80007F80
7F80007F80
7F80007F80
FF00003FC0
FF00003FC0
FF00003FC0
FFFFFFFFC0
FFFFFFFFC0
FFFFFFFFC0
FFFFFFFFC0
FFFFFFFFC0
FF00000000
FF00000000
7F00000000
7F80000000
7F80000000
7F80000800
3FC0001C00
3FE0003E00
3FF000FF00
1FFC03FF80
0FFFFFFF00
0FFFFFFE00
07FFFFFC00
01FFFFF800
00FFFFE000
003FFF8000
0007FC0000
ENDCHAR
STARTCHAR 00EA
ENCODING 234
SWIDTH 555 0
DWIDTH 40 0
BBX 34 57 3 -1
BITMAP
0007FC0000
000FFE0000
001FFE0000
001FFF0000
003FFF8000
007FFFC000
00FFBFE000
00FF1FE000
01FE0FF000
03FC07F800
07F803FC00
03F001F800
01C000F000
0080006000
0000000000
0000000000
0000000000
0000000000
0007FC0000
003FFF8000
00FFFFC000
01FFFFF000
07FFFFF800
0FFFFFFC00
0FFFFFFC00
1FFC0FFE00
3FF003FF00
3FE001FF00
3FC000FF80
7F80007F80
7F80007F80
7F80007F80
FF00003FC0
FF00003FC0
FF00003FC0
FFFFFFFFC0
FFFFFFFFC0
FFFFFFFFC0
FFFFFFFFC0
FFFFFFFFC0
FF00000000
FF00000000
7F00000000
7F80000000
7F80000000
7F80000800
3FC0001C00
3FE0003E00
3FF000FF00
1FFC03FF80
0FFFFFFF00
0FFFFFFE00
07FFFFFC00
01FFFFF800
00FFFFE000
003FFF8000
0007FC0000
ENDCHAR
STARTCHAR 00EB
ENCODING 235
SWIDTH 555 0
DWIDTH 40 0
BBX 34 54 3 -1
BITMAP
00F803E000
03FC07F000
03FC0FF800
03FE0FF800
03FE0FF800
03FE0FF800
03FE0FF800
03FC07F000
00F803E000
0000000000
0000000000
0000000000
0000000000
0000000000
0000000000
0007FC0000
003FFF8000
00FFFFC000
01FFFFF000
07FFFFF800
0FFFFFFC00
0FFFFFFC00
1FFC0FFE00
3FF003FF00
3FE001FF00
3FC000FF80
7F80007F80
7F80007F80
7F80007F80
FF00003FC0
FF00003FC0
FF00003FC0
FFFFFFFFC0
FFFFFFFFC0
FFFFFFFFC0
FFFFFFFFC0
FFFFFFFFC0
FF00000000
FF00000000
7F00000000
7F80000000
7F80000000
7F80000800
3FC0001C00
3FE0003E00
3FF000FF00
1FFC03FF80
0FFFFFFF00
0FFFFFFE00
07FFFFFC00
01FFFFF800
00FFFFE000
003FFF8000
0007FC0000
ENDCHAR
STARTCHAR 00EC
ENCODING 236
SWIDTH 263 0
DWIDTH 19 0
BBX 14 57 0 0
BITMAP
0700
1F00
7F80
FF80
7FC0
3FC0
1FE0
0FE0
0FF0
07F0
03F8
03F8
01FC
00F0
00C0
0000
0000
0000
0000
0000
03F8
03F8
03F8
03F8
03F8
03F8
03F8
03F8
03F8
03F8
03F8
03F8
03F8
03F8
03F8
03F8
03F8
03F8
03F8
03F8
03F8
03F8
03F8
03F8
03F8
03F8
03F8
03F8
03F8
03F8
03F8
03F8
03F8
03F8
03F8
03F8
03F8
ENDCHAR
STARTCHAR 00ED
ENCODING 237
SWIDTH 263 0
DWIDTH 19 0
BBX 13 57 6 0
BITMAP
0300
07C0
07F0
0FF8
0FF0
1FE0
1FC0
3FC0
3F80
7F00
7F00
FE00
FC00
7C00
1800
0000
0000
0000
0000
0000
FE00
FE00
FE00
FE00
FE00
FE00
FE00
FE00
FE00
FE00
FE00
FE00
FE00
FE00
FE00
FE00
FE00
FE00
FE00
FE00
FE00
FE00
FE00
FE00
FE00
FE00
FE00
FE00
FE00
FE00
FE00
FE00
FE00
FE00
FE00
FE00
FE00
ENDCHAR
STARTCHAR 00EE
ENCODING 238
SWIDTH 263 0
DWIDTH 19 0
BBX 25 56 -3 0
BITMAP
00FF8000
01FFC000
01FFE000
03FFE000
07FFF000
0FFFF800
0FF7FC00
1FE3FE00
3FC1FE00
7F80FF00
FF007F80
7E001F00
3C000E00
18000400
00000000
00000000
00000000
00000000
00000000
007F0000
007F0000
007F0000
007F0000
007F0000
007F0000
007F0000
007F0000
007F0000
007F0000
007F0000
007F0000
007F0000
007F0000
007F0000
007F0000
007F0000
007F0000
007F0000
007F0000
007F0000
007F0000
007F0000
007F0000
007F0000
007F0000
007F0000
007F0000
007F0000
007F0000
007F0000
007F0000
007F0000
007F0000
007F0000
007F0000
007F0000
ENDCHAR
STARTCHAR 00EF
ENCODING 239
SWIDTH 263 0
DWIDTH 19 0
BBX 23 53 -2 0
BITMAP
3E00F8
7F01FE
FF81FE
FF83FE
FF83FE
FF83FE
FF81FE
7F01FE
3E00F8
000000
000000
000000
000000
000000
000000
000000
00FE00
00FE00
00FE00
00FE00
00FE00
00FE00
00FE00
00FE00
00FE00
00FE00
00FE00
00FE00
00FE00
00FE00
00FE00
00FE00
00FE00
00FE00
00FE00
00FE00
00FE00
00FE00
00FE00
00FE00
00FE00
00FE00
00FE00
00FE00
00FE00
00FE00
00FE00
00FE00
00FE00
00FE00
00FE00
00FE00
00FE00
ENDCHAR
STARTCHAR 00F0
ENCODING 240
SWIDTH 569 0
DWIDTH 41 0
BBX 35 55 3 -1
BITMAP
0000004000
0FFF80E000
03FFC3F000
00FFE7F800
007FFFE000
001FFFC000
000FFF0000
0003FF0000
0007FF8000
001FFFC000
003FFFC000
007FBFE000
003E1FF000
003C0FF800
001007F800
000007FC00
000003FC00
000001FE00
000FE1FE00
007FF8FF00
01FFFCFF00
03FFFE7F80
07FFFF7F80
0FFFFFBF80
1FFFFFBFC0
1FFC07FFC0
3FF001FFC0
3FE000FFC0
7FC0007FC0
7F80003FC0
7F80003FE0
7F80003FE0
FF80003FE0
FF00001FE0
FF00001FE0
FF00001FE0
FF00001FE0
FF00001FE0
FF00001FE0
FF00001FC0
FF80003FC0
7F80003FC0
7F80003FC0
7F80003FC0
3FC0007F80
3FE000FF80
3FF001FF00
1FFC07FF00
0FFFFFFE00
0FFFFFFC00
07FFFFFC00
01FFFFF000
00FFFFE000
003FFF8000
0007FC0000
ENDCHAR
STARTCHAR 00F1
ENCODING 241
SWIDTH 583 0
DWIDTH 42 0
BBX 31 53 6 0
BITMAP
01F80000
07FE0080
0FFFC1C0
1FFFFFE0
3FFFFFF0
1FFFFFE0
0E0FFFE0
0401FF80
00007E00
00000000
00000000
00000000
00000000
00000000
00000000
0001FC00
FE0FFF80
FE1FFFC0
FE3FFFE0
FE7FFFF0
FE7FFFF8
FEFFFFF8
FFF01FF8
FFC00FFC
FF8007FC
FF0003FC
FF0003FC
FF0003FC
FE0001FC
FE0001FE
FE0001FE
FE0001FE
FE0001FE
FE0001FE
FE0001FE
FE0001FE
FE0001FE
FE0001FE
FE0001FE
FE0001FE
FE0001FE
FE0001FE
FE0001FE
FE0001FE
FE0001FE
FE0001FE
FE0001FE
FE0001FE
FE0001FE
FE0001FE
FE0001FE
FE0001FE
FE0001FE
ENDCHAR
STARTCHAR 00F2
ENCODING 242
SWIDTH 569 0
DWIDTH 41 0
BBX 35 58 3 -1
BITMAP
0006000000
001F000000
007F000000
00FF800000
007F800000
003FC00000
003FC00000
001FE00000
000FE00000
0007F00000
0007F00000
0003F80000
0001F80000
0001F00000
0000C00000
0000000000
0000000000
0000000000
0000000000
0007FC0000
003FFF8000
00FFFFE000
01FFFFF000
07FFFFF800
07FFFFFC00
0FFFFFFE00
1FFC07FE00
1FF001FF00
3FE000FF80
3FC0007F80
7F80007F80
7F80003FC0
7F80003FC0
7F00003FC0
FF00003FC0
FF00003FC0
FF00003FC0
FF00003FC0
FF00003FE0
FF00003FC0
FF00003FC0
FF00003FC0
FF00003FC0
7F80003FC0
7F80003FC0
7F80003FC0
7F80007F80
3FC0007F80
3FE000FF80
1FF001FF00
1FFC07FE00
0FFFFFFE00
07FFFFFC00
07FFFFF800
01FFFFF000
00FFFFE000
003FFF8000
0007FC0000
ENDCHAR
STARTCHAR 00F3
ENCODING 243
SWIDTH 569 0
DWIDTH 41 0
BBX 35 58 3 -1
BITMAP
00001C0000
00001F0000
00003FC000
00003FE000
00007FC000
00007F8000
0000FF0000
0000FE0000
0001FE0000
0001FC0000
0003F80000
0003F80000
0007F00000
0001E00000
0000400000
0000000000
0000000000
0000000000
0000000000
0007FC0000
003FFF8000
00FFFFE000
01FFFFF000
07FFFFF800
07FFFFFC00
0FFFFFFE00
1FFC07FE00
1FF001FF00
3FE000FF80
3FC0007F80
7F80007F80
7F80003FC0
7F80003FC0
7F00003FC0
FF00003FC0
FF00003FC0
FF00003FC0
FF00003FC0
FF00003FE0
FF00003FC0
FF00003FC0
FF00003FC0
FF00003FC0
7F80003FC0
7F80003FC0
7F80003FC0
7F80007F80
3FC0007F80
3FE000FF80
1FF001FF00
1FFC07FE00
0FFFFFFE00
07FFFFFC00
07FFFFF800
01FFFFF000
00FFFFE000
003FFF8000
0007FC0000
ENDCHAR
STARTCHAR 00F4
ENCODING 244
SWIDTH 569 0
DWIDTH 41 0
BBX 35 57 3 -1
BITMAP
0007FC0000
000FFC0000
001FFE0000
001FFF0000
003FFF8000
007FFFC000
00FFBFC000
01FF1FE000
01FE0FF000
03FC07F800
07F003FC00
07E001F800
01C000F000
0080006000
0000000000
0000000000
0000000000
0000000000
0007FC0000
003FFF8000
00FFFFE000
01FFFFF000
07FFFFF800
07FFFFFC00
0FFFFFFE00
1FFC07FE00
1FF001FF00
3FE000FF80
3FC0007F80
7F80007F80
7F80003FC0
7F80003FC0
7F00003FC0
FF00003FC0
FF00003FC0
FF00003FC0
FF00003FC0
FF00003FE0
FF00003FC0
FF00003FC0
FF00003FC0
FF00003FC0
7F80003FC0
7F80003FC0
7F80003FC0
7F80007F80
3FC0007F80
3FE000FF80
1FF001FF00
1FFC07FE00
0FFFFFFE00
07FFFFFC00
07FFFFF800
01FFFFF000
00FFFFE000
003FFF8000
0007FC0000
ENDCHAR
STARTCHAR 00F5
ENCODING 245
SWIDTH 569 0
DWIDTH 41 0
BBX 35 54 3 -1
BITMAP
007E000000
01FFC02000
03FFF07000
07FFFFF800
07FFFFFC00
03FFFFFC00
03C3FFF800
01007FE000
00001FC000
0000000000
0000000000
0000000000
0000000000
0000000000
0000000000
0007FC0000
003FFF8000
00FFFFE000
01FFFFF000
07FFFFF800
07FFFFFC00
0FFFFFFE00
1FFC07FE00
1FF001FF00
3FE000FF80
3FC0007F80
7F80007F80
7F80003FC0
7F80003FC0
7F00003FC0
FF00003FC0
FF00003FC0
FF00003FC0
FF00003FC0
FF00003FE0
FF00003FC0
FF00003FC0
FF00003FC0
FF00003FC0
7F80003FC0
7F80003FC0
7F80003FC0
7F80007F80
3FC0007F80
3FE000FF80
1FF001FF00
1FFC07FE00
0FFFFFFE00
07FFFFFC00
07FFFFF800
01FFFFF000
00FFFFE000
003FFF8000
0007FC0000
ENDCHAR
STARTCHAR 00F6
ENCODING 246
SWIDTH 569 0
DWIDTH 41 0
BBX 35 54 3 -1
BITMAP
01F803E000
03FC07F000
03FC0FF800
03FE0FF800
03FE0FF800
03FE0FF800
03FC0FF800
03FC07F000
01F803E000
0000000000
0000000000
0000000000
0000000000
0000000000
0000000000
0007FC0000
003FFF8000
00FFFFE000
01FFFFF000
07FFFFF800
07FFFFFC00
0FFFFFFE00
1FFC07FE00
1FF001FF00
3FE000FF80
3FC0007F80
7F80007F80
7F80003FC0
7F80003FC0
7F00003FC0
FF00003FC0
FF00003FC0
FF00003FC0
FF00003FC0
FF00003FE0
FF00003FC0
FF00003FC0
FF00003FC0
FF00003FC0
7F80003FC0
7F80003FC0
7F80003FC0
7F80007F80
3FC0007F80
3FE000FF80
1FF001FF00
1FFC07FE00
0FFFFFFE00
07FFFFFC00
07FFFFF800
01FFFFF000
00FFFFE000
003FFF8000
0007FC0000
ENDCHAR
STARTCHAR 00F7
ENCODING 247
SWIDTH 597 0
DWIDTH 43 0
BBX 33 39 5 3
BITMAP
0003E00000
000FF80000
000FFC0000
001FFC0000
001FFC0000
001FFC0000
001FFC0000
000FFC0000
000FF80000
0003F00000
0000000000
0000000000
0000000000
0000000000
0000000000
0000000000
FFFFFFFF80
FFFFFFFF80
FFFFFFFF80
FFFFFFFF80
FFFFFFFF80
FFFFFFFF80
FFFFFFFF80
0000000000
0000000000
0000000000
0000000000
0000000000
0000000000
0003E00000
000FF80000
000FFC0000
001FFC0000
001FFC0000
001FFC0000
001FFC0000
000FFC0000
000FF80000
0003F00000
ENDCHAR
STARTCHAR 00F8
ENCODING 248
SWIDTH 569 0
DWIDTH 41 0
BBX 37 43 2 -3
BITMAP
00000000C0
00000001E0
0003FE03F8
001FFFC3F8
007FFFF7F0
00FFFFFFE0
01FFFFFFC0
03FFFFFFC0
07FFFFFF80
0FFE03FF00
0FF800FF80
1FF000FFC0
1FE001FFC0
3FC003FFC0
3FC007FFE0
3FC00FFFE0
3FC01FDFE0
3F801F8FE0
7F803F8FF0
7F807F0FF0
7F80FE0FF0
7F81FC0FF0
7F83F80FF0
7F87F00FF0
7FCFE00FF0
3FCFE00FE0
3FDFC01FE0
3FFF801FE0
3FFF001FE0
1FFE001FE0
1FFC003FC0
1FF8007FC0
0FF800FF80
0FFE03FF80
0FFFFFFF00
1FFFFFFE00
1FFFFFFC00
3FFFFFF800
7F7FFFF000
FE1FFFC000
FE03FE0000
3C00000000
1800000000
ENDCHAR
STARTCHAR 00F9
ENCODING 249
SWIDTH 583 0
DWIDTH 42 0
BBX 31 58 5 -1
BITMAP
000C0000
003C0000
00FE0000
01FE0000
00FF0000
00FF0000
007F8000
003F8000
003FC000
001FC000
000FE000
0007E000
0007F000
0003C000
00010000
00000000
00000000
00000000
00000000
00000000
FF0001FE
FF0001FE
FF0001FE
FF0001FE
FF0001FE
FF0001FE
FF0001FE
FF0001FE
FF0001FE
FF0001FE
FF0001FE
FF0001FE
FF0001FE
FF0001FE
FF0001FE
FF0001FE
FF0001FE
FF0001FE
FF0001FE
FF0001FE
FF0001FE
FF0001FE
FF0001FE
FF0001FE
FF0001FE
FF0001FE
FF8001FE
7F8001FE
7FC003FE
7FE007FE
7FF01FFE
3FFFFFFE
3FFFFDFE
1FFFFDFE
0FFFF9FE
07FFF1FE
03FFE1FE
00FF0000
ENDCHAR
STARTCHAR 00FA
ENCODING 250
SWIDTH 583 0
DWIDTH 42 0
BBX 31 58 5 -1
BITMAP
00003000
00007C00
00007F00
0000FF80
0000FF00
0001FE00
0001FE00
0003FC00
0003F800
0007F800
0007F000
000FE000
000FC000
0007C000
00008000
00000000
00000000
00000000
00000000
00000000
FF0001FE
FF0001FE
FF0001FE
FF0001FE
FF0001FE
FF0001FE
FF0001FE
FF0001FE
FF0001FE
FF0001FE
FF0001FE
FF0001FE
FF0001FE
FF0001FE
FF0001FE
FF0001FE
FF0001FE
FF0001FE
FF0001FE
FF0001FE
FF0001FE
FF0001FE
FF0001FE
FF0001FE
FF0001FE
FF0001FE
FF8001FE
7F8001FE
7FC003FE
7FE007FE
7FF01FFE
3FFFFFFE
3FFFFDFE
1FFFFDFE
0FFFF9FE
07FFF1FE
03FFE1FE
00FF0000
ENDCHAR
STARTCHAR 00FB
ENCODING 251
SWIDTH 583 0
DWIDTH 42 0
BBX 31 57 5 -1
BITMAP
001FF000
001FF800
003FFC00
007FFE00
00FFFE00
01FFFF00
01FEFF80
03FC7FC0
07F83FE0
0FF00FE0
1FE007F0
0FC003F0
078001C0
01000080
00000000
00000000
00000000
00000000
00000000
FF0001FE
FF0001FE
FF0001FE
FF0001FE
FF0001FE
FF0001FE
FF0001FE
FF0001FE
FF0001FE
FF0001FE
FF0001FE
FF0001FE
FF0001FE
FF0001FE
FF0001FE
FF0001FE
FF0001FE
FF0001FE
FF0001FE
FF0001FE
FF0001FE
FF0001FE
FF0001FE
FF0001FE
FF0001FE
FF0001FE
FF8001FE
7F8001FE
7FC003FE
7FE007FE
7FF01FFE
3FFFFFFE
3FFFFDFE
1FFFFDFE
0FFFF9FE
07FFF1FE
03FFE1FE
00FF0000
ENDCHAR
STARTCHAR 00FC
ENCODING 252
SWIDTH 583 0
DWIDTH 42 0
BBX 31 54 5 -1
BITMAP
03E00FC0
07F01FE0
0FF81FE0
0FF81FE0
0FF81FE0
0FF81FE0
0FF81FE0
07F01FE0
03E00FC0
00000000
00000000
00000000
00000000
00000000
00000000
00000000
FF0001FE
FF0001FE
FF0001FE
FF0001FE
FF0001FE
FF0001FE
FF0001FE
FF0001FE
FF0001FE
FF0001FE
FF0001FE
FF0001FE
FF0001FE
FF0001FE
FF0001FE
FF0001FE
FF0001FE
FF0001FE
FF0001FE
FF0001FE
FF0001FE
FF0001FE
FF0001FE
FF0001FE
FF0001FE
FF0001FE
FF8001FE
7F8001FE
7FC003FE
7FE007FE
7FF01FFE
3FFFFFFE
3FFFFDFE
1FFFFDFE
0FFFF9FE
07FFF1FE
03FFE1FE
00FF0000
ENDCHAR
STARTCHAR 00FD
ENCODING 253
SWIDTH 513 0
DWIDTH 37 0
BBX 35 71 1 -14
BITMAP
00000C0000
00001F0000
00001FC000
00003FE000
00003FC000
00007F8000
00007F8000
0000FF0000
0000FE0000
0001FC0000
0001FC0000
0003F80000
0003F00000
0001F00000
0000600000
0000000000
0000000000
0000000000
0000000000
0000000000
FF00001FE0
FF00001FE0
7F80001FC0
7F80003FC0
7F80003FC0
3FC0003F80
3FC0007F80
1FC0007F00
1FE0007F00
1FE000FF00
0FE000FE00
0FF001FE00
0FF001FE00
07F801FC00
07F803FC00
07F803FC00
03FC03F800
03FC07F800
01FC07F800
01FE07F000
01FE0FF000
00FE0FE000
00FF0FE000
00FF1FE000
007F1FC000
007F1FC000
007FBFC000
003FBF8000
003FBF8000
003FFF8000
001FFF0000
001FFF0000
000FFF0000
000FFE0000
000FFE0000
0007FC0000
0007FC0000
0007FC0000
0007F80000
0007F80000
0007F80000
000FF00000
000FF00000
001FF00000
07FFE00000
07FFE00000
07FFC00000
07FFC00000
07FF800000
07FF000000
07FC000000
ENDCHAR
STARTCHAR 00FE
ENCODING 254
SWIDTH 597 0
DWIDTH 43 0
BBX 33 67 6 -14
BITMAP
FE00000000
FE00000000
FE00000000
FE00000000
FE00000000
FE00000000
FE00000000
FE00000000
FE00000000
FE00000000
FE00000000
FE00000000
FE00000000
FE00000000
FE00000000
FE01FC0000
FE0FFF8000
FE1FFFE000
FE3FFFF000
FE7FFFF800
FE7FFFFC00
FEFFFFFC00
FFF01FFE00
FFC007FE00
FF8003FF00
FF0001FF00
FF0000FF00
FF0000FF80
FE00007F80
FE00007F80
FE00007F80
FE00007F80
FE00007F80
FE00007F80
FE00007F80
FE00007F80
FE00007F80
FE00007F80
FE00007F80
FE00007F80
FE00007F80
FF0000FF80
FF0000FF00
FF0001FF00
FF8003FF00
FFC007FE00
FFF01FFE00
FEFFFFFC00
FE7FFFFC00
FE7FFFF800
FE3FFFF000
FE1FFFE000
FE0FFF8000
FE01FE0000
FE00000000
FE00000000
FE00000000
FE00000000
FE00000000
FE00000000
FE00000000
FE00000000
FE00000000
FE00000000
FE00000000
FE00000000
FE00000000
ENDCHAR
STARTCHAR 00FF
ENCODING 255
SWIDTH 513 0
DWIDTH 37 0
BBX 35 67 1 -14
BITMAP
00F803F000
01FC07F800
03FE07F800
03FE0FF800
03FE0FF800
03FE0FF800
03FE07F800
01FC07F800
00F803F000
0000000000
0000000000
0000000000
0000000000
0000000000
0000000000
0000000000
FF00001FE0
FF00001FE0
7F80001FC0
7F80003FC0
7F80003FC0
3FC0003F80
3FC0007F80
1FC0007F00
1FE0007F00
1FE000FF00
0FE000FE00
0FF001FE00
0FF001FE00
07F801FC00
07F803FC00
07F803FC00
03FC03F800
03FC07F800
01FC07F800
01FE07F000
01FE0FF000
00FE0FE000
00FF0FE000
00FF1FE000
007F1FC000
007F1FC000
007FBFC000
003FBF8000
003FBF8000
003FFF8000
001FFF0000
001FFF0000
000FFF0000
000FFE0000
000FFE0000
0007FC0000
0007FC0000
0007FC0000
0007F80000
0007F80000
0007F80000
000FF00000
000FF00000
001FF00000
07FFE00000
07FFE00000
07FFC00000
07FFC00000
07FF800000
07FF000000
07FC000000
ENDCHAR
STARTCHAR 0100
ENCODING 256
SWIDTH 666 0
DWIDTH 48 0
BBX 44 63 2 0
BITMAP
001FFFFF0000
001FFFFF0000
001FFFFF0000
001FFFFF0000
001FFFFF0000
001FFFFF0000
000000000000
000000000000
000000000000
000000000000
000000000000
000000000000
000000000000
00007FE00000
0000FFE00000
0000FFF00000
0000FFF00000
0001FFF00000
0001FFF80000
0003FFF80000
0003FBFC0000
0003FBFC0000
0007FBFC0000
0007F1FE0000
0007F1FE0000
000FF0FE0000
000FE0FF0000
000FE0FF0000
001FE07F0000
001FC07F8000
001FC07F8000
003FC03F8000
003F803FC000
003F803FC000
007F801FC000
007F001FE000
007F001FE000
00FF000FE000
00FE000FF000
00FE000FF000
01FE0007F000
01FC0007F800
01FFFFFFF800
03FFFFFFF800
03FFFFFFFC00
03FFFFFFFC00
07FFFFFFFC00
07FFFFFFFE00
07FFFFFFFE00
0FF00001FE00
0FF00000FF00
0FE00000FF00
1FE00000FF00
1FE00000FF80
3FE000007F80
3FC000007FC0
3FC000007FC0
7FC000003FC0
7F8000003FE0
7F8000003FE0
FF8000001FE0
FF0000001FF0
FF0000001FF0
ENDCHAR
STARTCHAR 0101
ENCODING 257
SWIDTH 555 0
DWIDTH 40 0
BBX 34 52 3 -1
BITMAP
07FFFFC000
07FFFFC000
07FFFFC000
07FFFFC000
07FFFFC000
07FFFFC000
0000000000
0000000000
0000000000
0000000000
0000000000
0000000000
0000000000
001FF80000
00FFFF0000
03FFFFC000
07FFFFE000
1FFFFFF000
1FFFFFF800
3FFFFFF800
7FE01FFC00
1F8007FC00
0F0003FC00
060003FC00
000003FC00
000001FC00
000001FC00
000001FC00
000001FC00
003FFFFC00
01FFFFFC00
07FFFFFC00
1FFFFFFC00
3FFFFFFC00
7FF001FC00
7FC001FC00
FF8001FC00
FF0001FC00
FF0001FC00
FF0001FC00
FF0003FC00
FF0003FC00
FF0007FC00
FF800FFC00
FFE03FFFC0
7FFFFCFFC0
7FFFFCFFC0
3FFFF8FFC0
1FFFF87FC0
0FFFF03FC0
07FFC01FC0
00FF000000
ENDCHAR
STARTCHAR 0102
ENCODING 258
SWIDTH 666 0
DWIDTH 48 0
BBX 44 67 2 0
BITMAP
000400040000
001E00070000
003E000FC000
003F001F8000
003F801F8000
001FC03F8000
001FE0FF0000
000FFFFF0000
000FFFFE0000
0007FFFC0000
0003FFF80000
0000FFF00000
00003F800000
000000000000
000000000000
000000000000
000000000000
00007FE00000
0000FFE00000
0000FFF00000
0000FFF00000
0001FFF00000
0001FFF80000
0003FFF80000
0003FBFC0000
0003FBFC0000
0007FBFC0000
0007F1FE0000
0007F1FE0000
000FF0FE0000
000FE0FF0000
000FE0FF0000
001FE07F0000
001FC07F8000
001FC07F8000
003FC03F8000
003F803FC000
003F803FC000
007F801FC000
007F001FE000
007F001FE000
00FF000FE000
00FE000FF000
00FE000FF000
01FE0007F000
01FC0007F800
01FFFFFFF800
03FFFFFFF800
03FFFFFFFC00
03FFFFFFFC00
07FFFFFFFC00
07FFFFFFFE00
07FFFFFFFE00
0FF00001FE00
0FF00000FF00
0FE00000FF00
1FE00000FF00
1FE00000FF80
3FE000007F80
3FC000007FC0
3FC000007FC0
7FC000003FC0
7F8000003FE0
7F8000003FE0
FF8000001FE0
FF0000001FF0
FF0000001FF0
ENDCHAR
STARTCHAR 0103
ENCODING 259
SWIDTH 555 0
DWIDTH 40 0
BBX 34 56 3 -1
BITMAP
0100010000
078003C000
0F8003F000
0FC007E000
0FE007E000
07F00FC000
07F83FC000
03FFFF8000
03FFFF8000
01FFFF0000
00FFFE0000
003FFC0000
000FE00000
0000000000
0000000000
0000000000
0000000000
001FF80000
00FFFF0000
03FFFFC000
07FFFFE000
1FFFFFF000
1FFFFFF800
3FFFFFF800
7FE01FFC00
1F8007FC00
0F0003FC00
060003FC00
000003FC00
000001FC00
000001FC00
000001FC00
000001FC00
003FFFFC00
01FFFFFC00
07FFFFFC00
1FFFFFFC00
3FFFFFFC00
7FF001FC00
7FC001FC00
FF8001FC00
FF0001FC00
FF0001FC00
FF0001FC00
FF0003FC00
FF0003FC00
FF0007FC00
FF800FFC00
FFE03FFFC0
7FFFFCFFC0
7FFFFCFFC0
3FFFF8FFC0
1FFFF87FC0
0FFFF03FC0
07FFC01FC0
00FF000000
ENDCHAR
STARTCHAR 0104
ENCODING 260
SWIDTH 666 0
DWIDTH 48 0
BBX 46 65 2 -15
BITMAP
00007FE00000
0000FFE00000
0000FFF00000
0000FFF00000
0001FFF00000
0001FFF80000
0003FFF80000
0003FBFC0000
0003FBFC0000
0007FBFC0000
0007F1FE0000
0007F1FE0000
000FF0FE0000
000FE0FF0000
000FE0FF0000
001FE07F0000
001FC07F8000
001FC07F8000
003FC03F8000
003F803FC000
003F803FC000
007F801FC000
007F001FE000
007F001FE000
00FF000FE000
00FE000FF000
00FE000FF000
01FE0007F000
01FC0007F800
01FFFFFFF800
03FFFFFFF800
03FFFFFFFC00
03FFFFFFFC00
07FFFFFFFC00
07FFFFFFFE00
07FFFFFFFE00
0FF00001FE00
0FF00000FF00
0FE00000FF00
1FE00000FF00
1FE00000FF80
3FE000007F80
3FC000007FC0
3FC000007FC0
7FC000003FC0
7F8000003FE0
7F8000003FE0
FF8000001FE0
FF0000001FF0
FF0000001FF0
0000000003E0
0000000007C0
000000001F80
000000003F00
000000007E00
00000000FC00
00000001F800
00000001F800
00000001F000
00000001F820
00000001F870
00000001FFF8
00000000FFFC
000000007FF0
000000001FC0
ENDCHAR
STARTCHAR 0105
ENCODING 261
SWIDTH 555 0
DWIDTH 40 0
BBX 36 53 3 -15
BITMAP
001FF80000
00FFFF0000
03FFFFC000
07FFFFE000
1FFFFFF000
1FFFFFF800
3FFFFFF800
7FE01FFC00
1F8007FC00
0F0003FC00
060003FC00
000003FC00
000001FC00
000001FC00
000001FC00
000001FC00
003FFFFC00
01FFFFFC00
07FFFFFC00
1FFFFFFC00
3FFFFFFC00
7FF001FC00
7FC001FC00
FF8001FC00
FF0001FC00
FF0001FC00
FF0001FC00
FF0003FC00
FF0003FC00
FF0007FC00
FF800FFC00
FFE03FFFC0
7FFFFCFFC0
7FFFFCFFC0
3FFFF8FFC0
1FFFF87FC0
0FFFF03FC0
07FFC01FC0
00FF0007C0
0000001F80
0000003F00
000000FC00
000001F800
000003F000
000003F000
000007E000
000007E000
000007E040
000007F1E0
000003FFF0
000003FFF0
000001FFE0
0000007F80
ENDCHAR
STARTCHAR 0106
ENCODING 262
SWIDTH 638 0
DWIDTH 46 0
BBX 39 70 4 -1
BITMAP
0000018000
000003E000
000003F800
000007FC00
000007F800
00000FF000
00000FF000
00001FE000
00001FC000
00003FC000
00003F8000
00007F0000
00007E0000
00003E0000
0000040000
0000000000
0000000000
0000000000
0000FFC000
0007FFFC00
001FFFFF00
007FFFFF80
00FFFFFFC0
01FFFFFFE0
03FFFFFFF0
07FF807FF8
0FFE001FFC
0FF80007FC
1FF00003FE
1FF00003FC
3FE00001F0
3FC00000E0
7FC0000080
7FC0000000
7F80000000
7F80000000
7F80000000
FF80000000
FF80000000
FF80000000
FF80000000
FF80000000
FF80000000
FF80000000
FF80000000
FF80000000
FF80000000
FF80000000
FF80000000
FF80000000
FF80000000
7F80000000
7F80000000
7F80000000
7FC0000000
7FC00000C0
3FC00000F0
3FE00001F8
1FF00003FE
1FF00003FE
0FF80007FC
0FFE001FFC
07FF807FF8
03FFFFFFF0
01FFFFFFE0
00FFFFFFC0
007FFFFF80
001FFFFE00
0007FFF800
0000FFC000
ENDCHAR
STARTCHAR 0107
ENCODING 263
SWIDTH 513 0
DWIDTH 37 0
BBX 32 58 3 -1
BITMAP
00001800
00003E00
00003F80
00007FC0
00007F80
0000FF00
0000FF00
0001FE00
0001FC00
0003FC00
0003F800
0007F000
0007F000
0001E000
00004000
00000000
00000000
00000000
00000000
0007FC00
003FFF00
00FFFFC0
03FFFFE0
07FFFFF0
0FFFFFF8
0FFFFFFC
1FFC0FFE
3FF003FE
3FE001FF
3FC000FC
7F800070
7F800080
7F800000
FF000000
FF000000
FF000000
FF000000
FF000000
FF000000
FF000000
FF000000
FF000000
FF000000
FF000000
7F800000
7F800020
7F800078
3FC000FE
3FE001FF
3FF003FE
1FFC0FFE
0FFFFFFC
0FFFFFF8
07FFFFF0
03FFFFE0
00FFFFC0
003FFF00
0007F800
ENDCHAR
STARTCHAR 0108
ENCODING 264
SWIDTH 638 0
DWIDTH 46 0
BBX 39 69 4 -1
BITMAP
0000FF8000
0000FFC000
0001FFE000
0003FFF000
0007FFF000
0007FFF800
000FF7FC00
001FE3FE00
003FC1FF00
007F807F00
007F003F80
00FE001F80
003C000E00
0008000400
0000000000
0000000000
0000000000
0000FFC000
0007FFFC00
001FFFFF00
007FFFFF80
00FFFFFFC0
01FFFFFFE0
03FFFFFFF0
07FF807FF8
0FFE001FFC
0FF80007FC
1FF00003FE
1FF00003FC
3FE00001F0
3FC00000E0
7FC0000080
7FC0000000
7F80000000
7F80000000
7F80000000
FF80000000
FF80000000
FF80000000
FF80000000
FF80000000
FF80000000
FF80000000
FF80000000
FF80000000
FF80000000
FF80000000
FF80000000
FF80000000
FF80000000
7F80000000
7F80000000
7F80000000
7FC0000000
7FC00000C0
3FC00000F0
3FE00001F8
1FF00003FE
1FF00003FE
0FF80007FC
0FFE001FFC
07FF807FF8
03FFFFFFF0
01FFFFFFE0
00FFFFFFC0
007FFFFF80
001FFFFE00
0007FFF800
0000FFC000
ENDCHAR
STARTCHAR 0109
ENCODING 265
SWIDTH 513 0
DWIDTH 37 0
BBX 32 57 3 -1
BITMAP
0007F800
000FFC00
001FFE00
003FFF00
007FFF00
007FFF80
00FF7FC0
01FE1FE0
03FC0FF0
07F807F0
07F003F8
0FE001FC
03C000E0
00800040
00000000
00000000
00000000
00000000
0007FC00
003FFF00
00FFFFC0
03FFFFE0
07FFFFF0
0FFFFFF8
0FFFFFFC
1FFC0FFE
3FF003FE
3FE001FF
3FC000FC
7F800070
7F800080
7F800000
FF000000
FF000000
FF000000
FF000000
FF000000
FF000000
FF000000
FF000000
FF000000
FF000000
FF000000
7F800000
7F800020
7F800078
3FC000FE
3FE001FF
3FF003FE
1FFC0FFE
0FFFFFFC
0FFFFFF8
07FFFFF0
03FFFFE0
00FFFFC0
003FFF00
0007F800
ENDCHAR
STARTCHAR 010A
ENCODING 266
SWIDTH 638 0
DWIDTH 46 0
BBX 39 66 4 -1
BITMAP
00003F0000
00007F8000
0000FFC000
0000FFC000
0000FFC000
0000FFC000
0000FFC000
0000FFC000
00007F8000
00003F0000
0000000000
0000000000
0000000000
0000000000
0000FFC000
0007FFFC00
001FFFFF00
007FFFFF80
00FFFFFFC0
01FFFFFFE0
03FFFFFFF0
07FF807FF8
0FFE001FFC
0FF80007FC
1FF00003FE
1FF00003FC
3FE00001F0
3FC00000E0
7FC0000080
7FC0000000
7F80000000
7F80000000
7F80000000
FF80000000
FF80000000
FF80000000
FF80000000
FF80000000
FF80000000
FF80000000
FF80000000
FF80000000
FF80000000
FF80000000
FF80000000
FF80000000
FF80000000
7F80000000
7F80000000
7F80000000
7FC0000000
7FC00000C0
3FC00000F0
3FE00001F8
1FF00003FE
1FF00003FE
0FF80007FC
0FFE001FFC
07FF807FF8
03FFFFFFF0
01FFFFFFE0
00FFFFFFC0
007FFFFF80
001FFFFE00
0007FFF800
0000FFC000
ENDCHAR
STARTCHAR 010B
ENCODING 267
SWIDTH 513 0
DWIDTH 37 0
BBX 32 55 3 -1
BITMAP
0003F000
0007F800
000FF800
000FFC00
000FFC00
000FFC00
000FFC00
000FF800
0007F800
0003F000
00000000
00000000
00000000
00000000
00000000
00000000
0007FC00
003FFF00
00FFFFC0
03FFFFE0
07FFFFF0
0FFFFFF8
0FFFFFFC
1FFC0FFE
3FF003FE
3FE001FF
3FC000FC
7F800070
7F800080
7F800000
FF000000
FF000000
FF000000
FF000000
FF000000
FF000000
FF000000
FF000000
FF000000
FF000000
FF000000
7F800000
7F800020
7F800078
3FC000FE
3FE001FF
3FF003FE
1FFC0FFE
0FFFFFFC
0FFFFFF8
07FFFFF0
03FFFFE0
00FFFFC0
003FFF00
0007F800
ENDCHAR
STARTCHAR 010C
ENCODING 268
SWIDTH 638 0
DWIDTH 46 0
BBX 39 70 4 -1
BITMAP
0008000400
003C000E00
007E001F80
00FF003F80
007F807F00
003FC1FF00
001FE3FE00
000FF7FC00
0007FFF800
0007FFF000
0003FFF000
0001FFE000
0000FFC000
0000FF8000
0000000000
0000000000
0000000000
0000000000
0000FFC000
0007FFFC00
001FFFFF00
007FFFFF80
00FFFFFFC0
01FFFFFFE0
03FFFFFFF0
07FF807FF8
0FFE001FFC
0FF80007FC
1FF00003FE
1FF00003FC
3FE00001F0
3FC00000E0
7FC0000080
7FC0000000
7F80000000
7F80000000
7F80000000
FF80000000
FF80000000
FF80000000
FF80000000
FF80000000
FF80000000
FF80000000
FF80000000
FF80000000
FF80000000
FF80000000
FF80000000
FF80000000
FF80000000
7F80000000
7F80000000
7F80000000
7FC0000000
7FC00000C0
3FC00000F0
3FE00001F8
1FF00003FE
1FF00003FE
0FF80007FC
0FFE001FFC
07FF807FF8
03FFFFFFF0
01FFFFFFE0
00FFFFFFC0
007FFFFF80
001FFFFE00
0007FFF800
0000FFC000
ENDCHAR
STARTCHAR 010D
ENCODING 269
SWIDTH 513 0
DWIDTH 37 0
BBX 32 58 3 -1
BITMAP
00800040
03C000F0
07E001F8
0FF003FC
07F807F0
03FC0FF0
01FE1FE0
00FF7FC0
007FFF80
007FFF00
003FFF00
001FFE00
000FFC00
0007F800
00000000
00000000
00000000
00000000
00000000
0007FC00
003FFF00
00FFFFC0
03FFFFE0
07FFFFF0
0FFFFFF8
0FFFFFFC
1FFC0FFE
3FF003FE
3FE001FF
3FC000FC
7F800070
7F800080
7F800000
FF000000
FF000000
FF000000
FF000000
FF000000
FF000000
FF000000
FF000000
FF000000
FF000000
FF000000
7F800000
7F800020
7F800078
3FC000FE
3FE001FF
3FF003FE
1FFC0FFE
0FFFFFFC
0FFFFFF8
07FFFFF0
03FFFFE0
00FFFFC0
003FFF00
0007F800
ENDCHAR
STARTCHAR 010E
ENCODING 270
SWIDTH 680 0
DWIDTH 49 0
BBX 39 69 6 0
BITMAP
0180004000
03C000E000
07E003F800
0FF007F800
07F80FF000
03FC1FE000
01FE3FE000
00FF7FC000
00FFFF8000
007FFF0000
003FFE0000
001FFE0000
001FFC0000
000FF80000
0000000000
0000000000
0000000000
0000000000
0000000000
FFFFFE0000
FFFFFFE000
FFFFFFF800
FFFFFFFC00
FFFFFFFF00
FFFFFFFF80
FFFFFFFFC0
FF0003FFC0
FF0000FFE0
FF00003FF0
FF00001FF0
FF00000FF8
FF000007F8
FF000007FC
FF000007FC
FF000003FC
FF000003FC
FF000003FE
FF000003FE
FF000003FE
FF000003FE
FF000003FE
FF000003FE
FF000003FE
FF000003FE
FF000003FE
FF000003FE
FF000003FE
FF000003FE
FF000003FE
FF000003FE
FF000003FE
FF000003FE
FF000003FC
FF000003FC
FF000007FC
FF000007FC
FF000007F8
FF00000FF8
FF00001FF0
FF00003FF0
FF0000FFE0
FF0003FFC0
FFFFFFFFC0
FFFFFFFF80
FFFFFFFF00
FFFFFFFC00
FFFFFFF800
FFFFFFE000
FFFFFE0000
ENDCHAR
STARTCHAR 010F
ENCODING 271
SWIDTH 638 0
DWIDTH 46 0
BBX 47 54 3 -1
BITMAP
0000003FC1FE
0000003FC1FE
0000003FC1FE
0000003FC1FC
0000003FC1FC
0000003FC3FC
0000003FC3FC
0000003FC3F8
0000003FC3F8
0000003FC3F8
0000003FC3F0
0000003FC3F0
0000003FC3F0
0000003FC3E0
0000003FC000
001FE03FC000
007FF83FC000
01FFFE3FC000
03FFFF3FC000
07FFFF3FC000
0FFFFFBFC000
1FFFFFBFC000
1FFC07FFC000
3FF001FFC000
3FE0007FC000
3FC0007FC000
7FC0003FC000
7F80003FC000
7F80003FC000
7F80003FC000
7F80003FC000
FF80003FC000
FF80003FC000
FF80003FC000
FF80003FC000
FF80003FC000
FF80003FC000
FF80003FC000
7F80003FC000
7F80003FC000
7F80003FC000
7F80003FC000
7FC0003FC000
3FC0007FC000
3FE0007FC000
3FF001FFC000
1FFC07FFC000
1FFFFFBFC000
0FFFFFBFC000
07FFFF3FC000
03FFFF3FC000
01FFFE3FC000
00FFF83FC000
001FE0000000
ENDCHAR
STARTCHAR 0110
ENCODING 272
SWIDTH 680 0
DWIDTH 49 0
BBX 45 50 1 0
BITMAP
07FFFFF00000
07FFFFFF0000
07FFFFFFC000
07FFFFFFF000
07FFFFFFF800
07FFFFFFFC00
07FFFFFFFE00
07FC001FFF00
07FC0003FF00
07FC0001FF80
07FC0000FFC0
07FC00007FC0
07FC00003FC0
07FC00003FE0
07FC00001FE0
07FC00001FE0
07FC00001FF0
07FC00000FF0
07FC00000FF0
07FC00000FF0
FFFFFE000FF0
FFFFFE000FF0
FFFFFE000FF0
FFFFFE000FF0
FFFFFE000FF0
FFFFFE000FF8
FFFFFE000FF0
07FC00000FF0
07FC00000FF0
07FC00000FF0
07FC00000FF0
07FC00000FF0
07FC00000FF0
07FC00001FF0
07FC00001FE0
07FC00001FE0
07FC00003FE0
07FC00003FC0
07FC00007FC0
07FC0000FFC0
07FC0001FF80
07FC0003FF00
07FC001FFF00
07FFFFFFFE00
07FFFFFFFC00
07FFFFFFF800
07FFFFFFF000
07FFFFFFC000
07FFFFFF0000
07FFFFF80000
ENDCHAR
STARTCHAR 0111
ENCODING 273
SWIDTH 597 0
DWIDTH 43 0
BBX 39 54 3 -1
BITMAP
0000003FC0
0000003FC0
0000003FC0
0000003FC0
0000003FC0
0000FFFFFE
0000FFFFFE
0000FFFFFE
0000FFFFFE
0000FFFFFE
0000003FC0
0000003FC0
0000003FC0
0000003FC0
0000003FC0
001FE03FC0
007FF83FC0
01FFFE3FC0
03FFFF3FC0
07FFFF3FC0
0FFFFFBFC0
1FFFFFBFC0
1FFC07FFC0
3FF001FFC0
3FE0007FC0
3FC0007FC0
7FC0003FC0
7F80003FC0
7F80003FC0
7F80003FC0
7F80003FC0
FF80003FC0
FF80003FC0
FF80003FC0
FF80003FC0
FF80003FC0
FF80003FC0
FF80003FC0
7F80003FC0
7F80003FC0
7F80003FC0
7F80003FC0
7FC0003FC0
3FC0007FC0
3FE0007FC0
3FF001FFC0
1FFC07FFC0
1FFFFFBFC0
0FFFFFBFC0
07FFFF3FC0
03FFFF3FC0
01FFFE3FC0
00FFF83FC0
001FE00000
ENDCHAR
STARTCHAR 0112
ENCODING 274
SWIDTH 597 0
DWIDTH 43 0
BBX 32 63 6 0
BITMAP
03FFFFE0
03FFFFE0
03FFFFE0
03FFFFE0
03FFFFE0
03FFFFE0
00000000
00000000
00000000
00000000
00000000
00000000
00000000
FFFFFFFF
FFFFFFFF
FFFFFFFF
FFFFFFFF
FFFFFFFF
FFFFFFFF
FFFFFFFF
FF000000
FF000000
FF000000
FF000000
FF000000
FF000000
FF000000
FF000000
FF000000
FF000000
FF000000
FF000000
FF000000
FF000000
FFFFFFFC
FFFFFFFC
FFFFFFFC
FFFFFFFC
FFFFFFFC
FFFFFFFC
FFFFFFFC
FF000000
FF000000
FF000000
FF000000
FF000000
FF000000
FF000000
FF000000
FF000000
FF000000
FF000000
FF000000
FF000000
FF000000
FF000000
FFFFFFFF
FFFFFFFF
FFFFFFFF
FFFFFFFF
FFFFFFFF
FFFFFFFF
FFFFFFFF
ENDCHAR
STARTCHAR 0113
ENCODING 275
SWIDTH 555 0
DWIDTH 40 0
BBX 34 52 3 -1
BITMAP
01FFFFF000
01FFFFF000
01FFFFF000
01FFFFF000
01FFFFF000
01FFFFF000
0000000000
0000000000
0000000000
0000000000
0000000000
0000000000
0000000000
0007FC0000
003FFF8000
00FFFFC000
01FFFFF000
07FFFFF800
0FFFFFFC00
0FFFFFFC00
1FFC0FFE00
3FF003FF00
3FE001FF00
3FC000FF80
7F80007F80
7F80007F80
7F80007F80
FF00003FC0
FF00003FC0
FF00003FC0
FFFFFFFFC0
FFFFFFFFC0
FFFFFFFFC0
FFFFFFFFC0
FFFFFFFFC0
FF00000000
FF00000000
7F00000000
7F80000000
7F80000000
7F80000800
3FC0001C00
3FE0003E00
3FF000FF00
1FFC03FF80
0FFFFFFF00
0FFFFFFE00
07FFFFFC00
01FFFFF800
00FFFFE000
003FFF8000
0007FC0000
ENDCHAR
STARTCHAR 0114
ENCODING 276
SWIDTH 597 0
DWIDTH 43 0
BBX 32 67 6 0
BITMAP
01800080
038001E0
0FC003F0
0FC003F0
07E007E0
07F00FE0
03FC1FE0
03FFFFC0
01FFFF80
00FFFF80
007FFE00
003FFC00
000FF000
00000000
00000000
00000000
00000000
FFFFFFFF
FFFFFFFF
FFFFFFFF
FFFFFFFF
FFFFFFFF
FFFFFFFF
FFFFFFFF
FF000000
FF000000
FF000000
FF000000
FF000000
FF000000
FF000000
FF000000
FF000000
FF000000
FF000000
FF000000
FF000000
FF000000
FFFFFFFC
FFFFFFFC
FFFFFFFC
FFFFFFFC
FFFFFFFC
FFFFFFFC
FFFFFFFC
FF000000
FF000000
FF000000
FF000000
FF000000
FF000000
FF000000
FF000000
FF000000
FF000000
FF000000
FF000000
FF000000
FF000000
FF000000
FFFFFFFF
FFFFFFFF
FFFFFFFF
FFFFFFFF
FFFFFFFF
FFFFFFFF
FFFFFFFF
ENDCHAR
STARTCHAR 0115
ENCODING 277
SWIDTH 555 0
DWIDTH 40 0
BBX 34 56 3 -1
BITMAP
0040004000
01E000F000
07E000F800
03F001F800
03F003F800
01F807F000
01FE0FF000
00FFFFE000
00FFFFE000
007FFFC000
003FFF8000
001FFE0000
0003F80000
0000000000
0000000000
0000000000
0000000000
0007FC0000
003FFF8000
00FFFFC000
01FFFFF000
07FFFFF800
0FFFFFFC00
0FFFFFFC00
1FFC0FFE00
3FF003FF00
3FE001FF00
3FC000FF80
7F80007F80
7F80007F80
7F80007F80
FF00003FC0
FF00003FC0
FF00003FC0
FFFFFFFFC0
FFFFFFFFC0
FFFFFFFFC0
FFFFFFFFC0
FFFFFFFFC0
FF00000000
FF00000000
7F00000000
7F80000000
7F80000000
7F80000800
3FC0001C00
3FE0003E00
3FF000FF00
1FFC03FF80
0FFFFFFF00
0FFFFFFE00
07FFFFFC00
01FFFFF800
00FFFFE000
003FFF8000
0007FC0000
ENDCHAR
STARTCHAR 0116
ENCODING 278
SWIDTH 597 0
DWIDTH 43 0
BBX 32 65 6 0
BITMAP
0007E000
000FF000
000FF800
001FF800
001FF800
001FF800
001FF800
000FF800
000FF000
0007E000
00000000
00000000
00000000
00000000
00000000
FFFFFFFF
FFFFFFFF
FFFFFFFF
FFFFFFFF
FFFFFFFF
FFFFFFFF
FFFFFFFF
FF000000
FF000000
FF000000
FF000000
FF000000
FF000000
FF000000
FF000000
FF000000
FF000000
FF000000
FF000000
FF000000
FF000000
FFFFFFFC
FFFFFFFC
FFFFFFFC
FFFFFFFC
FFFFFFFC
FFFFFFFC
FFFFFFFC
FF000000
FF000000
FF000000
FF000000
FF000000
FF000000
FF000000
FF000000
FF000000
FF000000
FF000000
FF000000
FF000000
FF000000
FF000000
FFFFFFFF
FFFFFFFF
FFFFFFFF
FFFFFFFF
FFFFFFFF
FFFFFFFF
FFFFFFFF
ENDCHAR
STARTCHAR 0117
ENCODING 279
SWIDTH 555 0
DWIDTH 40 0
BBX 34 55 3 -1
BITMAP
0001F00000
0007F80000
0007FC0000
0007FC0000
0007FC0000
0007FC0000
0007FC0000
0007FC0000
0007F80000
0001F00000
0000000000
0000000000
0000000000
0000000000
0000000000
0000000000
0007FC0000
003FFF8000
00FFFFC000
01FFFFF000
07FFFFF800
0FFFFFFC00
0FFFFFFC00
1FFC0FFE00
3FF003FF00
3FE001FF00
3FC000FF80
7F80007F80
7F80007F80
7F80007F80
FF00003FC0
FF00003FC0
FF00003FC0
FFFFFFFFC0
FFFFFFFFC0
FFFFFFFFC0
FFFFFFFFC0
FFFFFFFFC0
FF00000000
FF00000000
7F00000000
7F80000000
7F80000000
7F80000800
3FC0001C00
3FE0003E00
3FF000FF00
1FFC03FF80
0FFFFFFF00
0FFFFFFE00
07FFFFFC00
01FFFFF800
00FFFFE000
003FFF8000
0007FC0000
ENDCHAR
STARTCHAR 0118
ENCODING 280
SWIDTH 597 0
DWIDTH 43 0
BBX 34 65 6 -15
BITMAP
FFFFFFFF00
FFFFFFFF00
FFFFFFFF00
FFFFFFFF00
FFFFFFFF00
FFFFFFFF00
FFFFFFFF00
FF00000000
FF00000000
FF00000000
FF00000000
FF00000000
FF00000000
FF00000000
FF00000000
FF00000000
FF00000000
FF00000000
FF00000000
FF00000000
FF00000000
FFFFFFFC00
FFFFFFFC00
FFFFFFFC00
FFFFFFFC00
FFFFFFFC00
FFFFFFFC00
FFFFFFFC00
FF00000000
FF00000000
FF00000000
FF00000000
FF00000000
FF00000000
FF00000000
FF00000000
FF00000000
FF00000000
FF00000000
FF00000000
FF00000000
FF00000000
FF00000000
FFFFFFFF00
FFFFFFFF00
FFFFFFFF00
FFFFFFFF00
FFFFFFFF00
FFFFFFFF00
FFFFFFFF00
0000001F00
0000007E00
000001F800
000003F000
000007E000
00000FC000
00000FC000
00001F8000
00001F8000
00001F8100
00001FC780
00000FFFC0
00000FFFC0
000007FF80
000001FE00
ENDCHAR
STARTCHAR 0119
ENCODING 281
SWIDTH 555 0
DWIDTH 40 0
BBX 34 53 3 -15
BITMAP
0007FC0000
003FFF8000
00FFFFC000
01FFFFF000
07FFFFF800
0FFFFFFC00
0FFFFFFC00
1FFC0FFE00
3FF003FF00
3FE001FF00
3FC000FF00
7F80007F80
7F80007F80
7F80007F80
FF00007F80
FF00003FC0
FF00003FC0
FFFFFFFFC0
FFFFFFFFC0
FFFFFFFFC0
FFFFFFFFC0
FFFFFFFFC0
FF00000000
FF00000000
7F00000000
7F80000000
7F80000000
7F80001000
3FC0001C00
3FE0003E00
3FF000FF00
1FFC03FF80
0FFFFFFF00
0FFFFFFE00
07FFFFFC00
03FFFFF800
00FFFFE000
003FFFC000
0007FB8000
00000F0000
00001E0000
00007E0000
0000FC0000
0000F80000
0001F80000
0001F00000
0003F00000
0003F02000
0003F8F000
0001FFF800
0001FFF800
0000FFF000
00003FC000
ENDCHAR
STARTCHAR 011A
ENCODING 282
SWIDTH 597 0
DWIDTH 43 0
BBX 32 69 6 0
BITMAP
01000080
038001E0
0FC003F0
0FE007F8
07F00FF0
03FC1FE0
03FE3FC0
01FF7F80
00FFFF80
007FFF00
003FFE00
003FFC00
001FF800
000FF800
00000000
00000000
00000000
00000000
00000000
FFFFFFFF
FFFFFFFF
FFFFFFFF
FFFFFFFF
FFFFFFFF
FFFFFFFF
FFFFFFFF
FF000000
FF000000
FF000000
FF000000
FF000000
FF000000
FF000000
FF000000
FF000000
FF000000
FF000000
FF000000
FF000000
FF000000
FFFFFFFC
FFFFFFFC
FFFFFFFC
FFFFFFFC
FFFFFFFC
FFFFFFFC
FFFFFFFC
FF000000
FF000000
FF000000
FF000000
FF000000
FF000000
FF000000
FF000000
FF000000
FF000000
FF000000
FF000000
FF000000
FF000000
FF000000
FFFFFFFF
FFFFFFFF
FFFFFFFF
FFFFFFFF
FFFFFFFF
FFFFFFFF
FFFFFFFF
ENDCHAR
STARTCHAR 011B
ENCODING 283
SWIDTH 555 0
DWIDTH 40 0
BBX 34 58 3 -1
BITMAP
0080006000
01E000F000
03F001F800
07F803FC00
03FC07F800
01FE0FF000
00FF1FE000
00FFBFE000
007FFFC000
003FFF8000
001FFF0000
000FFE0000
000FFE0000
0007FC0000
0000000000
0000000000
0000000000
0000000000
0000000000
0007FC0000
003FFF8000
00FFFFC000
01FFFFF000
07FFFFF800
0FFFFFFC00
0FFFFFFC00
1FFC0FFE00
3FF003FF00
3FE001FF00
3FC000FF80
7F80007F80
7F80007F80
7F80007F80
FF00003FC0
FF00003FC0
FF00003FC0
FFFFFFFFC0
FFFFFFFFC0
FFFFFFFFC0
FFFFFFFFC0
FFFFFFFFC0
FF00000000
FF00000000
7F00000000
7F80000000
7F80000000
7F80000800
3FC0001C00
3FE0003E00
3FF000FF00
1FFC03FF80
0FFFFFFF00
0FFFFFFE00
07FFFFFC00
01FFFFF800
00FFFFE000
003FFF8000
0007FC0000
ENDCHAR
STARTCHAR 011C
ENCODING 284
SWIDTH 708 0
DWIDTH 51 0
BBX 42 69 4 -1
BITMAP
00007FC00000
00007FE00000
0000FFF00000
0001FFF00000
0003FFF80000
0007FFFC0000
0007FBFE0000
000FF1FF0000
001FE0FF0000
003FC07F8000
007F801FC000
003F000FC000
001E00070000
000C00020000
000000000000
000000000000
000000000000
00007FE00000
0007FFFE0000
001FFFFF8000
003FFFFFC000
00FFFFFFF000
01FFFFFFF800
03FFFFFFFC00
07FFC03FFC00
07FE000FFE00
0FFC0003FF00
1FF80001FF00
1FF00000FF80
3FE000007C00
3FC000007000
3FC000002000
7FC000000000
7F8000000000
7F8000000000
7F8000000000
FF8000000000
FF8000000000
FF8000000000
FF8000000000
FF8000000000
FF8001FFFFC0
FF8001FFFFC0
FF8001FFFFC0
FF8001FFFFC0
FF8001FFFFC0
FF8001FFFFC0
FF8001FFFFC0
FF8000003FC0
FF8000003FC0
7F8000003FC0
7F8000003FC0
7F8000003FC0
7FC000003FC0
3FC000003FC0
3FC000007FC0
3FE000007FC0
1FF00000FFC0
1FF80001FFC0
0FFC0003FFC0
0FFE0007FFC0
07FFC03FDFC0
03FFFFFFDFC0
01FFFFFF9FC0
00FFFFFF1FC0
007FFFFE1FC0
001FFFFC1FC0
0007FFF81FC0
0000FF800000
ENDCHAR
STARTCHAR 011D
ENCODING 285
SWIDTH 541 0
DWIDTH 39 0
BBX 36 71 2 -15
BITMAP
0007FC0000
000FFE0000
001FFE0000
001FFF0000
003FFF8000
007FFFC000
00FFBFE000
00FF1FE000
01FE0FF000
03FC07F800
07F803FC00
03F001F800
01C000F000
0080006000
0000000000
0000000000
0000000000
0000000000
000FFC0000
007FFFFFF0
00FFFFFFF0
03FFFFFFF0
07FFFFFFF0
0FFFFFFFF0
0FFC07FFF0
1FF001FE00
1FE000FE00
1FC000FF00
1FC0007F00
3FC0007F00
3FC0007F00
3FC0007F00
1FC0007F00
1FC000FF00
1FE000FF00
1FF001FF00
0FFC07FE00
0FFFFFFC00
07FFFFFC00
03FFFFF800
00FFFFE000
007FFFC000
01F7FE0000
07C0000000
0F80000000
1F80000000
1F80000000
1F80000000
1FE0000000
1FFFFFF800
1FFFFFFE00
1FFFFFFF80
0FFFFFFFC0
07FFFFFFE0
01FFFFFFE0
07FFFFFFF0
1F80003FF0
3F00000FF0
7E000007F0
7E000007F0
7E000007F0
FE000007F0
FF00000FF0
7F80001FF0
7FE0007FE0
7FFFFFFFE0
3FFFFFFFC0
1FFFFFFF80
0FFFFFFE00
03FFFFF800
003FFF8000
ENDCHAR
STARTCHAR 011E
ENCODING 286
SWIDTH 708 0
DWIDTH 51 0
BBX 42 68 4 -1
BITMAP
000400040000
001E00070000
003E000FC000
003F001F8000
003F801F8000
001FC03F8000
001FE0FF0000
000FFFFE0000
000FFFFE0000
0007FFFC0000
0003FFF80000
0000FFF00000
00003F800000
000000000000
000000000000
000000000000
00007FE00000
0007FFFE0000
001FFFFF8000
003FFFFFC000
00FFFFFFF000
01FFFFFFF800
03FFFFFFFC00
07FFC03FFC00
07FE000FFE00
0FFC0003FF00
1FF80001FF00
1FF00000FF80
3FE000007C00
3FC000007000
3FC000002000
7FC000000000
7F8000000000
7F8000000000
7F8000000000
FF8000000000
FF8000000000
FF8000000000
FF8000000000
FF8000000000
FF8001FFFFC0
FF8001FFFFC0
FF8001FFFFC0
FF8001FFFFC0
FF8001FFFFC0
FF8001FFFFC0
FF8001FFFFC0
FF8000003FC0
FF8000003FC0
7F8000003FC0
7F8000003FC0
7F8000003FC0
7FC000003FC0
3FC000003FC0
3FC000007FC0
3FE000007FC0
1FF00000FFC0
1FF80001FFC0
0FFC0003FFC0
0FFE0007FFC0
07FFC03FDFC0
03FFFFFFDFC0
01FFFFFF9FC0
00FFFFFF1FC0
007FFFFE1FC0
001FFFFC1FC0
0007FFF81FC0
0000FF800000
ENDCHAR
STARTCHAR 011F
ENCODING 287
SWIDTH 541 0
DWIDTH 39 0
BBX 36 70 2 -15
BITMAP
0040004000
01E000F000
07E000F800
03F001F800
03F003F800
01F807F000
01FE0FF000
00FFFFE000
00FFFFE000
007FFFC000
003FFF8000
001FFE0000
0003F80000
0000000000
0000000000
0000000000
0000000000
000FFC0000
007FFFFFF0
00FFFFFFF0
03FFFFFFF0
07FFFFFFF0
0FFFFFFFF0
0FFC07FFF0
1FF001FE00
1FE000FE00
1FC000FF00
1FC0007F00
3FC0007F00
3FC0007F00
3FC0007F00
1FC0007F00
1FC000FF00
1FE000FF00
1FF001FF00
0FFC07FE00
0FFFFFFC00
07FFFFFC00
03FFFFF800
00FFFFE000
007FFFC000
01F7FE0000
07C0000000
0F80000000
1F80000000
1F80000000
1F80000000
1FE0000000
1FFFFFF800
1FFFFFFE00
1FFFFFFF80
0FFFFFFFC0
07FFFFFFE0
01FFFFFFE0
07FFFFFFF0
1F80003FF0
3F00000FF0
7E000007F0
7E000007F0
7E000007F0
FE000007F0
FF00000FF0
7F80001FF0
7FE0007FE0
7FFFFFFFE0
3FFFFFFFC0
1FFFFFFF80
0FFFFFFE00
03FFFFF800
003FFF8000
ENDCHAR
STARTCHAR 0120
ENCODING 288
SWIDTH 708 0
DWIDTH 51 0
BBX 42 66 4 -1
BITMAP
00001F800000
00003FC00000
00007FC00000
00007FE00000
00007FE00000
00007FE00000
00007FE00000
00007FC00000
00003FC00000
00001F000000
000000000000
000000000000
000000000000
000000000000
00007FE00000
0007FFFE0000
001FFFFF8000
003FFFFFC000
00FFFFFFF000
01FFFFFFF800
03FFFFFFFC00
07FFC03FFC00
07FE000FFE00
0FFC0003FF00
1FF80001FF00
1FF00000FF80
3FE000007C00
3FC000007000
3FC000002000
7FC000000000
7F8000000000
7F8000000000
7F8000000000
FF8000000000
FF8000000000
FF8000000000
FF8000000000
FF8000000000
FF8001FFFFC0
FF8001FFFFC0
FF8001FFFFC0
FF8001FFFFC0
FF8001FFFFC0
FF8001FFFFC0
FF8001FFFFC0
FF8000003FC0
FF8000003FC0
7F8000003FC0
7F8000003FC0
7F8000003FC0
7FC000003FC0
3FC000003FC0
3FC000007FC0
3FE000007FC0
1FF00000FFC0
1FF80001FFC0
0FFC0003FFC0
0FFE0007FFC0
07FFC03FDFC0
03FFFFFFDFC0
01FFFFFF9FC0
00FFFFFF1FC0
007FFFFE1FC0
001FFFFC1FC0
0007FFF81FC0
0000FF800000
ENDCHAR
STARTCHAR 0121
ENCODING 289
SWIDTH 541 0
DWIDTH 39 0
BBX 36 69 2 -15
BITMAP
0001F00000
0007F80000
0007FC0000
0007FC0000
0007FC0000
0007FC0000
0007FC0000
0007FC0000
0007F80000
0001F00000
0000000000
0000000000
0000000000
0000000000
0000000000
0000000000
000FFC0000
007FFFFFF0
00FFFFFFF0
03FFFFFFF0
07FFFFFFF0
0FFFFFFFF0
0FFC07FFF0
1FF001FE00
1FE000FE00
1FC000FF00
1FC0007F00
3FC0007F00
3FC0007F00
3FC0007F00
1FC0007F00
1FC000FF00
1FE000FF00
1FF001FF00
0FFC07FE00
0FFFFFFC00
07FFFFFC00
03FFFFF800
00FFFFE000
007FFFC000
01F7FE0000
07C0000000
0F80000000
1F80000000
1F80000000
1F80000000
1FE0000000
1FFFFFF800
1FFFFFFE00
1FFFFFFF80
0FFFFFFFC0
07FFFFFFE0
01FFFFFFE0
07FFFFFFF0
1F80003FF0
3F00000FF0
7E000007F0
7E000007F0
7E000007F0
FE000007F0
FF00000FF0
7F80001FF0
7FE0007FE0
7FFFFFFFE0
3FFFFFFFC0
1FFFFFFF80
0FFFFFFE00
03FFFFF800
003FFF8000
ENDCHAR
STARTCHAR 0122
ENCODING 290
SWIDTH 708 0
DWIDTH 51 0
BBX 42 69 4 -18
BITMAP
00007FE00000
0007FFFE0000
001FFFFF8000
003FFFFFC000
00FFFFFFF000
01FFFFFFF800
03FFFFFFFC00
07FFC03FFC00
07FE000FFE00
0FFC0003FF00
1FF80001FF00
1FF00000FF80
3FE000007C00
3FC000007000
3FC000002000
7FC000000000
7F8000000000
7F8000000000
7F8000000000
FF8000000000
FF8000000000
FF8000000000
FF8000000000
FF8000000000
FF8001FFFFC0
FF8001FFFFC0
FF8001FFFFC0
FF8001FFFFC0
FF8001FFFFC0
FF8001FFFFC0
FF8001FFFFC0
FF8000003FC0
FF8000003FC0
7F8000003FC0
7F8000003FC0
7F8000003FC0
7FC000003FC0
3FC000003FC0
3FC000007FC0
3FE000007FC0
1FF00000FFC0
1FF80001FFC0
0FFC0003FFC0
0FFE0007FFC0
07FFC03FDFC0
03FFFFFFDFC0
01FFFFFF9FC0
00FFFFFF1FC0
007FFFFE1FC0
001FFFFC1FC0
0007FFF81FC0
0000FF800000
000000000000
000000000000
000000000000
00001F000000
00007F800000
00007F800000
00007F800000
00007F800000
00007F800000
00007F800000
00003F800000
00000F800000
00001F000000
00001F000000
00003E000000
00007C000000
0000F8000000
ENDCHAR
STARTCHAR 0123
ENCODING 291
SWIDTH 541 0
DWIDTH 39 0
BBX 36 72 2 -15
BITMAP
00007E0000
0000F80000
0001F00000
0001F00000
0003E00000
0003E00000
0003F00000
0007F80000
0007FC0000
0007FC0000
0007FC0000
0007FC0000
0003F80000
0001F00000
0000000000
0000000000
0000000000
0000000000
0000000000
000FFC0000
007FFFFFF0
00FFFFFFF0
03FFFFFFF0
07FFFFFFF0
0FFFFFFFF0
0FFC07FFF0
1FF001FE00
1FE000FE00
1FC000FF00
1FC0007F00
3FC0007F00
3FC0007F00
3FC0007F00
1FC0007F00
1FC000FF00
1FE000FF00
1FF001FF00
0FFC07FE00
0FFFFFFC00
07FFFFFC00
03FFFFF800
00FFFFE000
007FFFC000
01F7FE0000
07C0000000
0F80000000
1F80000000
1F80000000
1F80000000
1FE0000000
1FFFFFF800
1FFFFFFE00
1FFFFFFF80
0FFFFFFFC0
07FFFFFFE0
01FFFFFFE0
07FFFFFFF0
1F80003FF0
3F00000FF0
7E000007F0
7E000007F0
7E000007F0
FE000007F0
FF00000FF0
7F80001FF0
7FE0007FE0
7FFFFFFFE0
3FFFFFFFC0
1FFFFFFF80
0FFFFFFE00
03FFFFF800
003FFF8000
ENDCHAR
STARTCHAR 0124
ENCODING 292
SWIDTH 708 0
DWIDTH 51 0
BBX 39 68 6 0
BITMAP
0001FF0000
0001FF8000
0003FFC000
0007FFC000
000FFFE000
001FFFF000
001FEFF800
003FC7FC00
007F83FC00
00FF01FE00
01FE007F00
00FC003F00
0078001C00
0030000800
0000000000
0000000000
0000000000
0000000000
FF000001FE
FF000001FE
FF000001FE
FF000001FE
FF000001FE
FF000001FE
FF000001FE
FF000001FE
FF000001FE
FF000001FE
FF000001FE
FF000001FE
FF000001FE
FF000001FE
FF000001FE
FF000001FE
FF000001FE
FF000001FE
FF000001FE
FF000001FE
FF000001FE
FFFFFFFFFE
FFFFFFFFFE
FFFFFFFFFE
FFFFFFFFFE
FFFFFFFFFE
FFFFFFFFFE
FFFFFFFFFE
FF000001FE
FF000001FE
FF000001FE
FF000001FE
FF000001FE
FF000001FE
FF000001FE
FF000001FE
FF000001FE
FF000001FE
FF000001FE
FF000001FE
FF000001FE
FF000001FE
FF000001FE
FF000001FE
FF000001FE
FF000001FE
FF000001FE
FF000001FE
FF000001FE
FF000001FE
ENDCHAR
STARTCHAR 0125
ENCODING 293
SWIDTH 583 0
DWIDTH 42 0
BBX 40 67 -3 0
BITMAP
00FF800000
00FFC00000
01FFE00000
03FFE00000
07FFF00000
0FFFF80000
0FF7FC0000
1FE3FE0000
3FC1FE0000
7F80FF0000
FF003F8000
7E001F8000
3C000E0000
0800040000
007F000000
007F000000
007F000000
007F000000
007F000000
007F000000
007F000000
007F000000
007F000000
007F000000
007F000000
007F000000
007F000000
007F000000
007F000000
007F00FE00
007F07FFC0
007F0FFFE0
007F1FFFF0
007F3FFFF8
007F3FFFFC
007F7FFFFC
007FF80FFC
007FE007FE
007FC003FE
007F8001FE
007F8001FE
007F8001FE
007F0000FE
007F0000FF
007F0000FF
007F0000FF
007F0000FF
007F0000FF
007F0000FF
007F0000FF
007F0000FF
007F0000FF
007F0000FF
007F0000FF
007F0000FF
007F0000FF
007F0000FF
007F0000FF
007F0000FF
007F0000FF
007F0000FF
007F0000FF
007F0000FF
007F0000FF
007F0000FF
007F0000FF
007F0000FF
ENDCHAR
STARTCHAR 0126
ENCODING 294
SWIDTH 722 0
DWIDTH 52 0
BBX 50 50 1 0
BITMAP
07FC00000FF800
07FC00000FF800
07FC00000FF800
07FC00000FF800
07FC00000FF800
07FC00000FF800
07FC00000FF800
FFFFFFFFFFFFC0
FFFFFFFFFFFFC0
FFFFFFFFFFFFC0
FFFFFFFFFFFFC0
FFFFFFFFFFFFC0
FFFFFFFFFFFFC0
07FC00000FF800
07FC00000FF800
07FC00000FF800
07FC00000FF800
07FC00000FF800
07FC00000FF800
07FC00000FF800
07FC00000FF800
07FFFFFFFFF800
07FFFFFFFFF800
07FFFFFFFFF800
07FFFFFFFFF800
07FFFFFFFFF800
07FFFFFFFFF800
07FFFFFFFFF800
07FC00000FF800
07FC00000FF800
07FC00000FF800
07FC00000FF800
07FC00000FF800
07FC00000FF800
07FC00000FF800
07FC00000FF800
07FC00000FF800
07FC00000FF800
07FC00000FF800
07FC00000FF800
07FC00000FF800
07FC00000FF800
07FC00000FF800
07FC00000FF800
07FC00000FF800
07FC00000FF800
07FC00000FF800
07FC00000FF800
07FC00000FF800
07FC00000FF800
ENDCHAR
STARTCHAR 0127
ENCODING 295
SWIDTH 583 0
DWIDTH 42 0
BBX 36 53 1 0
BITMAP
07F0000000
07F0000000
07F0000000
07F0000000
07F0000000
FFFFFE0000
FFFFFE0000
FFFFFE0000
FFFFFE0000
FFFFFE0000
07F0000000
07F0000000
07F0000000
07F0000000
07F0000000
07F00FE000
07F07FFC00
07F0FFFE00
07F1FFFF00
07F3FFFF80
07F3FFFFC0
07F7FFFFC0
07FF80FFC0
07FE007FE0
07FC003FE0
07F8001FE0
07F8001FE0
07F8001FE0
07F0000FE0
07F0000FF0
07F0000FF0
07F0000FF0
07F0000FF0
07F0000FF0
07F0000FF0
07F0000FF0
07F0000FF0
07F0000FF0
07F0000FF0
07F0000FF0
07F0000FF0
07F0000FF0
07F0000FF0
07F0000FF0
07F0000FF0
07F0000FF0
07F0000FF0
07F0000FF0
07F0000FF0
07F0000FF0
07F0000FF0
07F0000FF0
07F0000FF0
ENDCHAR
STARTCHAR 0128
ENCODING 296
SWIDTH 416 0
DWIDTH 30 0
BBX 25 65 2 0
BITMAP
07E00000
1FF80200
3FFF0700
7FFFFF80
FFFFFF80
7FFFFF80
383FFF00
1007FE00
0001F800
00000000
00000000
00000000
00000000
00000000
00000000
3FFFFF00
3FFFFF00
3FFFFF00
3FFFFF00
3FFFFF00
3FFFFF00
3FFFFF00
007F8000
007F8000
007F8000
007F8000
007F8000
007F8000
007F8000
007F8000
007F8000
007F8000
007F8000
007F8000
007F8000
007F8000
007F8000
007F8000
007F8000
007F8000
007F8000
007F8000
007F8000
007F8000
007F8000
007F8000
007F8000
007F8000
007F8000
007F8000
007F8000
007F8000
007F8000
007F8000
007F8000
007F8000
007F8000
007F8000
3FFFFF00
3FFFFF00
3FFFFF00
3FFFFF00
3FFFFF00
3FFFFF00
3FFFFF00
ENDCHAR
STARTCHAR 0129
ENCODING 297
SWIDTH 263 0
DWIDTH 19 0
BBX 25 53 -3 0
BITMAP
0FC00000
1FF80200
7FFF0F00
FFFFFF00
FFFFFF80
7FFFFF80
383FFF00
200FFE00
0001F800
00000000
00000000
00000000
00000000
00000000
00000000
00000000
007F0000
007F0000
007F0000
007F0000
007F0000
007F0000
007F0000
007F0000
007F0000
007F0000
007F0000
007F0000
007F0000
007F0000
007F0000
007F0000
007F0000
007F0000
007F0000
007F0000
007F0000
007F0000
007F0000
007F0000
007F0000
007F0000
007F0000
007F0000
007F0000
007F0000
007F0000
007F0000
007F0000
007F0000
007F0000
007F0000
007F0000
ENDCHAR
STARTCHAR 012A
ENCODING 298
SWIDTH 416 0
DWIDTH 30 0
BBX 22 63 4 0
BITMAP
FFFFF8
FFFFF8
FFFFF8
FFFFF8
FFFFF8
FFFFF8
000000
000000
000000
000000
000000
000000
000000
FFFFFC
FFFFFC
FFFFFC
FFFFFC
FFFFFC
FFFFFC
FFFFFC
01FE00
01FE00
01FE00
01FE00
01FE00
01FE00
01FE00
01FE00
01FE00
01FE00
01FE00
01FE00
01FE00
01FE00
01FE00
01FE00
01FE00
01FE00
01FE00
01FE00
01FE00
01FE00
01FE00
01FE00
01FE00
01FE00
01FE00
01FE00
01FE00
01FE00
01FE00
01FE00
01FE00
01FE00
01FE00
01FE00
FFFFFC
FFFFFC
FFFFFC
FFFFFC
FFFFFC
FFFFFC
FFFFFC
ENDCHAR
STARTCHAR 012B
ENCODING 299
SWIDTH 263 0
DWIDTH 19 0
BBX 21 51 -1 0
BITMAP
FFFFF8
FFFFF8
FFFFF8
FFFFF8
FFFFF8
FFFFF8
000000
000000
000000
000000
000000
000000
000000
000000
01FC00
01FC00
01FC00
01FC00
01FC00
01FC00
01FC00
01FC00
01FC00
01FC00
01FC00
01FC00
01FC00
01FC00
01FC00
01FC00
01FC00
01FC00
01FC00
01FC00
01FC00
01FC00
01FC00
01FC00
01FC00
01FC00
01FC00
01FC00
01FC00
01FC00
01FC00
01FC00
01FC00
01FC00
01FC00
01FC00
01FC00
ENDCHAR
STARTCHAR 012C
ENCODING 300
SWIDTH 416 0
DWIDTH 30 0
BBX 24 67 3 0
BITMAP
100018
78001C
FC003F
FC003F
7E007E
7F00FE
7F81FC
3FFFFC
1FFFF8
0FFFF0
07FFE0
03FFC0
00FF00
000000
000000
000000
000000
7FFFFE
7FFFFE
7FFFFE
7FFFFE
7FFFFE
7FFFFE
7FFFFE
00FF00
00FF00
00FF00
00FF00
00FF00
00FF00
00FF00
00FF00
00FF00
00FF00
00FF00
00FF00
00FF00
00FF00
00FF00
00FF00
00FF00
00FF00
00FF00
00FF00
00FF00
00FF00
00FF00
00FF00
00FF00
00FF00
00FF00
00FF00
00FF00
00FF00
00FF00
00FF00
00FF00
00FF00
00FF00
00FF00
7FFFFE
7FFFFE
7FFFFE
7FFFFE
7FFFFE
7FFFFE
7FFFFE
ENDCHAR
STARTCHAR 012D
ENCODING 301
SWIDTH 263 0
DWIDTH 19 0
BBX 25 55 -3 0
BITMAP
08000800
3C001E00
FC001F80
7E003F00
7F007F00
3F807E00
3FC1FE00
1FFFFC00
1FFFFC00
0FFFF800
07FFF000
01FFC000
007F0000
00000000
00000000
00000000
00000000
00000000
007F0000
007F0000
007F0000
007F0000
007F0000
007F0000
007F0000
007F0000
007F0000
007F0000
007F0000
007F0000
007F0000
007F0000
007F0000
007F0000
007F0000
007F0000
007F0000
007F0000
007F0000
007F0000
007F0000
007F0000
007F0000
007F0000
007F0000
007F0000
007F0000
007F0000
007F0000
007F0000
007F0000
007F0000
007F0000
007F0000
007F0000
ENDCHAR
STARTCHAR 012E
ENCODING 302
SWIDTH 416 0
DWIDTH 30 0
BBX 24 65 4 -15
BITMAP
FFFFFC
FFFFFC
FFFFFC
FFFFFC
FFFFFC
FFFFFC
FFFFFC
01FE00
01FE00
01FE00
01FE00
01FE00
01FE00
01FE00
01FE00
01FE00
01FE00
01FE00
01FE00
01FE00
01FE00
01FE00
01FE00
01FE00
01FE00
01FE00
01FE00
01FE00
01FE00
01FE00
01FE00
01FE00
01FE00
01FE00
01FE00
01FE00
01FE00
01FE00
01FE00
01FE00
01FE00
01FE00
01FE00
FFFFFC
FFFFFC
FFFFFC
FFFFFC
FFFFFC
FFFFFC
FFFFFC
0000F8
0001F0
0007E0
000FC0
001F80
003F00
007E00
007E00
007C00
007C08
007E1C
007FFE
003FFF
001FFC
0007F0
ENDCHAR
STARTCHAR 012F
ENCODING 303
SWIDTH 263 0
DWIDTH 19 0
BBX 15 69 0 -15
BITMAP
01F0
03F8
07FC
07FC
07FC
07FC
07FC
07FC
03F8
01F0
0000
0000
0000
0000
0000
0000
0000
03F8
03F8
03F8
03F8
03F8
03F8
03F8
03F8
03F8
03F8
03F8
03F8
03F8
03F8
03F8
03F8
03F8
03F8
03F8
03F8
03F8
03F8
03F8
03F8
03F8
03F8
03F8
03F8
03F8
03F8
03F8
03F8
03F8
03F8
03F8
03F8
03F8
00F8
03F0
07C0
1F80
3F00
7E00
7E00
FC00
FC00
FC08
FE3C
7FFE
7FFE
3FFC
0FF0
ENDCHAR
STARTCHAR 0130
ENCODING 304
SWIDTH 416 0
DWIDTH 30 0
BBX 22 65 4 0
BITMAP
00FC00
01FE00
03FF00
03FF00
03FF00
03FF00
03FF00
03FF00
01FE00
00FC00
000000
000000
000000
000000
000000
FFFFFC
FFFFFC
FFFFFC
FFFFFC
FFFFFC
FFFFFC
FFFFFC
01FE00
01FE00
01FE00
01FE00
01FE00
01FE00
01FE00
01FE00
01FE00
01FE00
01FE00
01FE00
01FE00
01FE00
01FE00
01FE00
01FE00
01FE00
01FE00
01FE00
01FE00
01FE00
01FE00
01FE00
01FE00
01FE00
01FE00
01FE00
01FE00
01FE00
01FE00
01FE00
01FE00
01FE00
01FE00
01FE00
FFFFFC
FFFFFC
FFFFFC
FFFFFC
FFFFFC
FFFFFC
FFFFFC
ENDCHAR
STARTCHAR 0131
ENCODING 305
SWIDTH 263 0
DWIDTH 19 0
BBX 7 37 6 0
BITMAP
FE
FE
FE
FE
FE
FE
FE
FE
FE
FE
FE
FE
FE
FE
FE
FE
FE
FE
FE
FE
FE
FE
FE
FE
FE
FE
FE
FE
FE
FE
FE
FE
FE
FE
FE
FE
FE
ENDCHAR
STARTCHAR 0132
ENCODING 306
SWIDTH 652 0
DWIDTH 47 0
BBX 35 51 6 -1
BITMAP
FF003FFFE0
FF003FFFE0
FF003FFFE0
FF003FFFE0
FF003FFFE0
FF003FFFE0
FF003FFFE0
FF00001FE0
FF00001FE0
FF00001FE0
FF00001FE0
FF00001FE0
FF00001FE0
FF00001FE0
FF00001FE0
FF00001FE0
FF00001FE0
FF00001FE0
FF00001FE0
FF00001FE0
FF00001FE0
FF00001FE0
FF00001FE0
FF00001FE0
FF00001FE0
FF00001FE0
FF00001FE0
FF00001FE0
FF00001FE0
0000001FE0
0000001FE0
0000001FE0
0000001FE0
0000001FE0
0000001FE0
0000001FE0
0000001FE0
0F00001FE0
FF00003FE0
7F80003FC0
7F80007FC0
7FC0007FC0
3FF001FF80
3FFC07FF80
1FFFFFFF00
0FFFFFFE00
0FFFFFFC00
03FFFFF800
01FFFFF000
007FFFC000
000FFE0000
ENDCHAR
STARTCHAR 0133
ENCODING 307
SWIDTH 527 0
DWIDTH 38 0
BBX 28 68 5 -14
BITMAP
3E0007C0
7F000FE0
FF801FF0
FF801FF0
FF801FF0
FF801FF0
FF801FF0
FF801FF0
7F000FE0
3E0007C0
00000000
00000000
00000000
00000000
00000000
00000000
00000000
7F001FE0
7F001FE0
7F001FE0
7F001FE0
7F001FE0
7F001FE0
7F001FE0
7F001FE0
7F001FE0
7F001FE0
7F001FE0
7F001FE0
7F001FE0
7F001FE0
7F001FE0
7F001FE0
7F001FE0
7F001FE0
7F001FE0
7F001FE0
7F001FE0
7F001FE0
7F001FE0
7F001FE0
7F001FE0
7F001FE0
7F001FE0
7F001FE0
7F001FE0
7F001FE0
7F001FE0
7F001FE0
7F001FE0
7F001FE0
7F001FE0
7F001FE0
7F001FE0
00001FE0
00001FE0
00001FE0
00001FE0
00001FE0
00001FE0
00001FE0
0003FFE0
0003FFE0
0003FFC0
0003FFC0
0003FF80
0003FF00
0003FC00
ENDCHAR
STARTCHAR 0134
ENCODING 308
SWIDTH 527 0
DWIDTH 38 0
BBX 31 69 2 -1
BITMAP
0003FE00
0007FE00
000FFF00
001FFF80
001FFFC0
003FFFE0
007FDFE0
00FF8FF0
00FF07F8
01FC03FC
03F801FC
03F000FE
00E00078
00400020
00000000
00000000
00000000
00000000
03FFFFFC
03FFFFFC
03FFFFFC
03FFFFFC
03FFFFFC
03FFFFFC
03FFFFFC
000003FC
000003FC
000003FC
000003FC
000003FC
000003FC
000003FC
000003FC
000003FC
000003FC
000003FC
000003FC
000003FC
000003FC
000003FC
000003FC
000003FC
000003FC
000003FC
000003FC
000003FC
000003FC
000003FC
000003FC
000003FC
000003FC
000003FC
000003FC
000003FC
000003FC
070003FC
7F0003FC
FF0003FC
FF8007FC
7F8007FC
7FC00FF8
3FF03FF8
3FFFFFF0
1FFFFFF0
0FFFFFE0
07FFFFC0
03FFFF00
01FFFC00
003FE000
ENDCHAR
STARTCHAR 0135
ENCODING 309
SWIDTH 263 0
DWIDTH 19 0
BBX 25 70 -3 -14
BITMAP
00FF8000
01FFC000
01FFE000
03FFE000
07FFF000
0FFFF800
0FF7FC00
1FE3FE00
3FC1FE00
7F80FF00
FF007F80
7E001F00
3C000E00
18000400
00000000
00000000
00000000
00000000
00000000
007F0000
007F0000
007F0000
007F0000
007F0000
007F0000
007F0000
007F0000
007F0000
007F0000
007F0000
007F0000
007F0000
007F0000
007F0000
007F0000
007F0000
007F0000
007F0000
007F0000
007F0000
007F0000
007F0000
007F0000
007F0000
007F0000
007F0000
007F0000
007F0000
007F0000
007F0000
007F0000
007F0000
007F0000
007F0000
007F0000
007F0000
007F0000
007F0000
007F0000
007F0000
007F0000
007F0000
007F0000
1FFF0000
1FFF0000
1FFF0000
1FFE0000
1FFC0000
1FF80000
1FE00000
ENDCHAR
STARTCHAR 0136
ENCODING 310
SWIDTH 666 0
DWIDTH 48 0
BBX 40 68 6 -18
BITMAP
FF000007FE
FF00000FFC
FF00001FF8
FF00003FF0
FF00003FE0
FF00007FC0
FF0000FF80
FF0001FF00
FF0003FF00
FF0007FE00
FF0007FC00
FF000FF800
FF001FF000
FF003FE000
FF007FE000
FF00FFC000
FF00FF8000
FF01FF0000
FF03FE0000
FF07FC0000
FF0FF80000
FF0FF80000
FF1FFC0000
FF3FFE0000
FF7FFE0000
FFFFFF0000
FFFFFF8000
FFFEFF8000
FFFCFFC000
FFF87FE000
FFF03FE000
FFE03FF000
FFC01FF800
FF800FF800
FF000FFC00
FF0007FE00
FF0003FE00
FF0003FF00
FF0001FF80
FF0000FF80
FF0000FFC0
FF00007FE0
FF00003FE0
FF00003FF0
FF00001FF8
FF00000FF8
FF00000FFC
FF000007FE
FF000003FE
FF000003FF
0000000000
0000000000
0000000000
0000000000
0000FC0000
0001FE0000
0001FE0000
0001FE0000
0001FE0000
0001FE0000
0001FE0000
0000FE0000
00003C0000
00007C0000
00007C0000
0000F80000
0001F00000
0003E00000
ENDCHAR
STARTCHAR 0137
ENCODING 311
SWIDTH 541 0
DWIDTH 39 0
BBX 33 71 6 -18
BITMAP
FE00000000
FE00000000
FE00000000
FE00000000
FE00000000
FE00000000
FE00000000
FE00000000
FE00000000
FE00000000
FE00000000
FE00000000
FE00000000
FE00000000
FE00000000
FE00000000
FE0003FE00
FE0007FC00
FE000FF800
FE001FF000
FE003FE000
FE007FC000
FE00FF8000
FE01FF0000
FE03FE0000
FE07FC0000
FE07FC0000
FE0FF80000
FE1FF00000
FE3FE00000
FE3FC00000
FE7FE00000
FEFFE00000
FFFFF00000
FFFFF80000
FFFFF80000
FFF7FC0000
FFE3FE0000
FFC1FE0000
FF81FF0000
FF00FF8000
FE00FF8000
FE007FC000
FE003FE000
FE003FE000
FE001FF000
FE001FF800
FE000FF800
FE0007FC00
FE0007FC00
FE0003FE00
FE0003FF00
FE0001FF00
0000000080
0000000000
0000000000
0000000000
0007E00000
000FF00000
000FF00000
000FF00000
000FF00000
000FF00000
000FF00000
0007F00000
0003E00000
0003E00000
0003E00000
0007C00000
000F800000
001F000000
ENDCHAR
STARTCHAR 0138
ENCODING 312
SWIDTH 541 0
DWIDTH 39 0
BBX 33 37 6 0
BITMAP
FE0003FF00
FE0007FE00
FE000FFC00
FE000FF800
FE001FF000
FE003FE000
FE007FC000
FE00FF8000
FE01FF0000
FE03FE0000
FE07FC0000
FE0FF80000
FE1FF00000
FE3FE00000
FE3FC00000
FE7FE00000
FEFFF00000
FFFFF00000
FFFFF80000
FFFFF80000
FFF7FC0000
FFE3FE0000
FFC3FE0000
FF81FF0000
FF00FF8000
FE00FF8000
FE007FC000
FE003FE000
FE003FE000
FE001FF000
FE001FF800
FE000FF800
FE0007FC00
FE0007FC00
FE0003FE00
FE0001FF00
FE0001FF80
ENDCHAR
STARTCHAR 0139
ENCODING 313
SWIDTH 513 0
DWIDTH 37 0
BBX 29 69 6 0
BITMAP
03000000
03E00000
07F80000
07FC0000
0FF80000
0FF00000
1FE00000
1FC00000
3FC00000
3F800000
7F000000
7F000000
FE000000
3C000000
0C000000
00000000
00000000
00000000
00000000
FF000000
FF000000
FF000000
FF000000
FF000000
FF000000
FF000000
FF000000
FF000000
FF000000
FF000000
FF000000
FF000000
FF000000
FF000000
FF000000
FF000000
FF000000
FF000000
FF000000
FF000000
FF000000
FF000000
FF000000
FF000000
FF000000
FF000000
FF000000
FF000000
FF000000
FF000000
FF000000
FF000000
FF000000
FF000000
FF000000
FF000000
FF000000
FF000000
FF000000
FF000000
FF000000
FF000000
FFFFFFF8
FFFFFFF8
FFFFFFF8
FFFFFFF8
FFFFFFF8
FFFFFFF8
FFFFFFF8
ENDCHAR
STARTCHAR 013A
ENCODING 314
SWIDTH 291 0
DWIDTH 21 0
BBX 13 71 6 0
BITMAP
0300
07C0
07F0
0FF8
0FF0
1FE0
1FC0
3FC0
3F80
7F00
7F00
FE00
FC00
7C00
1800
0000
0000
0000
FE00
FE00
FE00
FE00
FE00
FE00
FE00
FE00
FE00
FE00
FE00
FE00
FE00
FE00
FE00
FE00
FE00
FE00
FE00
FE00
FE00
FE00
FE00
FE00
FE00
FE00
FE00
FE00
FE00
FE00
FE00
FE00
FE00
FE00
FE00
FE00
FE00
FE00
FE00
FE00
FE00
FE00
FE00
FE00
FE00
FE00
FFF8
FFF8
FFF8
7FF8
7FF8
3FF8
0FF8
ENDCHAR
STARTCHAR 013B
ENCODING 315
SWIDTH 513 0
DWIDTH 37 0
BBX 29 68 6 -18
BITMAP
FF000000
FF000000
FF000000
FF000000
FF000000
FF000000
FF000000
FF000000
FF000000
FF000000
FF000000
FF000000
FF000000
FF000000
FF000000
FF000000
FF000000
FF000000
FF000000
FF000000
FF000000
FF000000
FF000000
FF000000
FF000000
FF000000
FF000000
FF000000
FF000000
FF000000
FF000000
FF000000
FF000000
FF000000
FF000000
FF000000
FF000000
FF000000
FF000000
FF000000
FF000000
FF000000
FF000000
FFFFFFF8
FFFFFFF8
FFFFFFF8
FFFFFFF8
FFFFFFF8
FFFFFFF8
FFFFFFF8
00000000
00000000
00000000
00000000
000FC000
001FE000
001FE000
001FE000
001FE000
001FE000
001FE000
000FE000
0003E000
0007C000
0007C000
000F8000
001F0000
003E0000
ENDCHAR
STARTCHAR 013C
ENCODING 316
SWIDTH 291 0
DWIDTH 21 0
BBX 13 71 6 -18
BITMAP
FE00
FE00
FE00
FE00
FE00
FE00
FE00
FE00
FE00
FE00
FE00
FE00
FE00
FE00
FE00
FE00
FE00
FE00
FE00
FE00
FE00
FE00
FE00
FE00
FE00
FE00
FE00
FE00
FE00
FE00
FE00
FE00
FE00
FE00
FE00
FE00
FE00
FE00
FE00
FE00
FE00
FE00
FE00
FE00
FE00
FE00
FFF8
FFF8
FFF8
7FF8
7FF8
3FF8
0FF8
0000
0000
0000
0000
0F80
3FC0
3FC0
3FC0
3FC0
3FC0
3FC0
1FC0
07C0
0F80
0F80
1F00
3E00
7C00
ENDCHAR
STARTCHAR 013D
ENCODING 317
SWIDTH 513 0
DWIDTH 37 0
BBX 29 53 6 0
BITMAP
0003FE00
0003FE00
0003FC00
FF03FC00
FF03FC00
FF03FC00
FF03F800
FF03F800
FF03F800
FF03F000
FF03F000
FF03F000
FF03F000
FF03E000
FF000000
FF000000
FF000000
FF000000
FF000000
FF000000
FF000000
FF000000
FF000000
FF000000
FF000000
FF000000
FF000000
FF000000
FF000000
FF000000
FF000000
FF000000
FF000000
FF000000
FF000000
FF000000
FF000000
FF000000
FF000000
FF000000
FF000000
FF000000
FF000000
FF000000
FF000000
FF000000
FFFFFFF8
FFFFFFF8
FFFFFFF8
FFFFFFF8
FFFFFFF8
FFFFFFF8
FFFFFFF8
ENDCHAR
STARTCHAR 013E
ENCODING 318
SWIDTH 305 0
DWIDTH 22 0
BBX 21 53 6 0
BITMAP
FE0FF8
FE0FF0
FE0FF0
FE0FF0
FE0FF0
FE0FE0
FE0FE0
FE0FE0
FE0FC0
FE0FC0
FE0FC0
FE0FC0
FE0F80
FE0F80
FE1000
FE0000
FE0000
FE0000
FE0000
FE0000
FE0000
FE0000
FE0000
FE0000
FE0000
FE0000
FE0000
FE0000
FE0000
FE0000
FE0000
FE0000
FE0000
FE0000
FE0000
FE0000
FE0000
FE0000
FE0000
FE0000
FE0000
FE0000
FE0000
FE0000
FE0000
FE0000
FFF800
FFF800
FFF800
7FF800
7FF800
3FF800
0FF800
ENDCHAR
STARTCHAR 013F
ENCODING 319
SWIDTH 513 0
DWIDTH 37 0
BBX 29 50 6 0
BITMAP
FF000000
FF000000
FF000000
FF000000
FF000000
FF000000
FF000000
FF000000
FF000000
FF000000
FF000000
FF000000
FF000000
FF000000
FF000000
FF000000
FF000000
FF000000
FF000F80
FF001FE0
FF003FE0
FF003FE0
FF003FE0
FF003FE0
FF003FE0
FF003FE0
FF001FE0
FF000F80
FF000000
FF000000
FF000000
FF000000
FF000000
FF000000
FF000000
FF000000
FF000000
FF000000
FF000000
FF000000
FF000000
FF000000
FF000000
FFFFFFF8
FFFFFFF8
FFFFFFF8
FFFFFFF8
FFFFFFF8
FFFFFFF8
FFFFFFF8
ENDCHAR
STARTCHAR 0140
ENCODING 320
SWIDTH 402 0
DWIDTH 29 0
BBX 23 53 6 0
BITMAP
FE0000
FE0000
FE0000
FE0000
FE0000
FE0000
FE0000
FE0000
FE0000
FE0000
FE0000
FE0000
FE0000
FE0000
FE0000
FE0000
FE0000
FE0000
FE0000
FE0000
FE0000
FE0000
FE0000
FE0000
FE01F0
FE03FC
FE07FC
FE07FE
FE07FE
FE07FE
FE07FE
FE07FC
FE03FC
FE01F8
FE0000
FE0000
FE0000
FE0000
FE0000
FE0000
FE0000
FE0000
FE0000
FE0000
FE0000
FE0000
FFF800
FFF800
FFF800
7FF800
7FF800
3FF800
0FF800
ENDCHAR
STARTCHAR 0141
ENCODING 321
SWIDTH 527 0
DWIDTH 38 0
BBX 36 50 -1 0
BITMAP
01FF000000
01FF000000
01FF000000
01FF000000
01FF000000
01FF000000
01FF000000
01FF000000
01FF000000
01FF000000
01FF000000
01FF000000
01FF000000
01FF000000
01FF000000
01FF000000
01FF000000
01FF000000
01FF001000
01FF007000
01FF03F000
01FF1FF000
01FFFFF000
01FFFFF000
01FFFFF000
01FFFF8000
0FFFFC0000
FFFFE00000
FFFF000000
FFFF000000
FFFF000000
FFFF000000
F1FF000000
81FF000000
01FF000000
01FF000000
01FF000000
01FF000000
01FF000000
01FF000000
01FF000000
01FF000000
01FF000000
01FFFFFFF0
01FFFFFFF0
01FFFFFFF0
01FFFFFFF0
01FFFFFFF0
01FFFFFFF0
01FFFFFFF0
ENDCHAR
STARTCHAR 0142
ENCODING 322
SWIDTH 291 0
DWIDTH 21 0
BBX 20 53 1 0
BITMAP
07F800
07F800
07F800
07F800
07F800
07F800
07F800
07F800
07F800
07F800
07F800
07F800
07F800
07F800
07F800
07F800
07F800
07F800
07F800
07F810
07F870
07FBF0
07FFF0
07FFF0
07FFF0
3FFFF0
FFFF80
FFFC00
FFF800
FFF800
FFF800
C7F800
07F800
07F800
07F800
07F800
07F800
07F800
07F800
07F800
07F800
07F800
07F800
07F800
07F800
07F800
07FFC0
07FFC0
07FFC0
03FFC0
03FFC0
01FFC0
007FC0
ENDCHAR
STARTCHAR 0143
ENCODING 323
SWIDTH 708 0
DWIDTH 51 0
BBX 39 69 6 0
BITMAP
0000030000
000007C000
000007F000
00000FF800
00000FF000
00001FE000
00001FE000
00003FC000
00003F8000
00007F0000
00007F0000
0000FE0000
0000FC0000
00007C0000
0000180000
0000000000
0000000000
0000000000
0000000000
FFC00001FE
FFC00001FE
FFE00001FE
FFE00001FE
FFF00001FE
FFF80001FE
FFF80001FE
FFFC0001FE
FFFC0001FE
FFFE0001FE
FFFF0001FE
FFFF0001FE
FF7F8001FE
FF7F8001FE
FF3FC001FE
FF3FC001FE
FF1FE001FE
FF1FF001FE
FF0FF001FE
FF0FF801FE
FF07F801FE
FF07FC01FE
FF03FE01FE
FF03FE01FE
FF01FF01FE
FF00FF01FE
FF00FF81FE
FF007FC1FE
FF007FC1FE
FF003FE1FE
FF001FE1FE
FF001FF1FE
FF000FF1FE
FF000FF9FE
FF0007F9FE
FF0003FDFE
FF0003FDFE
FF0001FFFE
FF0001FFFE
FF0000FFFE
FF0000FFFE
FF00007FFE
FF00003FFE
FF00003FFE
FF00001FFE
FF00001FFE
FF00000FFE
FF000007FE
FF000007FE
FF000003FE
ENDCHAR
STARTCHAR 0144
ENCODING 324
SWIDTH 583 0
DWIDTH 42 0
BBX 31 57 6 0
BITMAP
00006000
00007800
0000FE00
0000FF00
0001FE00
0001FE00
0003FC00
0003F800
0007F800
0007F000
000FE000
000FC000
001FC000
00078000
00010000
00000000
00000000
00000000
00000000
0001FC00
FE0FFF80
FE1FFFC0
FE3FFFE0
FE7FFFF0
FE7FFFF8
FEFFFFF8
FFF01FF8
FFC00FFC
FF8007FC
FF0003FC
FF0003FC
FF0003FC
FE0001FC
FE0001FE
FE0001FE
FE0001FE
FE0001FE
FE0001FE
FE0001FE
FE0001FE
FE0001FE
FE0001FE
FE0001FE
FE0001FE
FE0001FE
FE0001FE
FE0001FE
FE0001FE
FE0001FE
FE0001FE
FE0001FE
FE0001FE
FE0001FE
FE0001FE
FE0001FE
FE0001FE
FE0001FE
ENDCHAR
STARTCHAR 0145
ENCODING 325
SWIDTH 708 0
DWIDTH 51 0
BBX 39 68 6 -18
BITMAP
FFC00001FE
FFC00001FE
FFE00001FE
FFE00001FE
FFF00001FE
FFF80001FE
FFF80001FE
FFFC0001FE
FFFC0001FE
FFFE0001FE
FFFF0001FE
FFFF0001FE
FF7F8001FE
FF7F8001FE
FF3FC001FE
FF3FC001FE
FF1FE001FE
FF1FF001FE
FF0FF001FE
FF0FF801FE
FF07F801FE
FF07FC01FE
FF03FE01FE
FF03FE01FE
FF01FF01FE
FF00FF01FE
FF00FF81FE
FF007FC1FE
FF007FC1FE
FF003FE1FE
FF001FE1FE
FF001FF1FE
FF000FF1FE
FF000FF9FE
FF0007F9FE
FF0003FDFE
FF0003FDFE
FF0001FFFE
FF0001FFFE
FF0000FFFE
FF0000FFFE
FF00007FFE
FF00003FFE
FF00003FFE
FF00001FFE
FF00001FFE
FF00000FFE
FF000007FE
FF000007FE
FF000003FE
0000000000
0000000000
0000000000
0000000000
00007C0000
0000FE0000
0000FF0000
0001FF0000
0001FF0000
0001FF0000
0000FF0000
00007E0000
00003E0000
00003E0000
00007C0000
00007C0000
0000F80000
0003F00000
ENDCHAR
STARTCHAR 0146
ENCODING 326
SWIDTH 583 0
DWIDTH 42 0
BBX 31 56 6 -18
BITMAP
0001FC00
FE0FFF80
FE1FFFC0
FE3FFFE0
FE7FFFF0
FE7FFFF8
FEFFFFF8
FFF01FF8
FFC00FFC
FF8007FC
FF0003FC
FF0003FC
FF0003FC
FE0001FC
FE0001FE
FE0001FE
FE0001FE
FE0001FE
FE0001FE
FE0001FE
FE0001FE
FE0001FE
FE0001FE
FE0001FE
FE0001FE
FE0001FE
FE0001FE
FE0001FE
FE0001FE
FE0001FE
FE0001FE
FE0001FE
FE0001FE
FE0001FE
FE0001FE
FE0001FE
FE0001FE
FE0001FE
00000000
00000000
00000000
00000000
000FC000
001FE000
001FE000
001FE000
001FE000
001FE000
001FE000
000FE000
0003E000
0007C000
0007C000
000F8000
001F0000
003E0000
ENDCHAR
STARTCHAR 0147
ENCODING 327
SWIDTH 708 0
DWIDTH 51 0
BBX 39 69 6 0
BITMAP
0030000800
0078001C00
00FC003F00
01FE007F00
00FF01FE00
007F83FC00
003FC7FC00
001FEFF800
001FFFF000
000FFFE000
0007FFC000
0003FFC000
0001FF8000
0001FF0000
0000000000
0000000000
0000000000
0000000000
0000000000
FFC00001FE
FFC00001FE
FFE00001FE
FFE00001FE
FFF00001FE
FFF80001FE
FFF80001FE
FFFC0001FE
FFFC0001FE
FFFE0001FE
FFFF0001FE
FFFF0001FE
FF7F8001FE
FF7F8001FE
FF3FC001FE
FF3FC001FE
FF1FE001FE
FF1FF001FE
FF0FF001FE
FF0FF801FE
FF07F801FE
FF07FC01FE
FF03FE01FE
FF03FE01FE
FF01FF01FE
FF00FF01FE
FF00FF81FE
FF007FC1FE
FF007FC1FE
FF003FE1FE
FF001FE1FE
FF001FF1FE
FF000FF1FE
FF000FF9FE
FF0007F9FE
FF0003FDFE
FF0003FDFE
FF0001FFFE
FF0001FFFE
FF0000FFFE
FF0000FFFE
FF00007FFE
FF00003FFE
FF00003FFE
FF00001FFE
FF00001FFE
FF00000FFE
FF000007FE
FF000007FE
FF000003FE
ENDCHAR
STARTCHAR 0148
ENCODING 328
SWIDTH 583 0
DWIDTH 42 0
BBX 31 57 6 0
BITMAP
02000100
070003C0
1F8007E0
1FC00FF0
0FE01FE0
0FF83FC0
07FC7F80
03FEFF00
01FFFE00
00FFFE00
00FFFC00
007FF800
003FF000
001FF000
00000000
00000000
00000000
00000000
00000000
0001FC00
FE0FFF80
FE1FFFC0
FE3FFFE0
FE7FFFF0
FE7FFFF8
FEFFFFF8
FFF01FF8
FFC00FFC
FF8007FC
FF0003FC
FF0003FC
FF0003FC
FE0001FC
FE0001FE
FE0001FE
FE0001FE
FE0001FE
FE0001FE
FE0001FE
FE0001FE
FE0001FE
FE0001FE
FE0001FE
FE0001FE
FE0001FE
FE0001FE
FE0001FE
FE0001FE
FE0001FE
FE0001FE
FE0001FE
FE0001FE
FE0001FE
FE0001FE
FE0001FE
FE0001FE
FE0001FE
ENDCHAR
STARTCHAR 0149
ENCODING 329
SWIDTH 847 0
DWIDTH 61 0
BBX 53 54 3 0
BITMAP
07C00000000000
1FF00000000000
1FF00000000000
3FF00000000000
3FF80000000000
3FF80000000000
3FF80000000000
1FF80000000000
1FF00000000000
0FF00000000000
03F00000000000
07F00000000000
07E00000000000
07E00000000000
0FC00000000000
1F800000000000
1F80000007F000
3F0003F83FFE00
7E0003F87FFF00
FC0003F8FFFF80
000003F9FFFFC0
000003F9FFFFE0
000003FBFFFFE0
000003FFC07FE0
000003FF003FF0
000003FE001FF0
000003FC000FF0
000003FC000FF0
000003FC000FF0
000003F80007F0
000003F80007F8
000003F80007F8
000003F80007F8
000003F80007F8
000003F80007F8
000003F80007F8
000003F80007F8
000003F80007F8
000003F80007F8
000003F80007F8
000003F80007F8
000003F80007F8
000003F80007F8
000003F80007F8
000003F80007F8
000003F80007F8
000003F80007F8
000003F80007F8
000003F80007F8
000003F80007F8
000003F80007F8
000003F80007F8
000003F80007F8
000003F80007F8
ENDCHAR
STARTCHAR 014A
ENCODING 330
SWIDTH 708 0
DWIDTH 51 0
BBX 39 64 6 -14
BITMAP
FFC00001FE
FFC00001FE
FFE00001FE
FFE00001FE
FFF00001FE
FFF80001FE
FFF80001FE
FFFC0001FE
FFFC0001FE
FFFE0001FE
FFFF0001FE
FFFF0001FE
FF7F8001FE
FF7F8001FE
FF3FC001FE
FF3FC001FE
FF1FE001FE
FF1FF001FE
FF0FF001FE
FF0FF801FE
FF07F801FE
FF07FC01FE
FF03FE01FE
FF03FE01FE
FF01FF01FE
FF00FF01FE
FF00FF81FE
FF007FC1FE
FF007FC1FE
FF003FE1FE
FF001FE1FE
FF001FF1FE
FF000FF1FE
FF000FF9FE
FF0007F9FE
FF0003FDFE
FF0003FDFE
FF0001FFFE
FF0001FFFE
FF0000FFFE
FF0000FFFE
FF00007FFE
FF00003FFE
FF00003FFE
FF00001FFE
FF00001FFE
FF00000FFE
FF000007FE
FF000007FE
FF000003FE
00000001FE
00000001FE
00000001FE
00000001FE
00000001FE
00000001FE
00000001FE
0000007FFE
0000007FFE
0000007FFC
0000007FFC
0000007FF8
0000007FF0
0000007FC0
ENDCHAR
STARTCHAR 014B
ENCODING 331
SWIDTH 583 0
DWIDTH 42 0
BBX 31 52 6 -14
BITMAP
0001FC00
FE0FFF80
FE1FFFC0
FE3FFFE0
FE7FFFF0
FE7FFFF8
FEFFFFF8
FFF01FF8
FFC00FFC
FF8007FC
FF0003FC
FF0003FC
FF0003FC
FE0001FC
FE0001FE
FE0001FE
FE0001FE
FE0001FE
FE0001FE
FE0001FE
FE0001FE
FE0001FE
FE0001FE
FE0001FE
FE0001FE
FE0001FE
FE0001FE
FE0001FE
FE0001FE
FE0001FE
FE0001FE
FE0001FE
FE0001FE
FE0001FE
FE0001FE
FE0001FE
FE0001FE
FE0001FE
000001FE
000001FE
000001FE
000001FE
000001FE
000001FC
000001FC
00007FFC
00007FFC
00007FFC
00007FF8
00007FF0
00007FE0
00007F80
ENDCHAR
STARTCHAR 014C
ENCODING 332
SWIDTH 708 0
DWIDTH 51 0
BBX 43 64 4 -1
BITMAP
001FFFFF0000
001FFFFF0000
001FFFFF0000
001FFFFF0000
001FFFFF0000
001FFFFF0000
000000000000
000000000000
000000000000
000000000000
000000000000
000000000000
00007FE00000
0007FFFC0000
001FFFFF0000
007FFFFFC000
00FFFFFFE000
01FFFFFFF000
03FFFFFFF800
07FFC07FFC00
0FFE000FFE00
0FFC0007FE00
1FF80001FF00
1FF00001FF00
3FE00000FF80
3FE000007F80
3FC000007FC0
7FC000003FC0
7F8000003FC0
7F8000003FC0
7F8000003FE0
FF8000003FE0
FF8000001FE0
FF8000001FE0
FF8000001FE0
FF8000001FE0
FF8000001FE0
FF8000001FE0
FF8000001FE0
FF8000001FE0
FF8000001FE0
FF8000001FE0
FF8000001FE0
FF8000001FE0
FF8000003FE0
7F8000003FE0
7F8000003FC0
7F8000003FC0
7FC000003FC0
3FC000007FC0
3FE000007F80
3FE00000FF80
1FF00001FF00
1FF80001FF00
0FFC0007FE00
0FFE000FFE00
07FFC07FFC00
03FFFFFFF800
01FFFFFFF000
00FFFFFFE000
007FFFFFC000
001FFFFF0000
0007FFFC0000
0000FFE00000
ENDCHAR
STARTCHAR 014D
ENCODING 333
SWIDTH 569 0
DWIDTH 41 0
BBX 35 52 3 -1
BITMAP
01FFFFF000
01FFFFF000
01FFFFF000
01FFFFF000
01FFFFF000
01FFFFF000
0000000000
0000000000
0000000000
0000000000
0000000000
0000000000
0000000000
0007FC0000
003FFF8000
00FFFFE000
01FFFFF000
07FFFFF800
07FFFFFC00
0FFFFFFE00
1FFC07FE00
1FF001FF00
3FE000FF80
3FC0007F80
7F80007F80
7F80003FC0
7F80003FC0
7F00003FC0
FF00003FC0
FF00003FC0
FF00003FC0
FF00003FC0
FF00003FE0
FF00003FC0
FF00003FC0
FF00003FC0
FF00003FC0
7F80003FC0
7F80003FC0
7F80003FC0
7F80007F80
3FC0007F80
3FE000FF80
1FF001FF00
1FFC07FE00
0FFFFFFE00
07FFFFFC00
07FFFFF800
01FFFFF000
00FFFFE000
003FFF8000
0007FC0000
ENDCHAR
STARTCHAR 014E
ENCODING 334
SWIDTH 708 0
DWIDTH 51 0
BBX 43 68 4 -1
BITMAP
000400040000
001E000F0000
007E000FC000
003F001F8000
003F803F8000
001F803F0000
001FE0FF0000
000FFFFE0000
000FFFFE0000
0007FFFC0000
0003FFF80000
0000FFE00000
00003F800000
000000000000
000000000000
000000000000
00007FE00000
0007FFFC0000
001FFFFF0000
007FFFFFC000
00FFFFFFE000
01FFFFFFF000
03FFFFFFF800
07FFC07FFC00
0FFE000FFE00
0FFC0007FE00
1FF80001FF00
1FF00001FF00
3FE00000FF80
3FE000007F80
3FC000007FC0
7FC000003FC0
7F8000003FC0
7F8000003FC0
7F8000003FE0
FF8000003FE0
FF8000001FE0
FF8000001FE0
FF8000001FE0
FF8000001FE0
FF8000001FE0
FF8000001FE0
FF8000001FE0
FF8000001FE0
FF8000001FE0
FF8000001FE0
FF8000001FE0
FF8000001FE0
FF8000003FE0
7F8000003FE0
7F8000003FC0
7F8000003FC0
7FC000003FC0
3FC000007FC0
3FE000007F80
3FE00000FF80
1FF00001FF00
1FF80001FF00
0FFC0007FE00
0FFE000FFE00
07FFC07FFC00
03FFFFFFF800
01FFFFFFF000
00FFFFFFE000
007FFFFFC000
001FFFFF0000
0007FFFC0000
0000FFE00000
ENDCHAR
STARTCHAR 014F
ENCODING 335
SWIDTH 569 0
DWIDTH 41 0
BBX 35 56 3 -1
BITMAP
00C0004000
01C000F000
07E001F800
03F001F800
03F003F000
03F807F000
01FE0FF000
01FFFFE000
00FFFFC000
007FFFC000
003FFF8000
001FFE0000
0003F80000
0000000000
0000000000
0000000000
0000000000
0007FC0000
003FFF8000
00FFFFE000
01FFFFF000
07FFFFF800
07FFFFFC00
0FFFFFFE00
1FFC07FE00
1FF001FF00
3FE000FF80
3FC0007F80
7F80007F80
7F80003FC0
7F80003FC0
7F00003FC0
FF00003FC0
FF00003FC0
FF00003FC0
FF00003FC0
FF00003FE0
FF00003FC0
FF00003FC0
FF00003FC0
FF00003FC0
7F80003FC0
7F80003FC0
7F80003FC0
7F80007F80
3FC0007F80
3FE000FF80
1FF001FF00
1FFC07FE00
0FFFFFFE00
07FFFFFC00
07FFFFF800
01FFFFF000
00FFFFE000
003FFF8000
0007FC0000
ENDCHAR
STARTCHAR 0150
ENCODING 336
SWIDTH 708 0
DWIDTH 51 0
BBX 43 70 4 -1
BITMAP
000020010000
00007803C000
00007E03F000
0000FF07F800
0000FE07F000
0001FE0FF000
0001FC1FE000
0003F81FC000
0003F83F8000
0007F03F8000
0007E07F0000
000FC07E0000
000FC0FE0000
0017803C0000
000100080000
000000000000
000000000000
000000000000
00007FE00000
0007FFFC0000
001FFFFF0000
007FFFFFC000
00FFFFFFE000
01FFFFFFF000
03FFFFFFF800
07FFC07FFC00
0FFE000FFE00
0FFC0007FE00
1FF80001FF00
1FF00001FF00
3FE00000FF80
3FE000007F80
3FC000007FC0
7FC000003FC0
7F8000003FC0
7F8000003FC0
7F8000003FE0
FF8000003FE0
FF8000001FE0
FF8000001FE0
FF8000001FE0
FF8000001FE0
FF8000001FE0
FF8000001FE0
FF8000001FE0
FF8000001FE0
FF8000001FE0
FF8000001FE0
FF8000001FE0
FF8000001FE0
FF8000003FE0
7F8000003FE0
7F8000003FC0
7F8000003FC0
7FC000003FC0
3FC000007FC0
3FE000007F80
3FE00000FF80
1FF00001FF00
1FF80001FF00
0FFC0007FE00
0FFE000FFE00
07FFC07FFC00
03FFFFFFF800
01FFFFFFF000
00FFFFFFE000
007FFFFFC000
001FFFFF0000
0007FFFC0000
0000FFE00000
ENDCHAR
STARTCHAR 0151
ENCODING 337
SWIDTH 569 0
DWIDTH 41 0
BBX 35 58 3 -1
BITMAP
0006003000
0007803C00
000FE07F00
000FF07F80
001FE0FF00
001FC0FE00
003FC1FC00
003F81FC00
007F03F800
007E03F000
00FE07F000
00FC07E000
01F80FC000
00F807C000
0030018000
0000000000
0000000000
0000000000
0000000000
0007FC0000
003FFF8000
00FFFFE000
01FFFFF000
07FFFFF800
07FFFFFC00
0FFFFFFE00
1FFC07FE00
1FF001FF00
3FE000FF80
3FC0007F80
7F80007F80
7F80003FC0
7F80003FC0
7F00003FC0
FF00003FC0
FF00003FC0
FF00003FC0
FF00003FC0
FF00003FE0
FF00003FC0
FF00003FC0
FF00003FC0
FF00003FC0
7F80003FC0
7F80003FC0
7F80003FC0
7F80007F80
3FC0007F80
3FE000FF80
1FF001FF00
1FFC07FE00
0FFFFFFE00
07FFFFFC00
07FFFFF800
01FFFFF000
00FFFFE000
003FFF8000
0007FC0000
ENDCHAR
STARTCHAR 0152
ENCODING 338
SWIDTH 986 0
DWIDTH 71 0
BBX 63 52 4 -1
BITMAP
00007FF000000000
0007FFFFFFFFFFFE
001FFFFFFFFFFFFE
007FFFFFFFFFFFFE
00FFFFFFFFFFFFFE
01FFFFFFFFFFFFFE
03FFFFFFFFFFFFFE
07FFC00FFFFFFFFE
0FFE0001FE000000
0FFC0001FE000000
1FF80001FE000000
1FF00001FE000000
3FE00001FE000000
3FC00001FE000000
3FC00001FE000000
7FC00001FE000000
7F800001FE000000
7F800001FE000000
7F800001FE000000
FF800001FE000000
FF800001FE000000
FF800001FE000000
FF800001FFFFFFF8
FF800001FFFFFFF8
FF800001FFFFFFF8
FF800001FFFFFFF8
FF800001FFFFFFF8
FF800001FFFFFFF8
FF800001FFFFFFF8
FF800001FE000000
FF800001FE000000
FF800001FE000000
FF800001FE000000
7F800001FE000000
7F800001FE000000
7F800001FE000000
7FC00001FE000000
3FC00001FE000000
3FC00001FE000000
3FE00001FE000000
1FF00001FE000000
1FF80001FE000000
0FFC0001FE000000
0FFE0001FE000000
07FFC00FFFFFFFFE
03FFFFFFFFFFFFFE
01FFFFFFFFFFFFFE
00FFFFFFFFFFFFFE
007FFFFFFFFFFFFE
001FFFFFFFFFFFFE
0007FFFFFFFFFFFE
00007FF000000000
ENDCHAR
STARTCHAR 0153
ENCODING 339
SWIDTH 916 0
DWIDTH 66 0
BBX 60 39 3 -1
BITMAP
0007FC0001FF0000
003FFF0007FFE000
00FFFFC01FFFF800
01FFFFE03FFFFC00
07FFFFF07FFFFE00
07FFFFF8FFFFFF00
0FFFFFFDFFFFFF80
1FFC07FDFF01FF80
1FF001FFFC007FC0
3FE000FFF8003FC0
3FC0007FF0003FE0
7F80007FF0001FE0
7F80003FE0001FE0
7F80003FE0000FF0
7F00003FE0000FF0
FF00003FE0000FF0
FF00003FE0000FF0
FF00003FFFFFFFF0
FF00003FFFFFFFF0
FF00003FFFFFFFF0
FF00003FFFFFFFF0
FF00003FFFFFFFF0
FF00003FE0000000
FF00003FE0000000
7F80003FE0000000
7F80003FE0000000
7F80003FE0000000
7F80007FF0000200
3FC0007FF0000700
3FE000FFF8000F80
1FF001FFFC001FC0
1FFC07FFFF80FFE0
0FFFFFFDFFFFFFC0
07FFFFF8FFFFFF80
07FFFFF07FFFFF80
01FFFFE03FFFFE00
00FFFFC01FFFFC00
003FFF0007FFF000
0007FC0001FF8000
ENDCHAR
STARTCHAR 0154
ENCODING 340
SWIDTH 652 0
DWIDTH 47 0
BBX 37 69 6 0
BITMAP
0000180000
00003E0000
00003F8000
00007FC000
00007F8000
0000FF0000
0000FE0000
0001FE0000
0001FC0000
0003F80000
0003F80000
0007F00000
0007E00000
0003C00000
0000C00000
0000000000
0000000000
0000000000
0000000000
FFFFFFC000
FFFFFFF800
FFFFFFFE00
FFFFFFFF00
FFFFFFFF80
FFFFFFFFC0
FFFFFFFFC0
FF0000FFE0
FF00003FE0
FF00001FF0
FF00001FF0
FF00000FF0
FF00000FF0
FF00000FF0
FF00000FF0
FF00000FF0
FF00000FF0
FF00000FF0
FF00001FF0
FF00001FF0
FF00003FE0
FF0000FFE0
FFFFFFFFC0
FFFFFFFFC0
FFFFFFFF80
FFFFFFFF00
FFFFFFFC00
FFFFFFF000
FFFFFFE000
FF001FE000
FF001FF000
FF000FF000
FF000FF800
FF000FF800
FF0007FC00
FF0007FC00
FF0003FE00
FF0003FE00
FF0001FF00
FF0001FF00
FF0000FF80
FF0000FF80
FF00007FC0
FF00007FC0
FF00003FE0
FF00003FE0
FF00001FF0
FF00001FF0
FF00000FF8
FF00000FF8
ENDCHAR
STARTCHAR 0155
ENCODING 341
SWIDTH 388 0
DWIDTH 28 0
BBX 20 57 6 0
BITMAP
000C00
001F00
001FC0
003FE0
003FC0
007FC0
007F80
00FF00
00FE00
01FE00
01FC00
03F800
03F800
00F000
002000
000000
000000
000000
000000
000000
FE03F0
FE0FF0
FE1FF0
FE3FF0
FE7FF0
FEFFF0
FEFFF0
FFF800
FFC000
FF8000
FF0000
FF0000
FE0000
FE0000
FE0000
FE0000
FE0000
FE0000
FE0000
FE0000
FE0000
FE0000
FE0000
FE0000
FE0000
FE0000
FE0000
FE0000
FE0000
FE0000
FE0000
FE0000
FE0000
FE0000
FE0000
FE0000
FE0000
ENDCHAR
STARTCHAR 0156
ENCODING 342
SWIDTH 652 0
DWIDTH 47 0
BBX 37 68 6 -18
BITMAP
FFFFFFC000
FFFFFFF800
FFFFFFFE00
FFFFFFFF00
FFFFFFFF80
FFFFFFFFC0
FFFFFFFFC0
FF0000FFE0
FF00003FE0
FF00001FF0
FF00001FF0
FF00000FF0
FF00000FF0
FF00000FF0
FF00000FF0
FF00000FF0
FF00000FF0
FF00000FF0
FF00001FF0
FF00001FF0
FF00003FE0
FF0000FFE0
FFFFFFFFC0
FFFFFFFFC0
FFFFFFFF80
FFFFFFFF00
FFFFFFFC00
FFFFFFF000
FFFFFFE000
FF001FE000
FF001FF000
FF000FF000
FF000FF800
FF000FF800
FF0007FC00
FF0007FC00
FF0003FE00
FF0003FE00
FF0001FF00
FF0001FF00
FF0000FF80
FF0000FF80
FF00007FC0
FF00007FC0
FF00003FE0
FF00003FE0
FF00001FF0
FF00001FF0
FF00000FF8
FF00000FF8
0000000000
0000000000
0000000000
0000000000
0000F80000
0003FC0000
0003FC0000
0003FC0000
0003FC0000
0003FC0000
0003FC0000
0001FC0000
00007C0000
0000F80000
0000F80000
0001F00000
0003E00000
0007C00000
ENDCHAR
STARTCHAR 0157
ENCODING 343
SWIDTH 388 0
DWIDTH 28 0
BBX 22 55 4 -18
BITMAP
3F80FC
3F83FC
3F87FC
3F8FFC
3F9FFC
3FBFFC
3FBFFC
3FFE00
3FF000
3FE000
3FC000
3FC000
3F8000
3F8000
3F8000
3F8000
3F8000
3F8000
3F8000
3F8000
3F8000
3F8000
3F8000
3F8000
3F8000
3F8000
3F8000
3F8000
3F8000
3F8000
3F8000
3F8000
3F8000
3F8000
3F8000
3F8000
3F8000
000000
000000
000000
000000
1F0000
3F8000
7FC000
7FC000
7FC000
7FC000
3FC000
1F8000
0F8000
0F8000
1F0000
1E0000
3E0000
FC0000
ENDCHAR
STARTCHAR 0158
ENCODING 344
SWIDTH 652 0
DWIDTH 47 0
BBX 37 69 6 0
BITMAP
0180004000
03C000E000
07E003F800
0FF007F800
07F80FF000
03FC1FE000
01FE3FE000
00FF7FC000
00FFFF8000
007FFF0000
003FFE0000
001FFE0000
001FFC0000
000FF80000
0000000000
0000000000
0000000000
0000000000
0000000000
FFFFFFC000
FFFFFFF800
FFFFFFFE00
FFFFFFFF00
FFFFFFFF80
FFFFFFFFC0
FFFFFFFFC0
FF0000FFE0
FF00003FE0
FF00001FF0
FF00001FF0
FF00000FF0
FF00000FF0
FF00000FF0
FF00000FF0
FF00000FF0
FF00000FF0
FF00000FF0
FF00001FF0
FF00001FF0
FF00003FE0
FF0000FFE0
FFFFFFFFC0
FFFFFFFFC0
FFFFFFFF80
FFFFFFFF00
FFFFFFFC00
FFFFFFF000
FFFFFFE000
FF001FE000
FF001FF000
FF000FF000
FF000FF800
FF000FF800
FF0007FC00
FF0007FC00
FF0003FE00
FF0003FE00
FF0001FF00
FF0001FF00
FF0000FF80
FF0000FF80
FF00007FC0
FF00007FC0
FF00003FE0
FF00003FE0
FF00001FF0
FF00001FF0
FF00000FF8
FF00000FF8
ENDCHAR
STARTCHAR 0159
ENCODING 345
SWIDTH 388 0
DWIDTH 28 0
BBX 26 57 3 0
BITMAP
08000400
3C000F00
7E001F80
FF003FC0
3F807F00
3FC0FF00
1FE1FE00
0FF3FC00
07FFF800
07FFF800
03FFF000
01FFE000
00FFC000
007F8000
00000000
00000000
00000000
00000000
00000000
00000000
1FC07E00
1FC1FE00
1FC3FE00
1FC7FE00
1FCFFE00
1FDFFE00
1FDFFE00
1FFF0000
1FF80000
1FF00000
1FE00000
1FE00000
1FC00000
1FC00000
1FC00000
1FC00000
1FC00000
1FC00000
1FC00000
1FC00000
1FC00000
1FC00000
1FC00000
1FC00000
1FC00000
1FC00000
1FC00000
1FC00000
1FC00000
1FC00000
1FC00000
1FC00000
1FC00000
1FC00000
1FC00000
1FC00000
1FC00000
ENDCHAR
STARTCHAR 015A
ENCODING 346
SWIDTH 597 0
DWIDTH 43 0
BBX 36 70 3 -1
BITMAP
00000C0000
00000F0000
00001FE000
00001FF000
00003FE000
00003FC000
00007F8000
00007F0000
0000FF0000
0000FE0000
0001FC0000
0001FC0000
0003F80000
0000F00000
0000200000
0000000000
0000000000
0000000000
0003FF0000
003FFFF000
00FFFFFC00
01FFFFFE00
07FFFFFF80
0FFFFFFFC0
0FFFFFFFE0
1FFC01FFF0
1FF0007FE0
3FE0001FC0
3FC0000F80
3FC0000700
7FC0000400
7F80000000
7F80000000
7FC0000000
7FC0000000
3FC0000000
3FE0000000
3FF8000000
1FFE000000
1FFFE00000
0FFFFF0000
07FFFFE000
03FFFFF800
01FFFFFE00
007FFFFF00
000FFFFF80
0001FFFFC0
000007FFE0
000000FFE0
0000003FF0
0000001FF0
0000000FF0
0000000FF0
0000000FF0
0000000FF0
0000000FF0
0400000FF0
0E00000FF0
1E00000FF0
3F80001FF0
7FC0003FE0
FFF0007FE0
7FFC01FFC0
3FFFFFFFC0
1FFFFFFF80
0FFFFFFF00
07FFFFFE00
01FFFFF800
007FFFE000
0007FE0000
ENDCHAR
STARTCHAR 015B
ENCODING 347
SWIDTH 500 0
DWIDTH 36 0
BBX 30 58 2 -1
BITMAP
00003000
00007C00
00007F00
0000FF80
0000FF00
0001FE00
0001FC00
0003FC00
0003F800
0007F000
0007F000
000FE000
000FC000
00178000
00018000
00000000
00000000
00000000
00000000
001FF800
00FFFF00
03FFFF80
07FFFFE0
0FFFFFF0
1FFFFFF8
1FFFFFFC
3FF01FF0
3FC003E0
3FC001C0
3F800080
3F800000
3F800000
3FC00000
3FE00000
3FFF0000
1FFFF800
1FFFFF00
0FFFFFC0
07FFFFE0
03FFFFF0
00FFFFF8
001FFFFC
00001FFC
000007FC
000003FC
000001FC
040001FC
0E0001FC
1F0003FC
3FC007FC
7FF00FF8
FFFFFFF8
3FFFFFF0
1FFFFFE0
0FFFFFC0
07FFFF80
01FFFE00
003FF000
ENDCHAR
STARTCHAR 015C
ENCODING 348
SWIDTH 597 0
DWIDTH 43 0
BBX 36 69 3 -1
BITMAP
0003FE0000
0007FE0000
000FFF0000
000FFF8000
001FFFC000
003FFFE000
007FDFE000
00FF8FF000
00FF07F800
01FE03FC00
03FC01FE00
03F000FC00
00E0007800
0040003000
0000000000
0000000000
0000000000
0003FF0000
003FFFF000
00FFFFFC00
01FFFFFE00
07FFFFFF80
0FFFFFFFC0
0FFFFFFFE0
1FFC01FFF0
1FF0007FE0
3FE0001FC0
3FC0000F80
3FC0000700
7FC0000400
7F80000000
7F80000000
7FC0000000
7FC0000000
3FC0000000
3FE0000000
3FF8000000
1FFE000000
1FFFE00000
0FFFFF0000
07FFFFE000
03FFFFF800
01FFFFFE00
007FFFFF00
000FFFFF80
0001FFFFC0
000007FFE0
000000FFE0
0000003FF0
0000001FF0
0000000FF0
0000000FF0
0000000FF0
0000000FF0
0000000FF0
0400000FF0
0E00000FF0
1E00000FF0
3F80001FF0
7FC0003FE0
FFF0007FE0
7FFC01FFC0
3FFFFFFFC0
1FFFFFFF80
0FFFFFFF00
07FFFFFE00
01FFFFF800
007FFFE000
0007FE0000
ENDCHAR
STARTCHAR 015D
ENCODING 349
SWIDTH 500 0
DWIDTH 36 0
BBX 30 57 2 -1
BITMAP
001FF000
003FF800
003FFC00
007FFC00
00FFFE00
01FFFF00
03FEFF80
03FC7FC0
07F83FC0
0FF01FE0
1FE00FF0
0FC007E0
078001C0
03000080
00000000
00000000
00000000
00000000
001FF800
00FFFF00
03FFFF80
07FFFFE0
0FFFFFF0
1FFFFFF8
1FFFFFFC
3FF01FF0
3FC003E0
3FC001C0
3F800080
3F800000
3F800000
3FC00000
3FE00000
3FFF0000
1FFFF800
1FFFFF00
0FFFFFC0
07FFFFE0
03FFFFF0
00FFFFF8
001FFFFC
00001FFC
000007FC
000003FC
000001FC
040001FC
0E0001FC
1F0003FC
3FC007FC
7FF00FF8
FFFFFFF8
3FFFFFF0
1FFFFFE0
0FFFFFC0
07FFFF80
01FFFE00
003FF000
ENDCHAR
STARTCHAR 015E
ENCODING 350
SWIDTH 597 0
DWIDTH 43 0
BBX 36 66 3 -15
BITMAP
0003FF0000
003FFFF000
00FFFFFC00
01FFFFFF00
07FFFFFF80
0FFFFFFFC0
0FFFFFFFE0
1FFC01FFF0
1FF0007FE0
3FE0001FC0
3FC0000F80
3FC0000600
7FC0000400
7F80000000
7F80000000
7FC0000000
7FC0000000
3FC0000000
3FE0000000
3FF8000000
1FFE000000
1FFFE00000
0FFFFF0000
07FFFFE000
03FFFFF800
01FFFFFE00
007FFFFF00
001FFFFF80
0001FFFFC0
000007FFE0
000000FFE0
0000003FF0
0000001FF0
0000000FF0
0000000FF0
0000000FF0
0000000FF0
0000000FF0
0400000FF0
0C00000FF0
1E00000FF0
3F80001FF0
7FC0003FE0
FFF0007FE0
7FFC01FFC0
7FFFFFFFC0
3FFFFFFF80
0FFFFFFF00
07FFFFFE00
01FFFFF800
007FFFE000
000FFF0000
0000F00000
0000F00000
0001F00000
0001FF8000
0001FFE000
00001FE000
000007F000
000003F000
000203F000
000707F000
000FFFE000
001FFFC000
0007FF8000
0001FE0000
ENDCHAR
STARTCHAR 015F
ENCODING 351
SWIDTH 500 0
DWIDTH 36 0
BBX 30 53 2 -15
BITMAP
001FF800
00FFFF00
03FFFF80
07FFFFE0
0FFFFFF0
1FFFFFF8
1FFFFFFC
3FF01FF0
3FC003E0
3FC001C0
3F800080
3F800000
3F800000
3FC00000
3FE00000
3FFF0000
1FFFF800
1FFFFF00
0FFFFFC0
07FFFFE0
03FFFFF0
00FFFFF8
001FFFFC
00003FFC
000007FC
000003FC
000001FC
040001FC
0E0001FC
1F0003FC
3F8007FC
7FF00FF8
FFFFFFF8
3FFFFFF0
1FFFFFF0
0FFFFFE0
07FFFF80
01FFFF00
003FF000
00078000
00078000
00078000
0007FC00
000FFF00
00007F80
00001F80
00001F80
00101F80
003C3F80
007FFF00
007FFF00
003FFC00
000FF000
ENDCHAR
STARTCHAR 0160
ENCODING 352
SWIDTH 597 0
DWIDTH 43 0
BBX 36 70 3 -1
BITMAP
0040003000
00E0007800
03F000FC00
03FC01FE00
01FE03FC00
00FF07F800
00FF8FF000
007FDFE000
003FFFE000
001FFFC000
000FFF8000
000FFF0000
0007FE0000
0003FE0000
0000000000
0000000000
0000000000
0000000000
0003FF0000
003FFFF000
00FFFFFC00
01FFFFFE00
07FFFFFF80
0FFFFFFFC0
0FFFFFFFE0
1FFC01FFF0
1FF0007FE0
3FE0001FC0
3FC0000F80
3FC0000700
7FC0000400
7F80000000
7F80000000
7FC0000000
7FC0000000
3FC0000000
3FE0000000
3FF8000000
1FFE000000
1FFFE00000
0FFFFF0000
07FFFFE000
03FFFFF800
01FFFFFE00
007FFFFF00
000FFFFF80
0001FFFFC0
000007FFE0
000000FFE0
0000003FF0
0000001FF0
0000000FF0
0000000FF0
0000000FF0
0000000FF0
0000000FF0
0400000FF0
0E00000FF0
1E00000FF0
3F80001FF0
7FC0003FE0
FFF0007FE0
7FFC01FFC0
3FFFFFFFC0
1FFFFFFF80
0FFFFFFF00
07FFFFFE00
01FFFFF800
007FFFE000
0007FE0000
ENDCHAR
STARTCHAR 0161
ENCODING 353
SWIDTH 500 0
DWIDTH 36 0
BBX 30 58 2 -1
BITMAP
03000080
078001C0
0FC007E0
1FE00FF0
0FF01FE0
07F83FC0
03FC7F80
03FEFF80
01FFFF00
00FFFE00
007FFC00
003FFC00
003FF800
001FF000
00000000
00000000
00000000
00000000
00000000
001FF800
00FFFF00
03FFFF80
07FFFFE0
0FFFFFF0
1FFFFFF8
1FFFFFFC
3FF01FF0
3FC003E0
3FC001C0
3F800080
3F800000
3F800000
3FC00000
3FE00000
3FFF0000
1FFFF800
1FFFFF00
0FFFFFC0
07FFFFE0
03FFFFF0
00FFFFF8
001FFFFC
00001FFC
000007FC
000003FC
000001FC
040001FC
0E0001FC
1F0003FC
3FC007FC
7FF00FF8
FFFFFFF8
3FFFFFF0
1FFFFFE0
0FFFFFC0
07FFFF80
01FFFE00
003FF000
ENDCHAR
STARTCHAR 0162
ENCODING 354
SWIDTH 583 0
DWIDTH 42 0
BBX 38 65 2 -15
BITMAP
FFFFFFFFFC
FFFFFFFFFC
FFFFFFFFFC
FFFFFFFFFC
FFFFFFFFFC
FFFFFFFFFC
FFFFFFFFFC
0001FE0000
0001FE0000
0001FE0000
0001FE0000
0001FE0000
0001FE0000
0001FE0000
0001FE0000
0001FE0000
0001FE0000
0001FE0000
0001FE0000
0001FE0000
0001FE0000
0001FE0000
0001FE0000
0001FE0000
0001FE0000
0001FE0000
0001FE0000
0001FE0000
0001FE0000
0001FE0000
0001FE0000
0001FE0000
0001FE0000
0001FE0000
0001FE0000
0001FE0000
0001FE0000
0001FE0000
0001FE0000
0001FE0000
0001FE0000
0001FE0000
0001FE0000
0001FE0000
0001FE0000
0001FE0000
0001FE0000
0001FE0000
0001FE0000
0001FE0000
0000780000
0000F80000
0000F00000
0000F00000
0000FFC000
0000FFE000
00000FF000
000003F000
000003F000
000203F000
000783F000
000FFFF000
000FFFE000
0007FFC000
0000FE0000
ENDCHAR
STARTCHAR 0163
ENCODING 355
SWIDTH 361 0
DWIDTH 26 0
BBX 23 63 2 -15
BITMAP
03FC00
03FC00
03FC00
03FC00
03FC00
03FC00
03FC00
03FC00
03FC00
03FC00
07FC00
FFFFF8
FFFFF8
FFFFF8
FFFFF8
FFFFF8
FFFFF8
FFFFF8
03FC00
03FC00
03FC00
03FC00
03FC00
03FC00
03FC00
03FC00
03FC00
03FC00
03FC00
03FC00
03FC00
03FC00
03FC00
03FC00
03FC00
03FC00
03FC00
03FC00
03FC00
03FC00
03FC00
03FFF8
03FFF8
03FFF8
01FFF8
01FFF8
00FFF8
003FF8
000F00
001F00
001E00
001E00
001FF8
001FFC
0001FE
00007E
00003E
00407E
00F07E
00FFFE
01FFFC
00FFF8
001FC0
ENDCHAR
STARTCHAR 0164
ENCODING 356
SWIDTH 583 0
DWIDTH 42 0
BBX 38 69 2 0
BITMAP
0020001000
00F0003800
01F8007E00
03FC00FE00
01FE01FC00
00FF07F800
007F8FF800
003FDFF000
003FFFE000
001FFFC000
000FFFC000
0007FF8000
0003FF0000
0003FE0000
0000000000
0000000000
0000000000
0000000000
0000000000
FFFFFFFFFC
FFFFFFFFFC
FFFFFFFFFC
FFFFFFFFFC
FFFFFFFFFC
FFFFFFFFFC
FFFFFFFFFC
0001FE0000
0001FE0000
0001FE0000
0001FE0000
0001FE0000
0001FE0000
0001FE0000
0001FE0000
0001FE0000
0001FE0000
0001FE0000
0001FE0000
0001FE0000
0001FE0000
0001FE0000
0001FE0000
0001FE0000
0001FE0000
0001FE0000
0001FE0000
0001FE0000
0001FE0000
0001FE0000
0001FE0000
0001FE0000
0001FE0000
0001FE0000
0001FE0000
0001FE0000
0001FE0000
0001FE0000
0001FE0000
0001FE0000
0001FE0000
0001FE0000
0001FE0000
0001FE0000
0001FE0000
0001FE0000
0001FE0000
0001FE0000
0001FE0000
0001FE0000
ENDCHAR
STARTCHAR 0165
ENCODING 357
SWIDTH 361 0
DWIDTH 26 0
BBX 28 55 2 0
BITMAP
00001FF0
00001FE0
00001FE0
00001FE0
00001FC0
00001FC0
00001FC0
03FC1F80
03FC1F80
03FC1F80
03FC3F80
03FC3F00
03FC3F00
03FC3F00
03FC0000
03FC0000
03FC0000
07FC0000
FFFFF800
FFFFF800
FFFFF800
FFFFF800
FFFFF800
FFFFF800
FFFFF800
03FC0000
03FC0000
03FC0000
03FC0000
03FC0000
03FC0000
03FC0000
03FC0000
03FC0000
03FC0000
03FC0000
03FC0000
03FC0000
03FC0000
03FC0000
03FC0000
03FC0000
03FC0000
03FC0000
03FC0000
03FC0000
03FC0000
03FC0000
03FFF800
03FFF800
03FFF800
01FFF800
01FFF800
00FFF800
003FF800
ENDCHAR
STARTCHAR 0166
ENCODING 358
SWIDTH 583 0
DWIDTH 42 0
BBX 38 50 2 0
BITMAP
FFFFFFFFFC
FFFFFFFFFC
FFFFFFFFFC
FFFFFFFFFC
FFFFFFFFFC
FFFFFFFFFC
FFFFFFFFFC
0001FE0000
0001FE0000
0001FE0000
0001FE0000
0001FE0000
0001FE0000
0001FE0000
0001FE0000
0001FE0000
0001FE0000
0001FE0000
0001FE0000
0001FE0000
0001FE0000
0FFFFFFFC0
0FFFFFFFC0
0FFFFFFFC0
0FFFFFFFC0
0FFFFFFFC0
0FFFFFFFC0
0FFFFFFFC0
0001FE0000
0001FE0000
0001FE0000
0001FE0000
0001FE0000
0001FE0000
0001FE0000
0001FE0000
0001FE0000
0001FE0000
0001FE0000
0001FE0000
0001FE0000
0001FE0000
0001FE0000
0001FE0000
0001FE0000
0001FE0000
0001FE0000
0001FE0000
0001FE0000
0001FE0000
ENDCHAR
STARTCHAR 0167
ENCODING 359
SWIDTH 375 0
DWIDTH 27 0
BBX 22 48 2 0
BITMAP
01FC00
01FC00
01FC00
01FC00
01FC00
01FC00
01FC00
01FC00
01FC00
03FC00
03FC00
FFFFFC
FFFFFC
FFFFFC
FFFFFC
FFFFFC
FFFFFC
FFFFFC
03FC00
03FC00
03FC00
03FC00
03FC00
03FC00
03FC00
7FFFF0
7FFFF0
7FFFF0
7FFFF0
7FFFF0
03FC00
03FC00
03FC00
03FC00
03FC00
03FC00
03FC00
03FC00
03FC00
03FC00
03FC00
03FFF8
03FFF8
01FFF8
01FFF8
00FFF8
007FF8
001FF8
ENDCHAR
STARTCHAR 0168
ENCODING 360
SWIDTH 680 0
DWIDTH 49 0
BBX 37 66 6 -1
BITMAP
003F000000
007FE00800
01FFFC3C00
03FFFFFC00
03FFFFFE00
01FFFFFE00
00E0FFFC00
00803FF800
000007E000
0000000000
0000000000
0000000000
0000000000
0000000000
0000000000
FF000007F8
FF000007F8
FF000007F8
FF000007F8
FF000007F8
FF000007F8
FF000007F8
FF000007F8
FF000007F8
FF000007F8
FF000007F8
FF000007F8
FF000007F8
FF000007F8
FF000007F8
FF000007F8
FF000007F8
FF000007F8
FF000007F8
FF000007F8
FF000007F8
FF000007F8
FF000007F8
FF000007F8
FF000007F8
FF000007F8
FF000007F8
FF000007F8
FF000007F8
FF000007F8
FF000007F8
FF000007F8
FF000007F8
FF000007F8
FF000007F8
FF000007F8
FF000007F8
7F800007F8
7F80000FF8
7FC0000FF0
7FC0001FF0
3FE0003FF0
3FF0007FE0
1FFE01FFE0
1FFFFFFFC0
0FFFFFFF80
07FFFFFF80
03FFFFFF00
01FFFFFC00
007FFFF000
0007FF0000
ENDCHAR
STARTCHAR 0169
ENCODING 361
SWIDTH 583 0
DWIDTH 42 0
BBX 31 54 5 -1
BITMAP
01FC0000
03FF0040
0FFFE0E0
0FFFFFF0
1FFFFFF0
0FFFFFF8
0707FFE0
0201FFC0
00003F00
00000000
00000000
00000000
00000000
00000000
00000000
00000000
FF0001FE
FF0001FE
FF0001FE
FF0001FE
FF0001FE
FF0001FE
FF0001FE
FF0001FE
FF0001FE
FF0001FE
FF0001FE
FF0001FE
FF0001FE
FF0001FE
FF0001FE
FF0001FE
FF0001FE
FF0001FE
FF0001FE
FF0001FE
FF0001FE
FF0001FE
FF0001FE
FF0001FE
FF0001FE
FF0001FE
FF8001FE
7F8001FE
7FC003FE
7FE007FE
7FF01FFE
3FFFFFFE
3FFFFDFE
1FFFFDFE
0FFFF9FE
07FFF1FE
03FFE1FE
00FF0000
ENDCHAR
STARTCHAR 016A
ENCODING 362
SWIDTH 680 0
DWIDTH 49 0
BBX 37 64 6 -1
BITMAP
00FFFFF800
00FFFFF800
00FFFFF800
00FFFFF800
00FFFFF800
00FFFFF800
0000000000
0000000000
0000000000
0000000000
0000000000
0000000000
0000000000
FF000007F8
FF000007F8
FF000007F8
FF000007F8
FF000007F8
FF000007F8
FF000007F8
FF000007F8
FF000007F8
FF000007F8
FF000007F8
FF000007F8
FF000007F8
FF000007F8
FF000007F8
FF000007F8
FF000007F8
FF000007F8
FF000007F8
FF000007F8
FF000007F8
FF000007F8
FF000007F8
FF000007F8
FF000007F8
FF000007F8
FF000007F8
FF000007F8
FF000007F8
FF000007F8
FF000007F8
FF000007F8
FF000007F8
FF000007F8
FF000007F8
FF000007F8
FF000007F8
7F800007F8
7F80000FF8
7FC0000FF0
7FC0001FF0
3FE0003FF0
3FF0007FE0
1FFE01FFE0
1FFFFFFFC0
0FFFFFFF80
07FFFFFF80
03FFFFFF00
01FFFFFC00
007FFFF000
0007FF0000
ENDCHAR
STARTCHAR 016B
ENCODING 363
SWIDTH 583 0
DWIDTH 42 0
BBX 31 52 5 -1
BITMAP
07FFFFC0
07FFFFC0
07FFFFC0
07FFFFC0
07FFFFC0
07FFFFC0
00000000
00000000
00000000
00000000
00000000
00000000
00000000
00000000
FF0001FE
FF0001FE
FF0001FE
FF0001FE
FF0001FE
FF0001FE
FF0001FE
FF0001FE
FF0001FE
FF0001FE
FF0001FE
FF0001FE
FF0001FE
FF0001FE
FF0001FE
FF0001FE
FF0001FE
FF0001FE
FF0001FE
FF0001FE
FF0001FE
FF0001FE
FF0001FE
FF0001FE
FF0001FE
FF0001FE
FF8001FE
7F8001FE
7FC003FE
7FE007FE
7FF01FFE
3FFFFFFE
3FFFFDFE
1FFFFDFE
0FFFF9FE
07FFF1FE
03FFE1FE
00FF0000
ENDCHAR
STARTCHAR 016C
ENCODING 364
SWIDTH 680 0
DWIDTH 49 0
BBX 37 68 6 -1
BITMAP
0020002000
00F0003800
01F0007E00
01F800FC00
01FC00FC00
00FE01FC00
00FF07F800
007FFFF000
007FFFF000
003FFFE000
001FFFC000
0007FF8000
0001FC0000
0000000000
0000000000
0000000000
0000000000
FF000007F8
FF000007F8
FF000007F8
FF000007F8
FF000007F8
FF000007F8
FF000007F8
FF000007F8
FF000007F8
FF000007F8
FF000007F8
FF000007F8
FF000007F8
FF000007F8
FF000007F8
FF000007F8
FF000007F8
FF000007F8
FF000007F8
FF000007F8
FF000007F8
FF000007F8
FF000007F8
FF000007F8
FF000007F8
FF000007F8
FF000007F8
FF000007F8
FF000007F8
FF000007F8
FF000007F8
FF000007F8
FF000007F8
FF000007F8
FF000007F8
FF000007F8
FF000007F8
7F800007F8
7F80000FF8
7FC0000FF0
7FC0001FF0
3FE0003FF0
3FF0007FE0
1FFE01FFE0
1FFFFFFFC0
0FFFFFFF80
07FFFFFF80
03FFFFFF00
01FFFFFC00
007FFFF000
0007FF0000
ENDCHAR
STARTCHAR 016D
ENCODING 365
SWIDTH 583 0
DWIDTH 42 0
BBX 31 56 5 -1
BITMAP
01000100
078001C0
0FC003F0
0FC007E0
0FE007E0
07F00FE0
07F83FC0
03FFFFC0
01FFFF80
01FFFF00
00FFFE00
003FFC00
000FF000
00000000
00000000
00000000
00000000
00000000
FF0001FE
FF0001FE
FF0001FE
FF0001FE
FF0001FE
FF0001FE
FF0001FE
FF0001FE
FF0001FE
FF0001FE
FF0001FE
FF0001FE
FF0001FE
FF0001FE
FF0001FE
FF0001FE
FF0001FE
FF0001FE
FF0001FE
FF0001FE
FF0001FE
FF0001FE
FF0001FE
FF0001FE
FF0001FE
FF0001FE
FF8001FE
7F8001FE
7FC003FE
7FE007FE
7FF01FFE
3FFFFFFE
3FFFFDFE
1FFFFDFE
0FFFF9FE
07FFF1FE
03FFE1FE
00FF0000
ENDCHAR
STARTCHAR 016E
ENCODING 366
SWIDTH 680 0
DWIDTH 49 0
BBX 37 72 6 -1
BITMAP
0000FC0000
0007FF0000
000FFF8000
001FFFC000
003F87E000
003E03E000
003E03F000
007E01F000
007E01F000
007E01F000
007E01F000
003E03F000
003E03E000
003F87E000
001FFFC000
000FFF8000
0007FF0000
0001FC0000
0000000000
0000000000
0000000000
FF000007F8
FF000007F8
FF000007F8
FF000007F8
FF000007F8
FF000007F8
FF000007F8
FF000007F8
FF000007F8
FF000007F8
FF000007F8
FF000007F8
FF000007F8
FF000007F8
FF000007F8
FF000007F8
FF000007F8
FF000007F8
FF000007F8
FF000007F8
FF000007F8
FF000007F8
FF000007F8
FF000007F8
FF000007F8
FF000007F8
FF000007F8
FF000007F8
FF000007F8
FF000007F8
FF000007F8
FF000007F8
FF000007F8
FF000007F8
FF000007F8
FF000007F8
FF000007F8
7F800007F8
7F80000FF8
7FC0000FF0
7FC0001FF0
3FE0003FF0
3FF0007FE0
1FFE01FFE0
1FFFFFFFC0
0FFFFFFF80
07FFFFFF80
03FFFFFF00
01FFFFFC00
007FFFF000
0007FF0000
ENDCHAR
STARTCHAR 016F
ENCODING 367
SWIDTH 583 0
DWIDTH 42 0
BBX 31 60 5 -1
BITMAP
0007E000
003FF800
007FFC00
00FFFE00
00FC3F00
01F01F00
01F00F80
01F00F80
03F00F80
03F00F80
01F00F80
01F00F80
01F01F00
00FC3F00
00FFFE00
007FFC00
003FF800
0007E000
00000000
00000000
00000000
00000000
FF0001FE
FF0001FE
FF0001FE
FF0001FE
FF0001FE
FF0001FE
FF0001FE
FF0001FE
FF0001FE
FF0001FE
FF0001FE
FF0001FE
FF0001FE
FF0001FE
FF0001FE
FF0001FE
FF0001FE
FF0001FE
FF0001FE
FF0001FE
FF0001FE
FF0001FE
FF0001FE
FF0001FE
FF0001FE
FF0001FE
FF8001FE
7F8001FE
7FC003FE
7FE007FE
7FF01FFE
3FFFFFFE
3FFFFDFE
1FFFFDFE
0FFFF9FE
07FFF1FE
03FFE1FE
00FF0000
ENDCHAR
STARTCHAR 0170
ENCODING 368
SWIDTH 680 0
DWIDTH 49 0
BBX 37 70 6 -1
BITMAP
0001000800
0003C01E00
0003F01F80
0007F83FC0
0007F03F80
000FF07F80
000FE07F00
001FC0FE00
001FC0FC00
003F81FC00
003F01F800
007E03F000
007E03F000
00BC05E000
0008004000
0000000000
0000000000
0000000000
0000000000
FF000007F8
FF000007F8
FF000007F8
FF000007F8
FF000007F8
FF000007F8
FF000007F8
FF000007F8
FF000007F8
FF000007F8
FF000007F8
FF000007F8
FF000007F8
FF000007F8
FF000007F8
FF000007F8
FF000007F8
FF000007F8
FF000007F8
FF000007F8
FF000007F8
FF000007F8
FF000007F8
FF000007F8
FF000007F8
FF000007F8
FF000007F8
FF000007F8
FF000007F8
FF000007F8
FF000007F8
FF000007F8
FF000007F8
FF000007F8
FF000007F8
FF000007F8
FF000007F8
7F800007F8
7F80000FF8
7FC0000FF0
7FC0001FF0
3FE0003FF0
3FF0007FE0
1FFE01FFE0
1FFFFFFFC0
0FFFFFFF80
07FFFFFF80
03FFFFFF00
01FFFFFC00
007FFFF000
0007FF0000
ENDCHAR
STARTCHAR 0171
ENCODING 369
SWIDTH 583 0
DWIDTH 42 0
BBX 31 58 5 -1
BITMAP
00080040
001E00F0
001F80FC
003FE1FE
003FC1FC
007F83FC
007F03F8
00FE07F0
00FE07F0
01FC0FE0
01F80FC0
03F81F80
03F01F80
01E02F00
00400200
00000000
00000000
00000000
00000000
00000000
FF0001FE
FF0001FE
FF0001FE
FF0001FE
FF0001FE
FF0001FE
FF0001FE
FF0001FE
FF0001FE
FF0001FE
FF0001FE
FF0001FE
FF0001FE
FF0001FE
FF0001FE
FF0001FE
FF0001FE
FF0001FE
FF0001FE
FF0001FE
FF0001FE
FF0001FE
FF0001FE
FF0001FE
FF0001FE
FF0001FE
FF8001FE
7F8001FE
7FC003FE
7FE007FE
7FF01FFE
3FFFFFFE
3FFFFDFE
1FFFFDFE
0FFFF9FE
07FFF1FE
03FFE1FE
00FF0000
ENDCHAR
STARTCHAR 0172
ENCODING 370
SWIDTH 680 0
DWIDTH 49 0
BBX 37 65 6 -15
BITMAP
FF000007F8
FF000007F8
FF000007F8
FF000007F8
FF000007F8
FF000007F8
FF000007F8
FF000007F8
FF000007F8
FF000007F8
FF000007F8
FF000007F8
FF000007F8
FF000007F8
FF000007F8
FF000007F8
FF000007F8
FF000007F8
FF000007F8
FF000007F8
FF000007F8
FF000007F8
FF000007F8
FF000007F8
FF000007F8
FF000007F8
FF000007F8
FF000007F8
FF000007F8
FF000007F8
FF000007F8
FF000007F8
FF000007F8
FF000007F8
FF000007F8
FF000007F8
FF000007F8
7F800007F8
7F80000FF8
7FC0000FF0
7FC0001FF0
3FE0003FF0
3FF0007FE0
3FFE01FFE0
1FFFFFFFC0
0FFFFFFFC0
07FFFFFF80
03FFFFFF00
01FFFFFF00
007FFFFE00
0007FF7C00
000001F000
000003E000
00000FC000
00001F8000
00003F0000
00007E0000
00007E0000
00007C0000
00007C0800
00007E1C00
00007FFE00
00007FFF00
00001FFC00
000007F000
ENDCHAR
STARTCHAR 0173
ENCODING 371
SWIDTH 583 0
DWIDTH 42 0
BBX 33 52 5 -15
BITMAP
FF0001FE00
FF0001FE00
FF0001FE00
FF0001FE00
FF0001FE00
FF0001FE00
FF0001FE00
FF0001FE00
FF0001FE00
FF0001FE00
FF0001FE00
FF0001FE00
FF0001FE00
FF0001FE00
FF0001FE00
FF0001FE00
FF0001FE00
FF0001FE00
FF0001FE00
FF0001FE00
FF0001FE00
FF0001FE00
FF0001FE00
FF0001FE00
FF0001FE00
FF0001FE00
FF8001FE00
7F8001FE00
7FC003FE00
7FE007FE00
7FF01FFE00
3FFFFFFE00
3FFFFDFE00
1FFFFDFE00
0FFFF9FE00
07FFF1FE00
03FFE1FE00
00FF007E00
000000F800
000003F000
000007E000
00000FC000
00001F8000
00003F0000
00003F0000
00003F0000
00003F0400
00003F0E00
00003FFF00
00001FFF80
00000FFF00
000003F800
ENDCHAR
STARTCHAR 0174
ENCODING 372
SWIDTH 930 0
DWIDTH 67 0
BBX 63 68 2 0
BITMAP
0000001FF0000000
0000003FF8000000
0000007FF8000000
0000007FFC000000
000000FFFE000000
000001FFFF000000
000003FEFF800000
000003FC7F800000
000007F83FC00000
00000FF01FE00000
00001FE00FF00000
00000FC007E00000
0000070003C00000
0000020001800000
0000000000000000
0000000000000000
0000000000000000
0000000000000000
FF00001FF00001FE
FF00003FF00001FE
FF80003FF80003FC
7F80003FF80003FC
7F80003FF80003FC
7F80007FF80003FC
7F80007FFC0003F8
3FC0007FFC0007F8
3FC0007FFC0007F8
3FC000FFFC0007F8
3FC000FEFE0007F0
3FC000FEFE000FF0
1FE000FCFE000FF0
1FE000FCFE000FF0
1FE001FC7F000FE0
1FE001FC7F000FE0
0FF001F87F001FE0
0FF001F87F001FE0
0FF003F83F001FC0
0FF003F03F801FC0
07F003F03F803FC0
07F803F03F803FC0
07F807F01F803F80
07F807E01FC03F80
03F807E01FC03F80
03F807E01FC07F80
03FC0FE00FC07F00
03FC0FC00FE07F00
03FC0FC00FE07F00
01FC0FC00FE0FF00
01FC1FC007E0FE00
01FE1F8007F0FE00
01FE1F8007F0FE00
00FE1F8007F0FE00
00FE3F8003F1FC00
00FF3F0003F9FC00
00FF3F0003F9FC00
007F3F0003F9FC00
007F7F0001FBF800
007F7E0001FFF800
007FFE0001FFF800
003FFE0001FFF800
003FFE0000FFF000
003FFC0000FFF000
003FFC0000FFF000
001FFC0000FFF000
001FFC00007FE000
001FF800007FE000
001FF800007FE000
001FF800007FE000
ENDCHAR
STARTCHAR 0175
ENCODING 373
SWIDTH 805 0
DWIDTH 58 0
BBX 54 56 2 0
BITMAP
000003FE000000
000003FF000000
000007FF800000
00000FFFC00000
00001FFFC00000
00003FFFE00000
00003FDFF00000
00007F8FF80000
0000FF07FC0000
0001FE01FC0000
0003FC00FE0000
0001F8007E0000
0000F000380000
00002000100000
00000000000000
00000000000000
00000000000000
00000000000000
00000000000000
FF0001FE0003FC
FF0001FE0003F8
7F0001FE0003F8
7F0003FE0003F8
7F8003FF0007F0
7F8003FF0007F0
3F8007FF0007F0
3F8007FF800FF0
3FC007FF800FE0
3FC007FF800FE0
1FC00FDFC00FE0
1FC00FDFC01FE0
1FE00FCFC01FC0
0FE01FCFC01FC0
0FE01F8FE01FC0
0FE01F8FE03F80
0FF01F87E03F80
07F03F07F03F80
07F03F07F03F80
07F03F03F03F00
03F87F03F07F00
03F87E03F87F00
03F87E01F87F00
03F87E01F87E00
01F8FC01FCFE00
01FCFC01FCFE00
01FCFC00FCFC00
01FDFC00FCFC00
00FDF800FFFC00
00FFF8007FFC00
00FFF8007FF800
007FF0007FF800
007FF0007FF800
007FF0003FF800
007FE0003FF000
003FE0003FF000
003FE0001FF000
ENDCHAR
STARTCHAR 0176
ENCODING 374
SWIDTH 611 0
DWIDTH 44 0
BBX 43 68 1 0
BITMAP
00007FC00000
0000FFC00000
0001FFE00000
0003FFF00000
0003FFF80000
0007FFFC0000
000FFBFC0000
001FF1FE0000
001FE0FF0000
003FC07F8000
007F003FC000
007E001F8000
001C000F0000
000800040000
000000000000
000000000000
000000000000
000000000000
FF8000007FE0
7FC000007FC0
7FC00000FF80
3FE00000FF80
3FF00001FF00
1FF00001FE00
0FF80003FE00
0FF80003FC00
07FC0007FC00
07FC000FF800
03FE000FF800
03FE001FF000
01FF001FE000
00FF803FE000
00FF803FC000
007FC07FC000
007FC07F8000
003FE0FF0000
003FE1FF0000
001FF1FE0000
000FF3FE0000
000FFBFC0000
0007FFFC0000
0007FFF80000
0003FFF00000
0003FFF00000
0001FFE00000
0000FFE00000
0000FFC00000
00007F800000
00007F800000
00007F800000
00007F800000
00007F800000
00007F800000
00007F800000
00007F800000
00007F800000
00007F800000
00007F800000
00007F800000
00007F800000
00007F800000
00007F800000
00007F800000
00007F800000
00007F800000
00007F800000
00007F800000
00007F800000
ENDCHAR
STARTCHAR 0177
ENCODING 375
SWIDTH 513 0
DWIDTH 37 0
BBX 35 70 1 -14
BITMAP
0007FC0000
0007FE0000
000FFF0000
001FFF0000
003FFF8000
007FFFC000
007FBFE000
00FF1FF000
01FE0FF000
03FC07F800
07F801FC00
03F000FC00
01E0007000
0040002000
0000000000
0000000000
0000000000
0000000000
0000000000
FF00001FE0
FF00001FE0
7F80001FC0
7F80003FC0
7F80003FC0
3FC0003F80
3FC0007F80
1FC0007F00
1FE0007F00
1FE000FF00
0FE000FE00
0FF001FE00
0FF001FE00
07F801FC00
07F803FC00
07F803FC00
03FC03F800
03FC07F800
01FC07F800
01FE07F000
01FE0FF000
00FE0FE000
00FF0FE000
00FF1FE000
007F1FC000
007F1FC000
007FBFC000
003FBF8000
003FBF8000
003FFF8000
001FFF0000
001FFF0000
000FFF0000
000FFE0000
000FFE0000
0007FC0000
0007FC0000
0007FC0000
0007F80000
0007F80000
0007F80000
000FF00000
000FF00000
001FF00000
07FFE00000
07FFE00000
07FFC00000
07FFC00000
07FF800000
07FF000000
07FC000000
ENDCHAR
STARTCHAR 0178
ENCODING 376
SWIDTH 611 0
DWIDTH 44 0
BBX 43 65 1 0
BITMAP
001F803E0000
003FC07F0000
003FC0FF8000
007FE0FF8000
007FE0FF8000
003FE0FF8000
003FC0FF8000
003FC07F0000
001F803E0000
000000000000
000000000000
000000000000
000000000000
000000000000
000000000000
FF8000007FE0
7FC000007FC0
7FC00000FF80
3FE00000FF80
3FF00001FF00
1FF00001FE00
0FF80003FE00
0FF80003FC00
07FC0007FC00
07FC000FF800
03FE000FF800
03FE001FF000
01FF001FE000
00FF803FE000
00FF803FC000
007FC07FC000
007FC07F8000
003FE0FF0000
003FE1FF0000
001FF1FE0000
000FF3FE0000
000FFBFC0000
0007FFFC0000
0007FFF80000
0003FFF00000
0003FFF00000
0001FFE00000
0000FFE00000
0000FFC00000
00007F800000
00007F800000
00007F800000
00007F800000
00007F800000
00007F800000
00007F800000
00007F800000
00007F800000
00007F800000
00007F800000
00007F800000
00007F800000
00007F800000
00007F800000
00007F800000
00007F800000
00007F800000
00007F800000
00007F800000
00007F800000
ENDCHAR
ENDFONT
